SplineFontDB: 2.0
FontName: THK2DJuly8
FullName: THK2DJuly8
FamilyName: TH K2D July8
Weight: Book
Copyright: Copyright (c) 2006 by Department of Intellectual Property (DIP), Ministry of Commerce and Software Industry Promotion Agency (Public Organization) (SIPA). All rights reserved.
Version: 1.1
ItalicAngle: 0
UnderlinePosition: -55
UnderlineWidth: 50
Ascent: 800
Descent: 200
Order2: 1
XUID: [1021 375 425136265 16399840]
FSType: 0
OS2Version: 3
OS2_WeightWidthSlopeOnly: 0
OS2_UseTypoMetrics: 1
CreationTime: 1158666060
ModificationTime: 1196170419
PfmFamily: 17
TTFWeight: 400
TTFWidth: 5
LineGap: 60
VLineGap: 0
Panose: 2 0 5 6 0 0 0 2 0 4
OS2TypoAscent: 0
OS2TypoAOffset: 1
OS2TypoDescent: 0
OS2TypoDOffset: 1
OS2TypoLinegap: 0
OS2WinAscent: -21
OS2WinAOffset: 1
OS2WinDescent: -178
OS2WinDOffset: 1
HheadAscent: -21
HheadAOffset: 1
HheadDescent: 178
HheadDOffset: 1
OS2SubXSize: 700
OS2SubYSize: 650
OS2SubXOff: 0
OS2SubYOff: 140
OS2SupXSize: 700
OS2SupYSize: 650
OS2SupXOff: 0
OS2SupYOff: 477
OS2StrikeYSize: 50
OS2StrikeYPos: 250
OS2FamilyClass: 773
OS2Vendor: 'K2D '
Lookup: 4 0 0 "'frac' Diagonal Fractions in Latin lookup 0"  {"'frac' Diagonal Fractions in Latin lookup 0 subtable"  } ['frac' ('latn' <'dflt' > ) ]
Lookup: 6 0 0 "'liga' Standard Ligatures in Latin lookup 1"  {"'liga' Standard Ligatures in Latin lookup 1 subtable"  } ['liga' ('latn' <'dflt' > ) ]
Lookup: 6 0 0 "'liga' Standard Ligatures in Latin lookup 2"  {"'liga' Standard Ligatures in Latin lookup 2 subtable"  } ['liga' ('latn' <'dflt' > ) ]
Lookup: 6 0 0 "'liga' Standard Ligatures in Latin lookup 3"  {"'liga' Standard Ligatures in Latin lookup 3 subtable"  } ['liga' ('latn' <'dflt' > ) ]
Lookup: 6 0 0 "'liga' Standard Ligatures in Latin lookup 4"  {"'liga' Standard Ligatures in Latin lookup 4 subtable"  } ['liga' ('latn' <'dflt' > ) ]
Lookup: 6 0 0 "'liga' Standard Ligatures in Latin lookup 5"  {"'liga' Standard Ligatures in Latin lookup 5 subtable"  } ['liga' ('latn' <'dflt' > ) ]

StartChar: .notdef
Encoding: 65536 -1 0
Width: 753
VWidth: 1507
Flags: W
HStem: 0 53<146 606> 995 53<146 606>
VStem: 95 51<53 995> 606 51<53 995>
Fore
606 53 m 1,0,-1
 606 995 l 1,1,-1
 146 995 l 1,2,-1
 146 53 l 1,3,-1
 606 53 l 1,0,-1
657 0 m 1,4,-1
 95 0 l 1,5,-1
 95 1048 l 1,6,-1
 657 1048 l 1,7,-1
 657 0 l 1,4,-1
EndSplineSet
EndChar
StartChar: numbersign
Encoding: 35 35 4
Width: 622
VWidth: 1507
Flags: W
HStem: 222 48<52.168 181 238 356 413 546.724> 437 48<76.168 206 264 381 439 570.832>
Fore
410 680 m 2,0,1
 416 731 416 731 467 725 c 1,2,-1
 439 485 l 1,3,-1
 576 485 l 1,4,5
 576 437 576 437 528 437 c 2,6,-1
 433 437 l 1,7,-1
 413 270 l 1,8,-1
 552 270 l 1,9,10
 552 222 552 222 503 222 c 2,11,-1
 407 222 l 1,12,-1
 386 35 l 2,13,14
 378 -17 378 -17 329 -9 c 1,15,-1
 356 222 l 1,16,-1
 232 222 l 1,17,-1
 211 35 l 2,18,19
 203 -17 203 -17 154 -9 c 1,20,-1
 181 222 l 1,21,-1
 47 222 l 1,22,23
 47 270 47 270 95 270 c 2,24,-1
 187 270 l 1,25,-1
 206 437 l 1,26,-1
 71 437 l 1,27,28
 71 485 71 485 119 485 c 2,29,-1
 213 485 l 1,30,-1
 235 680 l 2,31,32
 241 731 241 731 292 725 c 1,33,-1
 264 485 l 1,34,-1
 387 485 l 1,35,-1
 410 680 l 2,0,1
238 270 m 1,36,-1
 362 270 l 1,37,-1
 381 437 l 1,38,-1
 258 437 l 1,39,-1
 238 270 l 1,36,-1
EndSplineSet
EndChar
StartChar: dollar
Encoding: 36 36 5
Width: 682
VWidth: 1507
Flags: W
HStem: -8 55<237.642 315 366 442.843> 669 55<245.486 315 366 436.833>
VStem: 90 61<461.395 557.464> 315 51<-77.9736 -8 47 336 402 669 724 793.974> 529 57<492.136 532 532 577.83>
Fore
118 226 m 2,0,1
 118 191 118 191 133 161 c 128,-1,2
 148 131 148 131 174 107 c 128,-1,3
 200 83 200 83 236.5 67 c 128,-1,4
 273 51 273 51 315 47 c 1,5,-1
 315 345 l 1,6,7
 262 356 262 356 221.5 368.5 c 128,-1,8
 181 381 181 381 153 400 c 128,-1,9
 125 419 125 419 109 445.5 c 128,-1,10
 93 472 93 472 90 511 c 0,11,12
 86 550 86 550 100.5 586.5 c 128,-1,13
 115 623 115 623 144 652 c 128,-1,14
 173 681 173 681 217 700 c 128,-1,15
 261 719 261 719 315 724 c 1,16,-1
 315 749 l 2,17,18
 315 800 315 800 366 800 c 1,19,-1
 366 724 l 1,20,21
 461 716 461 716 517.5 662.5 c 128,-1,22
 574 609 574 609 586 532 c 0,23,24
 592 494 592 494 571 477.5 c 128,-1,25
 550 461 550 461 528 461 c 1,26,27
 529 469 529 469 529 472.5 c 0,28,-1
 529 491 l 0,29,30
 529 559 529 559 486 609.5 c 128,-1,31
 443 660 443 660 366 669 c 1,32,-1
 366 392 l 1,33,34
 421 381 421 381 466 370.5 c 128,-1,35
 511 360 511 360 545 342 c 128,-1,36
 579 324 579 324 599.5 297 c 128,-1,37
 620 270 620 270 623 228 c 0,38,39
 626 182 626 182 606 141.5 c 128,-1,40
 586 101 586 101 550.5 69.5 c 128,-1,41
 515 38 515 38 468 17.5 c 128,-1,42
 421 -3 421 -3 366 -8 c 1,43,-1
 366 -33 l 2,44,45
 366 -84 366 -84 315 -84 c 1,46,-1
 315 -8 l 1,47,48
 267 -5 267 -5 224.5 11 c 128,-1,49
 182 27 182 27 149 52.5 c 128,-1,50
 116 78 116 78 93.5 111.5 c 128,-1,51
 71 145 71 145 62 184 c 0,52,53
 54 223 54 223 74.5 239.5 c 128,-1,54
 95 256 95 256 119 256 c 1,55,56
 118 249 118 249 118 241 c 2,57,-1
 118 226 l 2,0,1
562 223 m 0,58,59
 558 271 558 271 503 295.5 c 128,-1,60
 448 320 448 320 366 336 c 1,61,-1
 366 47 l 1,62,63
 407 51 407 51 444 67 c 128,-1,64
 481 83 481 83 507.5 107 c 128,-1,65
 534 131 534 131 549 161 c 128,-1,66
 564 191 564 191 562 223 c 0,58,59
151 517 m 0,67,68
 154 467 154 467 194 444 c 128,-1,69
 234 421 234 421 315 402 c 1,70,-1
 315 669 l 1,71,72
 276 665 276 665 244.5 650.5 c 128,-1,73
 213 636 213 636 191 615.5 c 128,-1,74
 169 595 169 595 158.5 569.5 c 128,-1,75
 148 544 148 544 151 517 c 0,67,68
EndSplineSet
EndChar
StartChar: percent
Encoding: 37 37 6
Width: 854
VWidth: 1507
Flags: W
HStem: -5 44<587.336 693.077> 309 44<161.883 268.436> 363 44<586.883 693.529> 677 43<161.883 268.436>
VStem: 65 50<401.425 627.936> 315 50<400.703 628.652> 490 50<88.0645 314.575> 740 50<87.3481 315.297>
Fore
365 427 m 2,0,1
 365 402 365 402 353.5 380.5 c 128,-1,2
 342 359 342 359 321.5 343 c 128,-1,3
 301 327 301 327 274 318 c 128,-1,4
 247 309 247 309 216 309 c 256,5,6
 184 309 184 309 157 318 c 128,-1,7
 130 327 130 327 109.5 343 c 128,-1,8
 89 359 89 359 77 380.5 c 128,-1,9
 65 402 65 402 65 427 c 2,10,-1
 65 603 l 2,11,12
 65 627 65 627 77 649 c 128,-1,13
 89 671 89 671 109.5 686.5 c 128,-1,14
 130 702 130 702 157 711 c 128,-1,15
 184 720 184 720 216 720 c 256,16,17
 247 720 247 720 274 711 c 128,-1,18
 301 702 301 702 321.5 686.5 c 128,-1,19
 342 671 342 671 353.5 649 c 128,-1,20
 365 627 365 627 365 603 c 2,21,-1
 365 427 l 2,0,1
115 427 m 2,22,23
 115 396 115 396 144 374.5 c 128,-1,24
 173 353 173 353 216 353 c 0,25,26
 256 353 256 353 285.5 374.5 c 128,-1,27
 315 396 315 396 315 427 c 2,28,-1
 315 603 l 2,29,30
 315 633 315 633 285.5 655 c 128,-1,31
 256 677 256 677 216 677 c 0,32,33
 173 677 173 677 144 655 c 128,-1,34
 115 633 115 633 115 603 c 2,35,-1
 115 427 l 2,22,23
790 113 m 2,36,37
 790 89 790 89 778.5 67 c 128,-1,38
 767 45 767 45 747 29.5 c 128,-1,39
 727 14 727 14 699.5 4.5 c 128,-1,40
 672 -5 672 -5 641 -5 c 256,41,42
 609 -5 609 -5 582 4.5 c 128,-1,43
 555 14 555 14 534.5 29.5 c 128,-1,44
 514 45 514 45 502 67 c 128,-1,45
 490 89 490 89 490 113 c 2,46,-1
 490 289 l 2,47,48
 490 314 490 314 502 335.5 c 128,-1,49
 514 357 514 357 534.5 373 c 128,-1,50
 555 389 555 389 582 398 c 128,-1,51
 609 407 609 407 641 407 c 256,52,53
 672 407 672 407 699.5 398 c 128,-1,54
 727 389 727 389 747 373 c 128,-1,55
 767 357 767 357 778.5 335.5 c 128,-1,56
 790 314 790 314 790 289 c 2,57,-1
 790 113 l 2,36,37
540 113 m 2,58,59
 540 83 540 83 569 61 c 128,-1,60
 598 39 598 39 641 39 c 0,61,62
 681 39 681 39 710.5 61 c 128,-1,63
 740 83 740 83 740 113 c 2,64,-1
 740 289 l 2,65,66
 740 320 740 320 710.5 341.5 c 128,-1,67
 681 363 681 363 641 363 c 0,68,69
 598 363 598 363 569 341.5 c 128,-1,70
 540 320 540 320 540 289 c 2,71,-1
 540 113 l 2,58,59
580 722 m 2,72,73
 603 770 603 770 653 746 c 1,74,-1
 274 -6 l 2,75,76
 250 -56 250 -56 202 -30 c 1,77,-1
 580 722 l 2,72,73
EndSplineSet
EndChar
StartChar: ampersand
Encoding: 38 38 7
Width: 648
VWidth: 1507
Flags: W
HStem: -9 54<170.468 369.538> 672 53<223.765 362.192>
VStem: 35 60<114.613 267.479> 121 60<485.978 608.879> 392 59<513.088 641.281> 555 51<226.163 320.383>
Fore
491 77 m 1,0,1
 436 33 436 33 374 12 c 128,-1,2
 312 -9 312 -9 252 -9 c 0,3,4
 206 -9 206 -9 167 6 c 128,-1,5
 128 21 128 21 98.5 47.5 c 128,-1,6
 69 74 69 74 52 110 c 128,-1,7
 35 146 35 146 35 190 c 0,8,9
 35 270 35 270 78 322.5 c 128,-1,10
 121 375 121 375 182 405 c 1,11,12
 121 485 121 485 121 555 c 0,13,14
 121 588 121 588 133 619 c 128,-1,15
 145 650 145 650 167.5 673 c 128,-1,16
 190 696 190 696 223 710.5 c 128,-1,17
 256 725 256 725 300 725 c 0,18,19
 366 725 366 725 408.5 687.5 c 128,-1,20
 451 650 451 650 451 583 c 0,21,22
 451 523 451 523 402.5 472.5 c 128,-1,23
 354 422 354 422 271 384 c 1,24,25
 335 312 335 312 391.5 251 c 128,-1,26
 448 190 448 190 487 155 c 1,27,28
 517 188 517 188 536 225 c 128,-1,29
 555 262 555 262 555 327 c 1,30,31
 606 327 606 327 606 271 c 0,32,33
 606 232 606 232 582.5 193.5 c 128,-1,34
 559 155 559 155 528 121 c 1,35,36
 553 93 553 93 583 62.5 c 128,-1,37
 613 32 613 32 639 11 c 1,38,39
 623 -6 623 -6 601.5 -7.5 c 128,-1,40
 580 -9 580 -9 561 8 c 2,41,-1
 491 77 l 1,0,1
392 577 m 0,42,43
 392 613 392 613 369.5 642.5 c 128,-1,44
 347 672 347 672 294 672 c 0,45,46
 240 672 240 672 210.5 638 c 128,-1,47
 181 604 181 604 181 561 c 0,48,49
 181 519 181 519 199 488.5 c 128,-1,50
 217 458 217 458 237 433 c 2,51,-1
 241 425 l 1,52,53
 306 457 306 457 349 491 c 128,-1,54
 392 525 392 525 392 577 c 0,42,43
264 45 m 0,55,56
 321 45 321 45 368.5 64.5 c 128,-1,57
 416 84 416 84 451 116 c 1,58,59
 437 130 437 130 412 155.5 c 128,-1,60
 387 181 387 181 356.5 213.5 c 128,-1,61
 326 246 326 246 289.5 285 c 128,-1,62
 253 324 253 324 217 365 c 1,63,64
 199 356 199 356 178 341 c 128,-1,65
 157 326 157 326 138 305.5 c 128,-1,66
 119 285 119 285 107 258.5 c 128,-1,67
 95 232 95 232 95 197 c 0,68,69
 95 125 95 125 143 85 c 128,-1,70
 191 45 191 45 264 45 c 0,55,56
EndSplineSet
EndChar
StartChar: quotesingle
Encoding: 39 39 8
Width: 220
VWidth: 1507
Flags: W
HStem: 508 217<93.1442 123.529 84 148 148 148>
VStem: 84 55<508 528.218 528.218 567.999>
Fore
75 653 m 2,0,1
 72 690 72 690 92.5 707.5 c 128,-1,2
 113 725 113 725 148 725 c 1,3,-1
 139 565 l 2,4,5
 139 544 139 544 124 526 c 128,-1,6
 109 508 109 508 84 508 c 1,7,-1
 75 653 l 2,0,1
EndSplineSet
EndChar
StartChar: parenleft
Encoding: 40 40 9
Width: 287
VWidth: 1507
Flags: W
VStem: 71 60<182.124 432.727>
Fore
71 307 m 256,0,1
 71 381 71 381 83 442 c 128,-1,2
 95 503 95 503 115.5 554.5 c 128,-1,3
 136 606 136 606 162 649 c 128,-1,4
 188 692 188 692 217 728 c 0,5,6
 229 745 229 745 246.5 744 c 128,-1,7
 264 743 264 743 276 727 c 1,8,9
 208 644 208 644 169.5 543 c 128,-1,10
 131 442 131 442 131 307 c 256,11,12
 131 173 131 173 169.5 72 c 128,-1,13
 208 -29 208 -29 276 -112 c 1,14,15
 264 -128 264 -128 246.5 -129 c 128,-1,16
 229 -130 229 -130 217 -113 c 0,17,18
 188 -77 188 -77 162 -34 c 128,-1,19
 136 9 136 9 115.5 60.5 c 128,-1,20
 95 112 95 112 83 173 c 128,-1,21
 71 234 71 234 71 307 c 256,0,1
EndSplineSet
EndChar
StartChar: asterisk
Encoding: 42 42 11
Width: 434
VWidth: 1507
Flags: W
HStem: 389 356<146 282 146 146>
VStem: 30 371<550 582 537 594 537 537>
Fore
244 546 m 1,0,1
 268 515 268 515 292.5 483 c 128,-1,2
 317 451 317 451 341 421 c 1,3,-1
 282 389 l 1,4,-1
 213 531 l 1,5,6
 193 496 193 496 175.5 460 c 128,-1,7
 158 424 158 424 139 389 c 1,8,-1
 89 421 l 1,9,-1
 185 550 l 1,10,11
 146 547 146 547 107.5 543.5 c 128,-1,12
 69 540 69 540 30 537 c 1,13,-1
 30 594 l 1,14,-1
 185 583 l 1,15,16
 161 615 161 615 136.5 648 c 128,-1,17
 112 681 112 681 89 711 c 1,18,-1
 146 745 l 1,19,-1
 217 606 l 1,20,21
 234 639 234 639 251 675 c 128,-1,22
 268 711 268 711 285 745 c 1,23,-1
 341 713 l 1,24,-1
 244 582 l 1,25,26
 283.5 585 l 0,27,-1
 401 594 l 1,28,-1
 401 537 l 1,29,-1
 244 546 l 1,0,1
EndSplineSet
EndChar
StartChar: plus
Encoding: 43 43 12
Width: 602
VWidth: 1507
Flags: W
HStem: 273 51<51.0264 273 330 551.855>
VStem: 273 57<50.6975 273 324 546.15>
Fore
273 273 m 1,0,-1
 45 273 l 1,1,2
 45 324 45 324 96 324 c 2,3,-1
 273 324 l 1,4,-1
 273 497 l 2,5,6
 273 555 273 555 330 555 c 1,7,-1
 330 324 l 1,8,-1
 558 324 l 1,9,10
 558 273 558 273 506 273 c 2,11,-1
 330 273 l 1,12,-1
 330 99 l 2,13,14
 330 42 330 42 273 42 c 1,15,-1
 273 273 l 1,0,-1
EndSplineSet
EndChar
StartChar: comma
Encoding: 44 44 13
Width: 192
VWidth: 1507
Flags: W
HStem: -9 113<58.502 115.606>
VStem: 42 113<7.50195 86.9825>
Fore
42 47 m 256,0,1
 42 71 42 71 58 87.5 c 128,-1,2
 74 104 74 104 98 104 c 256,3,4
 122 104 122 104 138.5 87.5 c 128,-1,5
 155 71 155 71 155 47 c 0,6,7
 155 2 155 2 148.5 -30 c 128,-1,8
 142 -62 142 -62 130.5 -84 c 128,-1,9
 119 -106 119 -106 105.5 -120 c 128,-1,10
 92 -134 92 -134 78 -145 c 0,11,12
 72 -149 72 -149 64 -149 c 128,-1,13
 56 -149 56 -149 51 -145 c 1,14,15
 81 -118 81 -118 98.5 -84 c 128,-1,16
 116 -50 116 -50 116 -6 c 1,17,18
 110 -9 110 -9 98 -9 c 0,19,20
 74 -9 74 -9 58 7 c 128,-1,21
 42 23 42 23 42 47 c 256,0,1
EndSplineSet
EndChar
StartChar: hyphen
Encoding: 45 45 14
Width: 354
VWidth: 1507
Flags: W
HStem: 271 55<52.1719 301.828 45 309 96 96>
Fore
45 271 m 1,0,1
 45 326 45 326 96 326 c 2,2,-1
 309 326 l 1,3,4
 309 271 309 271 258 271 c 2,5,-1
 45 271 l 1,0,1
EndSplineSet
EndChar
StartChar: period
Encoding: 46 46 15
Width: 197
VWidth: 1507
Flags: W
HStem: -9 113<58.502 137.983>
VStem: 42 113<7.50195 86.9825>
Fore
42 47 m 256,0,1
 42 71 42 71 58 87.5 c 128,-1,2
 74 104 74 104 98 104 c 256,3,4
 122 104 122 104 138.5 87.5 c 128,-1,5
 155 71 155 71 155 47 c 256,6,7
 155 23 155 23 138.5 7 c 128,-1,8
 122 -9 122 -9 98 -9 c 256,9,10
 74 -9 74 -9 58 7 c 128,-1,11
 42 23 42 23 42 47 c 256,0,1
EndSplineSet
EndChar
StartChar: slash
Encoding: 47 47 16
Width: 420
VWidth: 1507
Flags: W
VStem: -15 451<-30 746 -30 -30>
Fore
363 722 m 2,0,1
 386 770 386 770 436 746 c 1,2,-1
 57 -6 l 2,3,4
 33 -56 33 -56 -15 -30 c 1,5,-1
 363 722 l 2,0,1
EndSplineSet
EndChar
StartChar: zero
Encoding: 48 48 17
Width: 693
VWidth: 1507
Flags: W
HStem: -9 54<273.949 419.228> 671 54<273.949 419.228>
VStem: 84 61<136.845 579.155> 549 60<136.845 579.155>
Fore
609 194 m 2,0,1
 609 152 609 152 588.5 115 c 128,-1,2
 568 78 568 78 532 50.5 c 128,-1,3
 496 23 496 23 448.5 7 c 128,-1,4
 401 -9 401 -9 347 -9 c 256,5,6
 292 -9 292 -9 244.5 7 c 128,-1,7
 197 23 197 23 161 50.5 c 128,-1,8
 125 78 125 78 104.5 115 c 128,-1,9
 84 152 84 152 84 194 c 2,10,-1
 84 522 l 2,11,12
 84 564 84 564 104.5 601 c 128,-1,13
 125 638 125 638 161 665.5 c 128,-1,14
 197 693 197 693 244.5 709 c 128,-1,15
 292 725 292 725 347 725 c 256,16,17
 401 725 401 725 448.5 709 c 128,-1,18
 496 693 496 693 532 665.5 c 128,-1,19
 568 638 568 638 588.5 601 c 128,-1,20
 609 564 609 564 609 522 c 2,21,-1
 609 194 l 2,0,1
145 194 m 2,22,23
 145 163 145 163 160.5 136 c 128,-1,24
 176 109 176 109 203.5 88.5 c 128,-1,25
 231 68 231 68 267.5 56.5 c 128,-1,26
 304 45 304 45 347 45 c 256,27,28
 389 45 389 45 426 56.5 c 128,-1,29
 463 68 463 68 490 88.5 c 128,-1,30
 517 109 517 109 533 136 c 128,-1,31
 549 163 549 163 549 194 c 2,32,-1
 549 522 l 2,33,34
 549 553 549 553 533 580 c 128,-1,35
 517 607 517 607 490 627.5 c 128,-1,36
 463 648 463 648 426 659.5 c 128,-1,37
 389 671 389 671 347 671 c 256,38,39
 304 671 304 671 267.5 659.5 c 128,-1,40
 231 648 231 648 203.5 627.5 c 128,-1,41
 176 607 176 607 160.5 580 c 128,-1,42
 145 553 145 553 145 522 c 2,43,-1
 145 194 l 2,22,23
EndSplineSet
EndChar
StartChar: one
Encoding: 49 49 18
Width: 693
VWidth: 1507
Flags: W
HStem: -9 21G<347 377> 662 54<233.594 347>
VStem: 226 181<669.594 687 687 700.939> 347 60<0.902344 662>
Fore
378 716 m 1,0,1
 390 716 390 716 398.5 707.5 c 128,-1,2
 407 699 407 699 407 687 c 2,3,-1
 407 51 l 2,4,5
 407 -9 407 -9 347 -9 c 1,6,-1
 347 662 l 1,7,-1
 280 662 l 2,8,9
 226 662 226 662 226 716 c 1,10,-1
 378 716 l 1,0,1
EndSplineSet
EndChar
StartChar: two
Encoding: 50 50 19
Width: 693
VWidth: 1507
Flags: W
HStem: 0 54<149 592.497> 671 54<286.591 431.703>
VStem: 89 56<509.712 538 538 569.577> 550 59<443.355 575.581>
Fore
550 54 m 2,0,1
 577 54 577 54 593 40.5 c 128,-1,2
 609 27 609 27 609 0 c 1,3,-1
 115 0 l 2,4,5
 104 0 104 0 95.5 6 c 128,-1,6
 87 12 87 12 87 24 c 0,7,8
 87 113 87 113 148.5 189 c 128,-1,9
 210 265 210 265 326 320 c 0,10,11
 353 333 353 333 392 349 c 128,-1,12
 431 365 431 365 465.5 387.5 c 128,-1,13
 500 410 500 410 525 439.5 c 128,-1,14
 550 469 550 469 550 508 c 0,15,16
 550 541 550 541 534.5 570.5 c 128,-1,17
 519 600 519 600 491.5 622.5 c 128,-1,18
 464 645 464 645 427 658 c 128,-1,19
 390 671 390 671 348 671 c 256,20,21
 306 671 306 671 269 658 c 128,-1,22
 232 645 232 645 204 622.5 c 128,-1,23
 176 600 176 600 160.5 570.5 c 128,-1,24
 145 541 145 541 145 508 c 0,25,26
 145 500 145 500 145 494 c 128,-1,27
 145 488 145 488 148 478 c 1,28,29
 122 478 122 478 103 496 c 128,-1,30
 84 514 84 514 89 538 c 0,31,32
 96 582 96 582 121 616.5 c 128,-1,33
 146 651 146 651 182.5 675 c 128,-1,34
 219 699 219 699 261.5 712 c 128,-1,35
 304 725 304 725 348 725 c 0,36,37
 393 725 393 725 439 710.5 c 128,-1,38
 485 696 485 696 523 668.5 c 128,-1,39
 561 641 561 641 585 600 c 128,-1,40
 609 559 609 559 609 508 c 0,41,42
 609 463 609 463 585.5 427.5 c 128,-1,43
 562 392 562 392 525 364 c 128,-1,44
 488 336 488 336 442 313.5 c 128,-1,45
 396 291 396 291 350 270 c 0,46,47
 259 228 259 228 209.5 173 c 128,-1,48
 160 118 160 118 149 54 c 1,49,-1
 550 54 l 2,0,1
EndSplineSet
EndChar
StartChar: three
Encoding: 51 51 20
Width: 693
VWidth: 1507
Flags: W
HStem: -9 54<275.293 418.614> 362 56<332.542 384.954> 671 54<287.102 407.61>
VStem: 89 56<142.392 206.326> 128 57<541.103 570.015> 508 60<500.436 588.152> 549 60<137.035 269.45>
Fore
128 574 m 0,0,1
 133 601 133 601 150 628.5 c 128,-1,2
 167 656 167 656 196 677 c 128,-1,3
 225 698 225 698 263 711.5 c 128,-1,4
 301 725 301 725 347 725 c 256,5,6
 392 725 392 725 432.5 710.5 c 128,-1,7
 473 696 473 696 503.5 671.5 c 128,-1,8
 534 647 534 647 551 614.5 c 128,-1,9
 568 582 568 582 568 544 c 0,10,11
 568 496 568 496 540 457 c 128,-1,12
 512 418 512 418 467 392 c 1,13,14
 531 366 531 366 570 315.5 c 128,-1,15
 609 265 609 265 609 203 c 0,16,17
 609 160 609 160 588.5 120.5 c 128,-1,18
 568 81 568 81 532 52.5 c 128,-1,19
 496 24 496 24 448.5 7.5 c 128,-1,20
 401 -9 401 -9 347 -9 c 256,21,22
 292 -9 292 -9 246 7 c 128,-1,23
 200 23 200 23 166.5 49 c 128,-1,24
 133 75 133 75 112.5 107.5 c 128,-1,25
 92 140 92 140 89 173 c 0,26,27
 86 202 86 202 99.5 218.5 c 128,-1,28
 113 235 113 235 148 234 c 1,29,30
 146 226 146 226 145.5 218.5 c 128,-1,31
 145 211 145 211 145 203 c 0,32,33
 145 170 145 170 160.5 141.5 c 128,-1,34
 176 113 176 113 203.5 91 c 128,-1,35
 231 69 231 69 267.5 57 c 128,-1,36
 304 45 304 45 347 45 c 256,37,38
 389 45 389 45 426 57 c 128,-1,39
 463 69 463 69 490 91 c 128,-1,40
 517 113 517 113 533 141.5 c 128,-1,41
 549 170 549 170 549 203 c 256,42,43
 549 237 549 237 533 265.5 c 128,-1,44
 517 294 517 294 490 315 c 128,-1,45
 463 336 463 336 426 349 c 128,-1,46
 389 362 389 362 347 362 c 0,47,48
 335 362 335 362 326 370 c 128,-1,49
 317 378 317 378 317 390 c 256,50,51
 317 402 317 402 326 410 c 128,-1,52
 335 418 335 418 347 418 c 0,53,54
 380 418 380 418 409.5 427.5 c 128,-1,55
 439 437 439 437 460.5 454.5 c 128,-1,56
 482 472 482 472 495 495.5 c 128,-1,57
 508 519 508 519 508 544 c 256,58,59
 508 570 508 570 495 593 c 128,-1,60
 482 616 482 616 460.5 633.5 c 128,-1,61
 439 651 439 651 409.5 661 c 128,-1,62
 380 671 380 671 347 671 c 256,63,64
 314 671 314 671 284.5 661 c 128,-1,65
 255 651 255 651 233 633.5 c 128,-1,66
 211 616 211 616 198 593 c 128,-1,67
 185 570 185 570 185 544 c 0,68,69
 185 540 185 540 185 531 c 128,-1,70
 185 522 185 522 188 514 c 1,71,72
 163 511 163 511 142.5 527.5 c 128,-1,73
 122 544 122 544 128 574 c 0,0,1
EndSplineSet
EndChar
StartChar: four
Encoding: 52 52 21
Width: 693
VWidth: 1507
Flags: W
HStem: -9 21G<467 497.5> 179 55<139 467 528 642.266>
VStem: 467 61<0.902344 175 234 612>
Fore
650 234 m 1,0,1
 650 179 650 179 595 179 c 2,2,-1
 496 179 l 1,3,-1
 500 178 l 1,4,-1
 528 175 l 1,5,-1
 528 51 l 2,6,7
 528 -9 528 -9 467 -9 c 1,8,-1
 467 179 l 1,9,-1
 81 179 l 2,10,11
 63 179 63 179 55 193.5 c 128,-1,12
 47 208 47 208 59 225 c 2,13,-1
 476 716 l 2,14,15
 490 731 490 731 508 724 c 128,-1,16
 526 717 526 717 528 696 c 2,17,-1
 528 234 l 1,18,-1
 650 234 l 1,0,1
467 234 m 1,19,-1
 467 612 l 1,20,-1
 491 644 l 1,21,-1
 490 648 l 1,22,-1
 139 234 l 1,23,-1
 467 234 l 1,19,-1
EndSplineSet
EndChar
StartChar: five
Encoding: 53 53 22
Width: 693
VWidth: 1507
Flags: W
HStem: -9 54<262.803 430.683> 461 54<259.291 430.683> 662 54<280 553.266>
VStem: 89 56<173.189 256.326> 549 60<166.075 338.916>
Fore
225 493 m 1,0,1
 216 487 216 487 209.5 482.5 c 128,-1,2
 203 478 203 478 196 472 c 1,3,-1
 200 470 l 1,4,5
 267 515 267 515 347 515 c 0,6,7
 401 515 401 515 448.5 495 c 128,-1,8
 496 475 496 475 532 438.5 c 128,-1,9
 568 402 568 402 588.5 354.5 c 128,-1,10
 609 307 609 307 609 253 c 256,11,12
 609 199 609 199 588.5 151.5 c 128,-1,13
 568 104 568 104 532 68 c 128,-1,14
 496 32 496 32 448.5 11.5 c 128,-1,15
 401 -9 401 -9 347 -9 c 256,16,17
 292 -9 292 -9 247 10 c 128,-1,18
 202 29 202 29 168 61 c 128,-1,19
 134 93 134 93 113.5 135.5 c 128,-1,20
 93 178 93 178 89 223 c 0,21,22
 86 252 86 252 99.5 268.5 c 128,-1,23
 113 285 113 285 148 283 c 1,24,25
 146 276 146 276 145.5 268.5 c 128,-1,26
 145 261 145 261 145 253 c 0,27,28
 145 210 145 210 160.5 172 c 128,-1,29
 176 134 176 134 203.5 106 c 128,-1,30
 231 78 231 78 267.5 61.5 c 128,-1,31
 304 45 304 45 347 45 c 256,32,33
 389 45 389 45 426 61.5 c 128,-1,34
 463 78 463 78 490 106 c 128,-1,35
 517 134 517 134 533 172 c 128,-1,36
 549 210 549 210 549 253 c 0,37,38
 549 295 549 295 533 333.5 c 128,-1,39
 517 372 517 372 490 400 c 128,-1,40
 463 428 463 428 426 444.5 c 128,-1,41
 389 461 389 461 347 461 c 0,42,43
 298 461 298 461 258.5 440 c 128,-1,44
 219 419 219 419 190 384 c 0,45,46
 181 375 181 375 170.5 374.5 c 128,-1,47
 160 374 160 374 151.5 378.5 c 128,-1,48
 143 383 143 383 138.5 392.5 c 128,-1,49
 134 402 134 402 139 415 c 2,50,-1
 232 693 l 2,51,52
 237 716 237 716 261 716 c 2,53,-1
 561 716 l 1,54,55
 561 662 561 662 506 662 c 2,56,-1
 280 662 l 1,57,58
 267 621 267 621 255 586 c 0,59,60
 244 556 244 556 236 529 c 128,-1,61
 228 502 228 502 225 493 c 1,0,1
EndSplineSet
EndChar
StartChar: six
Encoding: 54 54 23
Width: 693
VWidth: 1507
Flags: W
HStem: -9 54<262.567 430.683> 461 54<290.765 430.683>
VStem: 84 61<166.075 339.908> 549 60<166.075 338.916>
Fore
274 505 m 1,0,1
 291 509 291 509 310 512 c 128,-1,2
 329 515 329 515 347 515 c 0,3,4
 401 515 401 515 448.5 495 c 128,-1,5
 496 475 496 475 532 438.5 c 128,-1,6
 568 402 568 402 588.5 354.5 c 128,-1,7
 609 307 609 307 609 253 c 256,8,9
 609 199 609 199 588.5 151.5 c 128,-1,10
 568 104 568 104 532 68 c 128,-1,11
 496 32 496 32 448.5 11.5 c 128,-1,12
 401 -9 401 -9 347 -9 c 256,13,14
 292 -9 292 -9 244.5 11.5 c 128,-1,15
 197 32 197 32 161 68 c 128,-1,16
 125 104 125 104 104.5 151.5 c 128,-1,17
 84 199 84 199 84 253 c 0,18,19
 84 309 84 309 107 356.5 c 128,-1,20
 130 404 130 404 164 442 c 2,21,-1
 410 705 l 2,22,23
 446 745 446 745 487 708 c 1,24,-1
 311 519 l 1,25,26
 288 514 288 514 270 508 c 1,27,-1
 274 505 l 1,0,1
549 253 m 0,28,29
 549 295 549 295 533 333.5 c 128,-1,30
 517 372 517 372 490 400 c 128,-1,31
 463 428 463 428 426 444.5 c 128,-1,32
 389 461 389 461 347 461 c 256,33,34
 304 461 304 461 267.5 444.5 c 128,-1,35
 231 428 231 428 203.5 400 c 128,-1,36
 176 372 176 372 160.5 333.5 c 128,-1,37
 145 295 145 295 145 253 c 0,38,39
 145 210 145 210 160.5 172 c 128,-1,40
 176 134 176 134 203.5 106 c 128,-1,41
 231 78 231 78 267.5 61.5 c 128,-1,42
 304 45 304 45 347 45 c 256,43,44
 389 45 389 45 426 61.5 c 128,-1,45
 463 78 463 78 490 106 c 128,-1,46
 517 134 517 134 533 172 c 128,-1,47
 549 210 549 210 549 253 c 0,28,29
EndSplineSet
EndChar
StartChar: seven
Encoding: 55 55 24
Width: 693
VWidth: 1507
Flags: W
HStem: 662 54<102.594 546>
Fore
546 662 m 1,0,-1
 149 662 l 2,1,2
 95 662 95 662 95 716 c 1,3,-1
 588 716 l 2,4,5
 603 716 603 716 613 702.5 c 128,-1,6
 623 689 623 689 615 672 c 2,7,-1
 280 21 l 2,8,9
 256 -26 256 -26 206 0 c 1,10,-1
 546 662 l 1,0,-1
EndSplineSet
EndChar
StartChar: eight
Encoding: 56 56 25
Width: 693
VWidth: 1507
Flags: W
HStem: -9 54<274.567 418.614> 362 56<309.046 384.954> 671 54<285.89 407.61>
VStem: 84 61<137.035 270.308> 125 60<500.436 588.152> 508 60<500.436 588.152> 549 60<137.035 269.45>
Fore
125 544 m 0,0,1
 125 582 125 582 142.5 614.5 c 128,-1,2
 160 647 160 647 190 671.5 c 128,-1,3
 220 696 220 696 260.5 710.5 c 128,-1,4
 301 725 301 725 347 725 c 256,5,6
 392 725 392 725 432.5 710.5 c 128,-1,7
 473 696 473 696 503.5 671.5 c 128,-1,8
 534 647 534 647 551 614.5 c 128,-1,9
 568 582 568 582 568 544 c 0,10,11
 568 496 568 496 540 457 c 128,-1,12
 512 418 512 418 467 392 c 1,13,14
 531 366 531 366 570 315.5 c 128,-1,15
 609 265 609 265 609 203 c 0,16,17
 609 160 609 160 588.5 120.5 c 128,-1,18
 568 81 568 81 532 52.5 c 128,-1,19
 496 24 496 24 448.5 7.5 c 128,-1,20
 401 -9 401 -9 347 -9 c 256,21,22
 292 -9 292 -9 244.5 7.5 c 128,-1,23
 197 24 197 24 161 52.5 c 128,-1,24
 125 81 125 81 104.5 120.5 c 128,-1,25
 84 160 84 160 84 203 c 0,26,27
 84 265 84 265 123.5 315.5 c 128,-1,28
 163 366 163 366 226 392 c 1,29,30
 179 418 179 418 152 457 c 128,-1,31
 125 496 125 496 125 544 c 0,0,1
145 203 m 256,32,33
 145 170 145 170 160.5 141.5 c 128,-1,34
 176 113 176 113 203.5 91 c 128,-1,35
 231 69 231 69 267.5 57 c 128,-1,36
 304 45 304 45 347 45 c 256,37,38
 389 45 389 45 426 57 c 128,-1,39
 463 69 463 69 490 91 c 128,-1,40
 517 113 517 113 533 141.5 c 128,-1,41
 549 170 549 170 549 203 c 256,42,43
 549 237 549 237 533 265.5 c 128,-1,44
 517 294 517 294 490 315 c 128,-1,45
 463 336 463 336 426 349 c 128,-1,46
 389 362 389 362 347 362 c 256,47,48
 304 362 304 362 267.5 349 c 128,-1,49
 231 336 231 336 203.5 315 c 128,-1,50
 176 294 176 294 160.5 265.5 c 128,-1,51
 145 237 145 237 145 203 c 256,32,33
185 544 m 256,52,53
 185 519 185 519 198 495.5 c 128,-1,54
 211 472 211 472 233 454.5 c 128,-1,55
 255 437 255 437 284.5 427.5 c 128,-1,56
 314 418 314 418 347 418 c 256,57,58
 380 418 380 418 409.5 427.5 c 128,-1,59
 439 437 439 437 460.5 454.5 c 128,-1,60
 482 472 482 472 495 495.5 c 128,-1,61
 508 519 508 519 508 544 c 256,62,63
 508 570 508 570 495 593 c 128,-1,64
 482 616 482 616 460.5 633.5 c 128,-1,65
 439 651 439 651 409.5 661 c 128,-1,66
 380 671 380 671 347 671 c 256,67,68
 314 671 314 671 284.5 661 c 128,-1,69
 255 651 255 651 233 633.5 c 128,-1,70
 211 616 211 616 198 593 c 128,-1,71
 185 570 185 570 185 544 c 256,52,53
EndSplineSet
EndChar
StartChar: nine
Encoding: 57 57 26
Width: 693
VWidth: 1507
Flags: W
HStem: 200 55<262.567 403.302> 671 54<262.567 430.683>
VStem: 84 61<375.533 549.667> 549 60<376.333 548.916>
Fore
419 211 m 1,0,1
 402 206 402 206 383.5 203 c 128,-1,2
 365 200 365 200 347 200 c 0,3,4
 292 200 292 200 244.5 220.5 c 128,-1,5
 197 241 197 241 161 277.5 c 128,-1,6
 125 314 125 314 104.5 361 c 128,-1,7
 84 408 84 408 84 463 c 256,8,9
 84 517 84 517 104.5 564.5 c 128,-1,10
 125 612 125 612 161 648 c 128,-1,11
 197 684 197 684 244.5 704.5 c 128,-1,12
 292 725 292 725 347 725 c 256,13,14
 401 725 401 725 448.5 704.5 c 128,-1,15
 496 684 496 684 532 648 c 128,-1,16
 568 612 568 612 588.5 564.5 c 128,-1,17
 609 517 609 517 609 463 c 0,18,19
 609 407 609 407 586.5 359.5 c 128,-1,20
 564 312 564 312 529 274 c 2,21,-1
 283 11 l 2,22,23
 247 -29 247 -29 206 8 c 1,24,-1
 383 197 l 1,25,26
 405 202 405 202 424 208 c 1,27,-1
 419 211 l 1,0,1
145 463 m 0,28,29
 145 419 145 419 160.5 381.5 c 128,-1,30
 176 344 176 344 203.5 316 c 128,-1,31
 231 288 231 288 267.5 271.5 c 128,-1,32
 304 255 304 255 347 255 c 256,33,34
 389 255 389 255 426 271.5 c 128,-1,35
 463 288 463 288 490 316 c 128,-1,36
 517 344 517 344 533 381.5 c 128,-1,37
 549 419 549 419 549 463 c 0,38,39
 549 505 549 505 533 543.5 c 128,-1,40
 517 582 517 582 490 610 c 128,-1,41
 463 638 463 638 426 654.5 c 128,-1,42
 389 671 389 671 347 671 c 256,43,44
 304 671 304 671 267.5 654.5 c 128,-1,45
 231 638 231 638 203.5 610 c 128,-1,46
 176 582 176 582 160.5 543.5 c 128,-1,47
 145 505 145 505 145 463 c 0,28,29
EndSplineSet
EndChar
StartChar: less
Encoding: 60 60 29
Width: 602
VWidth: 1507
Flags: W
Fore
60 318 m 2,0,-1
 553 589 l 1,1,2
 573 543 573 543 535 522 c 2,3,-1
 130 298 l 1,4,-1
 535 75 l 2,5,6
 573 54 573 54 553 8 c 1,7,-1
 60 279 l 2,8,9
 48 286 48 286 48 298 c 256,10,11
 48 311 48 311 60 318 c 2,0,-1
EndSplineSet
EndChar
StartChar: equal
Encoding: 61 61 30
Width: 602
VWidth: 1507
Flags: W
HStem: 182 52<51.5867 551.284> 363 52<51.5867 96 96 551.284>
Fore
45 363 m 1,0,1
 45 415 45 415 96 415 c 2,2,-1
 558 415 l 1,3,4
 558 363 558 363 506 363 c 2,5,-1
 45 363 l 1,0,1
45 182 m 1,6,7
 45 234 45 234 96 234 c 2,8,-1
 558 234 l 1,9,10
 558 182 558 182 506 182 c 2,11,-1
 45 182 l 1,6,7
EndSplineSet
EndChar
StartChar: question
Encoding: 63 63 32
Width: 503
VWidth: 1507
Flags: W
HStem: -9 113<206.502 285.983> 674 51<162.794 327.936>
VStem: 190 113<7.50195 86.9825> 217 57<153.698 293.888> 399 58<459.078 605.654>
Fore
274 202 m 2,0,1
 274 145 274 145 217 145 c 1,2,-1
 217 234 l 2,3,4
 217 270 217 270 230.5 295.5 c 128,-1,5
 244 321 244 321 264.5 342 c 128,-1,6
 285 363 285 363 308.5 381 c 128,-1,7
 332 399 332 399 352 419.5 c 128,-1,8
 372 440 372 440 385.5 465.5 c 128,-1,9
 399 491 399 491 399 526 c 0,10,11
 399 589 399 589 356.5 631.5 c 128,-1,12
 314 674 314 674 246 674 c 0,13,14
 182 674 182 674 137 634 c 128,-1,15
 92 594 92 594 92 526 c 0,16,17
 92 517 92 517 92 511.5 c 128,-1,18
 92 506 92 506 93 497 c 1,19,20
 69 497 69 497 51 514 c 128,-1,21
 33 531 33 531 36 555 c 0,22,23
 47 633 47 633 105.5 679 c 128,-1,24
 164 725 164 725 246 725 c 0,25,26
 288 725 288 725 326.5 711.5 c 128,-1,27
 365 698 365 698 393.5 672.5 c 128,-1,28
 422 647 422 647 439.5 610 c 128,-1,29
 457 573 457 573 457 526 c 0,30,31
 457 464 457 464 428 425.5 c 128,-1,32
 399 387 399 387 365.5 358.5 c 128,-1,33
 332 330 332 330 303 302 c 128,-1,34
 274 274 274 274 274 234 c 2,35,-1
 274 202 l 2,0,1
190 47 m 256,36,37
 190 71 190 71 206 87.5 c 128,-1,38
 222 104 222 104 246 104 c 256,39,40
 270 104 270 104 286.5 87.5 c 128,-1,41
 303 71 303 71 303 47 c 256,42,43
 303 23 303 23 286.5 7 c 128,-1,44
 270 -9 270 -9 246 -9 c 256,45,46
 222 -9 222 -9 206 7 c 128,-1,47
 190 23 190 23 190 47 c 256,36,37
EndSplineSet
EndChar
StartChar: at
Encoding: 64 64 33
Width: 847
VWidth: 1507
Flags: W
HStem: -9 45<325.984 523.599> 137 48<305.417 420.291 531.351 617.234> 526 50<380.002 485.067> 681 44<325.481 550.58>
VStem: 75 52<237.566 475.474> 213 61<217.523 357.047> 720 52<329.013 527.213>
Fore
362 185 m 0,0,1
 396 185 396 185 427 211 c 128,-1,2
 458 237 458 237 480.5 274.5 c 128,-1,3
 503 312 503 312 516 354 c 128,-1,4
 529 396 529 396 529 431 c 0,5,6
 529 448 529 448 523 466 c 128,-1,7
 517 484 517 484 505.5 497.5 c 128,-1,8
 494 511 494 511 480 518.5 c 128,-1,9
 466 526 466 526 451 526 c 0,10,11
 411 526 411 526 379 503.5 c 128,-1,12
 347 481 347 481 324 444.5 c 128,-1,13
 301 408 301 408 287.5 367 c 128,-1,14
 274 326 274 326 274 288 c 0,15,16
 274 243 274 243 298.5 214 c 128,-1,17
 323 185 323 185 362 185 c 0,0,1
588 556 m 1,18,-1
 639 556 l 1,19,-1
 546 265 l 2,20,21
 540 249 540 249 535.5 235.5 c 128,-1,22
 531 222 531 222 531 210 c 0,23,24
 531 182 531 182 559 182 c 256,25,26
 588 182 588 182 616 203.5 c 128,-1,27
 644 225 644 225 667 259.5 c 128,-1,28
 690 294 690 294 705 337.5 c 128,-1,29
 720 381 720 381 720 424 c 0,30,31
 720 484 720 484 697 530 c 128,-1,32
 674 576 674 576 636 610 c 128,-1,33
 598 644 598 644 547 662.5 c 128,-1,34
 496 681 496 681 440 681 c 0,35,36
 372 681 372 681 315 655 c 128,-1,37
 258 629 258 629 216.5 584.5 c 128,-1,38
 175 540 175 540 151 481 c 128,-1,39
 127 422 127 422 127 354 c 0,40,41
 127 288 127 288 151.5 230.5 c 128,-1,42
 176 173 176 173 217.5 130 c 128,-1,43
 259 87 259 87 317 61.5 c 128,-1,44
 375 36 375 36 442 36 c 0,45,46
 519 36 519 36 589.5 72.5 c 128,-1,47
 660 109 660 109 704 173 c 0,48,49
 728 206 728 206 755 173 c 1,50,51
 731 131 731 131 698 98 c 128,-1,52
 665 65 665 65 624 41 c 128,-1,53
 583 17 583 17 536.5 4 c 128,-1,54
 490 -9 490 -9 442 -9 c 0,55,56
 362 -9 362 -9 296.5 20.5 c 128,-1,57
 231 50 231 50 182 101 c 128,-1,58
 133 152 133 152 104 218.5 c 128,-1,59
 75 285 75 285 75 362 c 0,60,61
 75 437 75 437 104.5 502.5 c 128,-1,62
 134 568 134 568 184 618 c 128,-1,63
 234 668 234 668 298.5 696.5 c 128,-1,64
 363 725 363 725 439 725 c 0,65,66
 509 725 509 725 569 702.5 c 128,-1,67
 629 680 629 680 674.5 639 c 128,-1,68
 720 598 720 598 746 543 c 128,-1,69
 772 488 772 488 772 422 c 0,70,71
 772 363 772 363 751 311 c 128,-1,72
 730 259 730 259 697.5 219 c 128,-1,73
 665 179 665 179 625.5 158 c 128,-1,74
 586 137 586 137 549 137 c 0,75,76
 522 137 522 137 502 155 c 128,-1,77
 482 173 482 173 481 205 c 1,78,-1
 479 205 l 1,79,80
 455 179 455 179 420.5 158 c 128,-1,81
 386 137 386 137 348 137 c 0,82,83
 283 137 283 137 248 181 c 128,-1,84
 213 225 213 225 213 282 c 0,85,86
 213 336 213 336 231 389 c 128,-1,87
 249 442 249 442 279 483.5 c 128,-1,88
 309 525 309 525 355 550.5 c 128,-1,89
 401 576 401 576 455 576 c 0,90,91
 488 576 488 576 517 558 c 128,-1,92
 546 540 546 540 562 493 c 1,93,-1
 588 556 l 1,18,-1
EndSplineSet
EndChar
StartChar: A
Encoding: 65 65 34
Width: 633
VWidth: 1507
Flags: W
HStem: -9 21G<57 76.8189 556.263 575> 234 54<185 449> 705 20G<305.5 327.5>
Fore
598 69 m 2,0,1
 607 45 607 45 596.5 22.5 c 128,-1,2
 586 0 586 0 564 -9 c 1,3,-1
 470 234 l 1,4,-1
 164 234 l 1,5,-1
 69 -9 l 1,6,7
 45 0 45 0 35.5 22.5 c 128,-1,8
 26 45 26 45 35 69 c 2,9,-1
 288 707 l 2,10,11
 294 725 294 725 317 725 c 0,12,13
 338 725 338 725 345 707 c 2,14,-1
 598 69 l 2,0,1
185 288 m 1,15,-1
 449 288 l 1,16,-1
 306 657 l 1,17,-1
 304 653 l 1,18,-1
 314 623 l 1,19,-1
 185 288 l 1,15,-1
EndSplineSet
EndChar
StartChar: B
Encoding: 66 66 35
Width: 700
VWidth: 1507
Flags: W
HStem: 0 54<151 543.422> 332 54<151 461.312> 662 54<151 440.716>
VStem: 90 61<54 332 386 662> 535 60<471.881 575.171> 595 61<130.389 278.793>
Fore
512 377 m 1,0,1
 580 362 580 362 618 310.5 c 128,-1,2
 656 259 656 259 656 194 c 0,3,4
 656 155 656 155 644 119.5 c 128,-1,5
 632 84 632 84 608.5 58 c 128,-1,6
 585 32 585 32 551 16 c 128,-1,7
 517 0 517 0 475 0 c 2,8,-1
 121 0 l 2,9,10
 109 0 109 0 99.5 9 c 128,-1,11
 90 18 90 18 90 30 c 2,12,-1
 90 686 l 2,13,14
 90 699 90 699 99.5 707.5 c 128,-1,15
 109 716 109 716 121 716 c 2,16,-1
 415 716 l 2,17,18
 452 716 452 716 485.5 700 c 128,-1,19
 519 684 519 684 543 658 c 128,-1,20
 567 632 567 632 581 597 c 128,-1,21
 595 562 595 562 595 525 c 0,22,23
 595 484 595 484 573.5 441 c 128,-1,24
 552 398 552 398 512 377 c 1,0,1
151 386 m 1,25,-1
 415 386 l 2,26,27
 440 386 440 386 462 398.5 c 128,-1,28
 484 411 484 411 500.5 431 c 128,-1,29
 517 451 517 451 526 475.5 c 128,-1,30
 535 500 535 500 535 525 c 256,31,32
 535 549 535 549 526 573.5 c 128,-1,33
 517 598 517 598 500.5 618 c 128,-1,34
 484 638 484 638 462 650 c 128,-1,35
 440 662 440 662 415 662 c 2,36,-1
 151 662 l 1,37,-1
 151 386 l 1,25,-1
475 54 m 2,38,39
 526 54 526 54 560.5 91 c 128,-1,40
 595 128 595 128 595 194 c 0,41,42
 595 258 595 258 560.5 295 c 128,-1,43
 526 332 526 332 475 332 c 2,44,-1
 151 332 l 1,45,-1
 151 54 l 1,46,-1
 475 54 l 2,38,39
EndSplineSet
EndChar
StartChar: C
Encoding: 67 67 36
Width: 699
VWidth: 1507
Flags: W
HStem: -9 54<265.649 424.218> 671 54<264.665 424.651>
VStem: 75 61<158.032 226 226 559.968>
Fore
136 226 m 2,0,1
 136 190 136 190 153 157 c 128,-1,2
 170 124 170 124 200.5 99 c 128,-1,3
 231 74 231 74 271 59.5 c 128,-1,4
 311 45 311 45 357 45 c 256,5,6
 404 45 404 45 444.5 59.5 c 128,-1,7
 485 74 485 74 515.5 99 c 128,-1,8
 546 124 546 124 563 157 c 128,-1,9
 580 190 580 190 580 226 c 0,10,11
 580 237.5 l 0,12,13
 580 249 580 249 579 256 c 1,14,15
 603 256 603 256 623.5 239.5 c 128,-1,16
 644 223 644 223 636 184 c 0,17,18
 627 139 627 139 600 102.5 c 128,-1,19
 573 66 573 66 534.5 41.5 c 128,-1,20
 496 17 496 17 450 4 c 128,-1,21
 404 -9 404 -9 357 -9 c 0,22,23
 307 -9 307 -9 257.5 7 c 128,-1,24
 208 23 208 23 167.5 53 c 128,-1,25
 127 83 127 83 101 126.5 c 128,-1,26
 75 170 75 170 75 226 c 2,27,-1
 75 491 l 2,28,29
 75 546 75 546 100 589 c 128,-1,30
 125 632 125 632 165 662 c 128,-1,31
 205 692 205 692 255.5 708.5 c 128,-1,32
 306 725 306 725 357 725 c 0,33,34
 402 725 402 725 446.5 713.5 c 128,-1,35
 491 702 491 702 529.5 678 c 128,-1,36
 568 654 568 654 596 618.5 c 128,-1,37
 624 583 624 583 636 535 c 0,38,39
 645 494 645 494 624 477.5 c 128,-1,40
 603 461 603 461 579 461 c 1,41,42
 580 469 580 469 580 472.5 c 0,43,-1
 580 491 l 0,44,45
 580 528 580 528 563 561 c 128,-1,46
 546 594 546 594 515.5 618 c 128,-1,47
 485 642 485 642 444.5 656.5 c 128,-1,48
 404 671 404 671 357 671 c 256,49,50
 311 671 311 671 271 656.5 c 128,-1,51
 231 642 231 642 200.5 618 c 128,-1,52
 170 594 170 594 153 561 c 128,-1,53
 136 528 136 528 136 491 c 2,54,-1
 136 226 l 2,0,1
EndSplineSet
EndChar
StartChar: D
Encoding: 68 68 37
Width: 729
VWidth: 1507
Flags: W
HStem: 0 54<151 457.233> 662 54<151 457.233>
VStem: 90 61<54 662> 595 59<167.032 482 482 550.968>
Fore
372 716 m 2,0,1
 422 716 422 716 472 700 c 128,-1,2
 522 684 522 684 562.5 655 c 128,-1,3
 603 626 603 626 628.5 582 c 128,-1,4
 654 538 654 538 654 482 c 2,5,-1
 654 235 l 2,6,7
 654 181 654 181 629 138 c 128,-1,8
 604 95 604 95 564.5 64 c 128,-1,9
 525 33 525 33 474.5 16.5 c 128,-1,10
 424 0 424 0 372 0 c 2,11,-1
 121 0 l 2,12,13
 107 0 107 0 98.5 9 c 128,-1,14
 90 18 90 18 90 30 c 2,15,-1
 90 686 l 2,16,17
 90 716 90 716 121 716 c 2,18,-1
 372 716 l 2,0,1
151 662 m 1,19,-1
 151 54 l 1,20,-1
 372 54 l 2,21,22
 418 54 418 54 458.5 68.5 c 128,-1,23
 499 83 499 83 530 108 c 128,-1,24
 561 133 561 133 578 166 c 128,-1,25
 595 199 595 199 595 235 c 2,26,-1
 595 482 l 2,27,28
 595 519 595 519 578 552 c 128,-1,29
 561 585 561 585 530 609 c 128,-1,30
 499 633 499 633 458.5 647.5 c 128,-1,31
 418 662 418 662 372 662 c 2,32,-1
 151 662 l 1,19,-1
EndSplineSet
EndChar
StartChar: E
Encoding: 69 69 38
Width: 699
VWidth: 1507
Flags: W
HStem: -9 54<265.649 424.218> 332 54<136 426.406> 671 54<264.665 424.651>
VStem: 75 61<158.032 332 386 559.968>
Fore
136 386 m 1,0,-1
 434 386 l 1,1,2
 434 332 434 332 380 332 c 2,3,-1
 136 332 l 1,4,-1
 136 226 l 2,5,6
 136 190 136 190 153 157 c 128,-1,7
 170 124 170 124 200.5 99 c 128,-1,8
 231 74 231 74 271 59.5 c 128,-1,9
 311 45 311 45 357 45 c 256,10,11
 404 45 404 45 444.5 59.5 c 128,-1,12
 485 74 485 74 515.5 99 c 128,-1,13
 546 124 546 124 563 157 c 128,-1,14
 580 190 580 190 580 226 c 0,15,16
 580 237.5 l 0,17,18
 580 249 580 249 579 256 c 1,19,20
 603 256 603 256 623.5 239.5 c 128,-1,21
 644 223 644 223 636 184 c 0,22,23
 627 139 627 139 600 102.5 c 128,-1,24
 573 66 573 66 534.5 41.5 c 128,-1,25
 496 17 496 17 450 4 c 128,-1,26
 404 -9 404 -9 357 -9 c 0,27,28
 307 -9 307 -9 257.5 7 c 128,-1,29
 208 23 208 23 167.5 53 c 128,-1,30
 127 83 127 83 101 126.5 c 128,-1,31
 75 170 75 170 75 226 c 2,32,-1
 75 491 l 2,33,34
 75 546 75 546 100 589 c 128,-1,35
 125 632 125 632 165 662 c 128,-1,36
 205 692 205 692 255.5 708.5 c 128,-1,37
 306 725 306 725 357 725 c 0,38,39
 402 725 402 725 446.5 713.5 c 128,-1,40
 491 702 491 702 529.5 678 c 128,-1,41
 568 654 568 654 596 618.5 c 128,-1,42
 624 583 624 583 636 535 c 0,43,44
 645 494 645 494 624 477.5 c 128,-1,45
 603 461 603 461 579 461 c 1,46,47
 580 469 580 469 580 472.5 c 0,48,-1
 580 491 l 0,49,50
 580 528 580 528 563 561 c 128,-1,51
 546 594 546 594 515.5 618 c 128,-1,52
 485 642 485 642 444.5 656.5 c 128,-1,53
 404 671 404 671 357 671 c 256,54,55
 311 671 311 671 271 656.5 c 128,-1,56
 231 642 231 642 200.5 618 c 128,-1,57
 170 594 170 594 153 561 c 128,-1,58
 136 528 136 528 136 491 c 2,59,-1
 136 386 l 1,0,-1
EndSplineSet
EndChar
StartChar: F
Encoding: 70 70 39
Width: 699
VWidth: 1507
Flags: W
HStem: -9 21G<75 105.5> 332 54<136 426.406> 671 54<264.665 424.576>
VStem: 75 61<0.902344 332 386 559.968>
Fore
75 491 m 2,0,1
 75 546 75 546 100 589 c 128,-1,2
 125 632 125 632 165 662 c 128,-1,3
 205 692 205 692 255.5 708.5 c 128,-1,4
 306 725 306 725 357 725 c 0,5,6
 402 725 402 725 446 713.5 c 128,-1,7
 490 702 490 702 528.5 678 c 128,-1,8
 567 654 567 654 595 618.5 c 128,-1,9
 623 583 623 583 636 535 c 0,10,11
 644 494 644 494 623.5 477.5 c 128,-1,12
 603 461 603 461 579 461 c 1,13,14
 580 469 580 469 580 472.5 c 0,15,-1
 580 491 l 0,16,17
 580 528 580 528 563 561 c 128,-1,18
 546 594 546 594 515.5 618 c 128,-1,19
 485 642 485 642 444.5 656.5 c 128,-1,20
 404 671 404 671 357 671 c 256,21,22
 311 671 311 671 271 656.5 c 128,-1,23
 231 642 231 642 200.5 618 c 128,-1,24
 170 594 170 594 153 561 c 128,-1,25
 136 528 136 528 136 491 c 2,26,-1
 136 386 l 1,27,-1
 434 386 l 1,28,29
 434 332 434 332 380 332 c 2,30,-1
 136 332 l 1,31,-1
 136 51 l 2,32,33
 136 -9 136 -9 75 -9 c 1,34,-1
 75 491 l 2,0,1
EndSplineSet
EndChar
StartChar: G
Encoding: 71 71 40
Width: 714
VWidth: 1507
Flags: W
HStem: -9 54<265.649 448.851> 332 54<366.594 579> 671 54<264.665 424.651>
VStem: 75 61<158.032 559.968> 579 60<158.032 332>
Fore
639 226 m 1,0,1
 639 170 639 170 613.5 126.5 c 128,-1,2
 588 83 588 83 547 53 c 128,-1,3
 506 23 506 23 456.5 7 c 128,-1,4
 407 -9 407 -9 357 -9 c 256,5,6
 307 -9 307 -9 257.5 7 c 128,-1,7
 208 23 208 23 167.5 53 c 128,-1,8
 127 83 127 83 101 126.5 c 128,-1,9
 75 170 75 170 75 226 c 2,10,-1
 75 491 l 2,11,12
 75 546 75 546 100 589 c 128,-1,13
 125 632 125 632 165 662 c 128,-1,14
 205 692 205 692 255.5 708.5 c 128,-1,15
 306 725 306 725 357 725 c 0,16,17
 402 725 402 725 446.5 713.5 c 128,-1,18
 491 702 491 702 529.5 678 c 128,-1,19
 568 654 568 654 596 618.5 c 128,-1,20
 624 583 624 583 636 535 c 0,21,22
 645 494 645 494 624 477.5 c 128,-1,23
 603 461 603 461 579 461 c 1,24,25
 580 469 580 469 580 472.5 c 0,26,-1
 580 491 l 0,27,28
 580 528 580 528 563 561 c 128,-1,29
 546 594 546 594 515.5 618 c 128,-1,30
 485 642 485 642 444.5 656.5 c 128,-1,31
 404 671 404 671 357 671 c 256,32,33
 311 671 311 671 271 656.5 c 128,-1,34
 231 642 231 642 200.5 618 c 128,-1,35
 170 594 170 594 153 561 c 128,-1,36
 136 528 136 528 136 491 c 2,37,-1
 136 226 l 2,38,39
 136 190 136 190 153 157 c 128,-1,40
 170 124 170 124 200.5 99 c 128,-1,41
 231 74 231 74 271 59.5 c 128,-1,42
 311 45 311 45 357 45 c 256,43,44
 404 45 404 45 444 59.5 c 128,-1,45
 484 74 484 74 514 99 c 128,-1,46
 544 124 544 124 561.5 157 c 128,-1,47
 579 190 579 190 579 226 c 2,48,-1
 579 332 l 1,49,-1
 359 332 l 1,50,51
 359 386 359 386 413 386 c 2,52,-1
 609 386 l 2,53,54
 621 386 621 386 630 377 c 128,-1,55
 639 368 639 368 639 356 c 2,56,-1
 639 226 l 1,0,1
EndSplineSet
EndChar
StartChar: H
Encoding: 72 72 41
Width: 744
VWidth: 1507
Flags: W
HStem: -9 21G<90 120.5 594 624> 332 54<151 594> 705 20G<120.5 151 624 654>
VStem: 90 61<0.902344 332 386 715.098> 594 60<0.902344 332 386 715.098>
Fore
654 51 m 2,0,1
 654 -9 654 -9 594 -9 c 1,2,-1
 594 332 l 1,3,-1
 151 332 l 1,4,-1
 151 51 l 2,5,6
 151 -9 151 -9 90 -9 c 1,7,-1
 90 665 l 2,8,9
 90 725 90 725 151 725 c 1,10,-1
 151 386 l 1,11,-1
 594 386 l 1,12,-1
 594 665 l 2,13,14
 594 725 594 725 654 725 c 1,15,-1
 654 51 l 2,0,1
EndSplineSet
EndChar
StartChar: I
Encoding: 73 73 42
Width: 241
VWidth: 1507
Flags: W
HStem: -9 21G<90 120.5> 705 20G<120.5 151>
VStem: 90 61<0.902344 715.098>
Fore
151 51 m 2,0,1
 151 -9 151 -9 90 -9 c 1,2,-1
 90 665 l 2,3,4
 90 725 90 725 151 725 c 1,5,-1
 151 51 l 2,0,1
EndSplineSet
EndChar
StartChar: J
Encoding: 74 74 43
Width: 640
VWidth: 1507
Flags: W
HStem: -9 54<232.947 394.376> 662 54<316.594 505>
VStem: 505 60<158.032 662>
Fore
121 226 m 0,0,1
 121 190 121 190 136 157 c 128,-1,2
 151 124 151 124 177 99 c 128,-1,3
 203 74 203 74 238 59.5 c 128,-1,4
 273 45 273 45 314 45 c 0,5,6
 353 45 353 45 387.5 59.5 c 128,-1,7
 422 74 422 74 448.5 99 c 128,-1,8
 475 124 475 124 490 157 c 128,-1,9
 505 190 505 190 505 226 c 2,10,-1
 505 662 l 1,11,-1
 363 662 l 2,12,13
 309 662 309 662 309 716 c 1,14,-1
 537 716 l 2,15,16
 565 716 565 716 565 686 c 2,17,-1
 565 226 l 2,18,19
 565 178 565 178 545.5 135 c 128,-1,20
 526 92 526 92 491.5 60.5 c 128,-1,21
 457 29 457 29 411 10 c 128,-1,22
 365 -9 365 -9 314 -9 c 0,23,24
 267 -9 267 -9 225.5 5.5 c 128,-1,25
 184 20 184 20 151 46 c 128,-1,26
 118 72 118 72 96 107.5 c 128,-1,27
 74 143 74 143 65 184 c 0,28,29
 57 223 57 223 77.5 239.5 c 128,-1,30
 98 256 98 256 124 256 c 1,31,32
 122 249 122 249 121.5 241.5 c 128,-1,33
 121 234 121 234 121 226 c 0,0,1
EndSplineSet
EndChar
StartChar: K
Encoding: 75 75 44
Width: 684
VWidth: 1507
Flags: W
HStem: -9 21G<90 120.5 534 564> 368 54<291.461 423.344> 705 20G<120.5 151 531.06 570.5>
VStem: 90 61<0.902344 254.968 342 715.098> 534 60<0.902344 254.968>
Fore
90 665 m 2,0,1
 90 725 90 725 151 725 c 1,2,-1
 151 342 l 1,3,-1
 552 725 l 1,4,5
 589 687 589 687 550 648 c 2,6,-1
 321 430 l 1,7,8
 303 424 303 424 291 418.5 c 128,-1,9
 279 413 279 413 270 407 c 1,10,-1
 274 405 l 1,11,12
 289 413 289 413 307.5 417.5 c 128,-1,13
 326 422 326 422 342 422 c 0,14,15
 393 422 393 422 439 403 c 128,-1,16
 485 384 485 384 520 352.5 c 128,-1,17
 555 321 555 321 574.5 278 c 128,-1,18
 594 235 594 235 594 187 c 2,19,-1
 594 51 l 2,20,21
 594 -9 594 -9 534 -9 c 1,22,-1
 534 187 l 2,23,24
 534 223 534 223 518.5 256 c 128,-1,25
 503 289 503 289 477 314 c 128,-1,26
 451 339 451 339 416 353.5 c 128,-1,27
 381 368 381 368 342 368 c 256,28,29
 303 368 303 368 267.5 353.5 c 128,-1,30
 232 339 232 339 206.5 314 c 128,-1,31
 181 289 181 289 166 256 c 128,-1,32
 151 223 151 223 151 187 c 2,33,-1
 151 51 l 2,34,35
 151 -9 151 -9 90 -9 c 1,36,-1
 90 665 l 2,0,1
EndSplineSet
EndChar
StartChar: L
Encoding: 76 76 45
Width: 624
VWidth: 1507
Flags: W
HStem: 0 54<151 586.406> 705 20G<120.5 151>
VStem: 90 61<54 715.098>
Fore
540 54 m 2,0,1
 594 54 594 54 594 0 c 1,2,-1
 121 0 l 2,3,4
 107 0 107 0 98.5 9 c 128,-1,5
 90 18 90 18 90 30 c 2,6,-1
 90 665 l 2,7,8
 90 725 90 725 151 725 c 1,9,-1
 151 54 l 1,10,-1
 540 54 l 2,0,1
EndSplineSet
EndChar
StartChar: M
Encoding: 77 77 46
Width: 856
VWidth: 1507
Flags: W
HStem: -9 21G<90 120.5 423.5 432.5 705 735.5> 705 20G<120.5 159.671 696.342 735.5>
VStem: 90 61<0.902344 578.706> 705 61<0.902344 578.706>
Fore
90 665 m 2,0,1
 90 725 90 725 151 725 c 1,2,-1
 425 93 l 1,3,-1
 416 66 l 1,4,-1
 418 62 l 1,5,-1
 705 725 l 1,6,7
 766 725 766 725 766 665 c 2,8,-1
 766 51 l 2,9,10
 766 -9 766 -9 705 -9 c 1,11,-1
 705 568 l 1,12,-1
 722 620 l 1,13,-1
 720 624 l 1,14,-1
 455 11 l 2,15,16
 452 3 452 3 444.5 -3 c 128,-1,17
 437 -9 437 -9 428 -9 c 256,18,19
 419 -9 419 -9 411.5 -3 c 128,-1,20
 404 3 404 3 401 11 c 2,21,-1
 136 624 l 1,22,-1
 134 620 l 1,23,-1
 151 568 l 1,24,-1
 151 51 l 2,25,26
 151 -9 151 -9 90 -9 c 1,27,-1
 90 665 l 2,0,1
EndSplineSet
EndChar
StartChar: N
Encoding: 78 78 47
Width: 744
VWidth: 1507
Flags: W
HStem: -9 21G<90 120.5 579.357 624> 705 20G<120.5 164.684 594 624>
VStem: 90 61<0.902344 613> 594 60<102 715.098>
Fore
90 665 m 2,0,1
 90 725 90 725 151 725 c 1,2,3
 170.5 696.5 l 2,4,5
 190 668 190 668 222.5 621 c 128,-1,6
 255 574 255 574 295.5 515.5 c 128,-1,7
 336 457 336 457 380 395 c 2,8,-1
 609 66 l 1,9,-1
 610 71 l 1,10,-1
 594 102 l 1,11,-1
 594 725 l 1,12,13
 654 725 654 725 654 665 c 2,14,-1
 654 51 l 2,15,16
 654 -9 654 -9 594 -9 c 1,17,-1
 573.5 19 l 2,18,19
 553 47 553 47 521.5 93 c 128,-1,20
 490 139 490 139 448.5 198.5 c 128,-1,21
 407 258 407 258 365 320 c 0,22,23
 264 464 264 464 136 650 c 1,24,-1
 134 645 l 1,25,-1
 151 613 l 1,26,-1
 151 51 l 2,27,28
 151 -9 151 -9 90 -9 c 1,29,-1
 90 665 l 2,0,1
EndSplineSet
EndChar
StartChar: O
Encoding: 79 79 48
Width: 854
VWidth: 1507
Flags: W
HStem: -9 54<312.909 540.875> 671 54<314.86 538.902>
VStem: 60 61<240.814 473.731> 734 60<240.814 473.731>
Fore
60 357 m 256,0,1
 60 434 60 434 89 501 c 128,-1,2
 118 568 118 568 167.5 618 c 128,-1,3
 217 668 217 668 283.5 696.5 c 128,-1,4
 350 725 350 725 427 725 c 256,5,6
 503 725 503 725 570.5 696.5 c 128,-1,7
 638 668 638 668 687.5 618 c 128,-1,8
 737 568 737 568 765.5 501 c 128,-1,9
 794 434 794 434 794 357 c 256,10,11
 794 280 794 280 765.5 214 c 128,-1,12
 737 148 737 148 687.5 98 c 128,-1,13
 638 48 638 48 570.5 19.5 c 128,-1,14
 503 -9 503 -9 427 -9 c 256,15,16
 350 -9 350 -9 283.5 19.5 c 128,-1,17
 217 48 217 48 167.5 98 c 128,-1,18
 118 148 118 148 89 214 c 128,-1,19
 60 280 60 280 60 357 c 256,0,1
121 357 m 256,20,21
 121 292 121 292 145 235 c 128,-1,22
 169 178 169 178 210.5 135.5 c 128,-1,23
 252 93 252 93 307.5 69 c 128,-1,24
 363 45 363 45 427 45 c 256,25,26
 490 45 490 45 546.5 69 c 128,-1,27
 603 93 603 93 644.5 135.5 c 128,-1,28
 686 178 686 178 710 235 c 128,-1,29
 734 292 734 292 734 357 c 256,30,31
 734 422 734 422 710 479.5 c 128,-1,32
 686 537 686 537 644.5 579 c 128,-1,33
 603 621 603 621 546.5 646 c 128,-1,34
 490 671 490 671 427 671 c 256,35,36
 363 671 363 671 307.5 646 c 128,-1,37
 252 621 252 621 210.5 579 c 128,-1,38
 169 537 169 537 145 479.5 c 128,-1,39
 121 422 121 422 121 357 c 256,20,21
EndSplineSet
EndChar
StartChar: P
Encoding: 80 80 49
Width: 714
VWidth: 1507
Flags: W
HStem: -9 21G<90 120.5> 332 54<151 520.312> 662 54<151 499.496>
VStem: 90 61<0.902344 332 386 662> 594 60<474.148 575.171>
Fore
90 686 m 2,0,1
 90 716 90 716 121 716 c 2,2,-1
 473 716 l 2,3,4
 511 716 511 716 544 700 c 128,-1,5
 577 684 577 684 601.5 658 c 128,-1,6
 626 632 626 632 640 597 c 128,-1,7
 654 562 654 562 654 525 c 256,8,9
 654 487 654 487 640 452.5 c 128,-1,10
 626 418 626 418 601.5 390.5 c 128,-1,11
 577 363 577 363 544 347.5 c 128,-1,12
 511 332 511 332 473 332 c 2,13,-1
 151 332 l 1,14,-1
 151 51 l 2,15,16
 151 -9 151 -9 90 -9 c 1,17,-1
 90 686 l 2,0,1
473 386 m 2,18,19
 499 386 499 386 521 398.5 c 128,-1,20
 543 411 543 411 559.5 431 c 128,-1,21
 576 451 576 451 585 475.5 c 128,-1,22
 594 500 594 500 594 525 c 256,23,24
 594 549 594 549 585 573.5 c 128,-1,25
 576 598 576 598 559.5 618 c 128,-1,26
 543 638 543 638 521 650 c 128,-1,27
 499 662 499 662 473 662 c 2,28,-1
 151 662 l 1,29,-1
 151 386 l 1,30,-1
 473 386 l 2,18,19
EndSplineSet
EndChar
StartChar: Q
Encoding: 81 81 50
Width: 854
VWidth: 1507
Flags: W
HStem: -9 54<312.298 536.674> 244 54<187.432 380.139> 671 54<314.86 538.902>
VStem: 60 61<292.024 473.731> 734 60<240.963 473.731>
Fore
794 38 m 1,0,1
 794 -26 794 -26 728 -5 c 0,2,3
 702 3 702 3 679 19 c 128,-1,4
 656 35 656 35 633 53 c 1,5,6
 589 23 589 23 536.5 7 c 128,-1,7
 484 -9 484 -9 427 -9 c 0,8,9
 350 -9 350 -9 283.5 19.5 c 128,-1,10
 217 48 217 48 167.5 98 c 128,-1,11
 118 148 118 148 89 214 c 128,-1,12
 60 280 60 280 60 357 c 256,13,14
 60 434 60 434 89 501 c 128,-1,15
 118 568 118 568 167.5 618 c 128,-1,16
 217 668 217 668 283.5 696.5 c 128,-1,17
 350 725 350 725 427 725 c 256,18,19
 503 725 503 725 570.5 696.5 c 128,-1,20
 638 668 638 668 687.5 618 c 128,-1,21
 737 568 737 568 765.5 501 c 128,-1,22
 794 434 794 434 794 357 c 0,23,24
 794 276 794 276 762.5 207.5 c 128,-1,25
 731 139 731 139 678 89 c 1,26,27
 705 68 705 68 734 53 c 128,-1,28
 763 38 763 38 794 38 c 1,0,1
121 357 m 0,29,30
 121 312 121 312 131 276 c 1,31,32
 194 298 194 298 265 298 c 0,33,34
 390 298 390 298 502 229 c 0,35,36
 537 208 537 208 563 186 c 128,-1,37
 589 164 589 164 615 143 c 0,38,39
 622 136.5 l 0,40,41
 629 130 629 130 635 127 c 1,42,43
 680 169 680 169 707 228.5 c 128,-1,44
 734 288 734 288 734 357 c 0,45,46
 734 422 734 422 710 479.5 c 128,-1,47
 686 537 686 537 644.5 579 c 128,-1,48
 603 621 603 621 546.5 646 c 128,-1,49
 490 671 490 671 427 671 c 256,50,51
 363 671 363 671 307.5 646 c 128,-1,52
 252 621 252 621 210.5 579 c 128,-1,53
 169 537 169 537 145 479.5 c 128,-1,54
 121 422 121 422 121 357 c 0,29,30
427 45 m 0,55,56
 514 45 514 45 589 92 c 1,57,-1
 579 101 l 2,58,59
 553 122 553 122 525 144.5 c 128,-1,60
 497 167 497 167 472 184 c 0,61,62
 425 213 425 213 371.5 228.5 c 128,-1,63
 318 244 318 244 265 244 c 0,64,65
 237 244 237 244 208 239 c 128,-1,66
 179 234 179 234 151 220 c 1,67,68
 187 142 187 142 261 93.5 c 128,-1,69
 335 45 335 45 427 45 c 0,55,56
EndSplineSet
EndChar
StartChar: R
Encoding: 82 82 51
Width: 731
VWidth: 1507
Flags: W
HStem: -9 21G<90 120.5 595 625.5> 332 54<151 520.312> 662 54<151 499.496>
VStem: 90 61<0.902344 332 386 662> 595 61<0.902344 277.521 472.017 575.171>
Fore
473 386 m 2,0,1
 499 386 499 386 521 398.5 c 128,-1,2
 543 411 543 411 559.5 431 c 128,-1,3
 576 451 576 451 585 475.5 c 128,-1,4
 594 500 594 500 594 525 c 256,5,6
 594 549 594 549 585 573.5 c 128,-1,7
 576 598 576 598 559.5 618 c 128,-1,8
 543 638 543 638 521 650 c 128,-1,9
 499 662 499 662 473 662 c 2,10,-1
 151 662 l 1,11,-1
 151 386 l 1,12,-1
 473 386 l 2,0,1
151 51 m 2,13,14
 151 -9 151 -9 90 -9 c 1,15,-1
 90 686 l 2,16,17
 90 716 90 716 121 716 c 2,18,-1
 473 716 l 2,19,20
 511 716 511 716 544 700 c 128,-1,21
 577 684 577 684 601.5 658 c 128,-1,22
 626 632 626 632 640 597 c 128,-1,23
 654 562 654 562 654 525 c 0,24,25
 654 475 654 475 625.5 426.5 c 128,-1,26
 597 378 597 378 558 356 c 1,27,28
 603 335 603 335 629.5 290.5 c 128,-1,29
 656 246 656 246 656 194 c 2,30,-1
 656 51 l 2,31,32
 656 -9 656 -9 595 -9 c 1,33,-1
 595 194 l 2,34,35
 595 258 595 258 560 295 c 128,-1,36
 525 332 525 332 473 332 c 2,37,-1
 151 332 l 1,38,-1
 151 51 l 2,13,14
EndSplineSet
EndChar
StartChar: S
Encoding: 83 83 52
Width: 684
VWidth: 1507
Flags: W
HStem: -9 54<249.103 435.339> 671 54<249.853 426.876>
VStem: 90 61<461.414 557.04> 529 57<492.136 532 532 558.999>
Fore
118 226 m 0,0,1
 118 190 118 190 135 157 c 128,-1,2
 152 124 152 124 182.5 99 c 128,-1,3
 213 74 213 74 253.5 59.5 c 128,-1,4
 294 45 294 45 341 45 c 0,5,6
 386 45 386 45 427.5 60 c 128,-1,7
 469 75 469 75 500 100 c 128,-1,8
 531 125 531 125 547.5 156.5 c 128,-1,9
 564 188 564 188 562 223 c 0,10,11
 559 250 559 250 541 268 c 128,-1,12
 523 286 523 286 493 300 c 128,-1,13
 463 314 463 314 422 323.5 c 128,-1,14
 381 333 381 333 335 342 c 0,15,16
 277 353 277 353 233.5 365.5 c 128,-1,17
 190 378 190 378 159 397 c 128,-1,18
 128 416 128 416 111.5 443 c 128,-1,19
 95 470 95 470 90 511 c 256,20,21
 86 552 86 552 102.5 591 c 128,-1,22
 119 630 119 630 151.5 659.5 c 128,-1,23
 184 689 184 689 232 707 c 128,-1,24
 280 725 280 725 341 725 c 0,25,26
 448 725 448 725 511 670 c 128,-1,27
 574 615 574 615 586 532 c 0,28,29
 592 494 592 494 571 477.5 c 128,-1,30
 550 461 550 461 528 461 c 1,31,32
 529 469 529 469 529 472.5 c 0,33,-1
 529 491 l 0,34,35
 529 528 529 528 516 560 c 128,-1,36
 503 592 503 592 479 617 c 128,-1,37
 455 642 455 642 420.5 656.5 c 128,-1,38
 386 671 386 671 341 671 c 256,39,40
 295 671 295 671 259 657.5 c 128,-1,41
 223 644 223 644 198 622.5 c 128,-1,42
 173 601 173 601 160.5 573.5 c 128,-1,43
 148 546 148 546 151 517 c 0,44,45
 155 463 155 463 202 439.5 c 128,-1,46
 249 416 249 416 347 396 c 0,47,48
 405 384 405 384 454 373.5 c 128,-1,49
 503 363 503 363 539.5 345 c 128,-1,50
 576 327 576 327 598 300 c 128,-1,51
 620 273 620 273 623 228 c 0,52,53
 626 181 626 181 604 138 c 128,-1,54
 582 95 582 95 542.5 62.5 c 128,-1,55
 503 30 503 30 451 10.5 c 128,-1,56
 399 -9 399 -9 341 -9 c 0,57,58
 288 -9 288 -9 242 5.5 c 128,-1,59
 196 20 196 20 158.5 46 c 128,-1,60
 121 72 121 72 96 107.5 c 128,-1,61
 71 143 71 143 62 184 c 0,62,63
 54 223 54 223 74.5 239.5 c 128,-1,64
 95 256 95 256 119 256 c 1,65,66
 118 249 118 249 118 245 c 0,67,-1
 118 226 l 0,0,1
EndSplineSet
EndChar
StartChar: T
Encoding: 84 84 53
Width: 562
VWidth: 1507
Flags: W
HStem: -9 21G<252 282> 662 54<7.59375 252 312 554.406>
VStem: 252 60<0.902344 662>
Fore
562 716 m 1,0,1
 562 662 562 662 508 662 c 2,2,-1
 312 662 l 1,3,-1
 312 51 l 2,4,5
 312 -9 312 -9 252 -9 c 1,6,-1
 252 662 l 1,7,-1
 0 662 l 1,8,9
 0 716 0 716 54 716 c 2,10,-1
 562 716 l 1,0,1
EndSplineSet
EndChar
StartChar: U
Encoding: 85 85 54
Width: 744
VWidth: 1507
Flags: W
HStem: -9 54<280.907 464.093> 705 20G<120.5 151 624 654>
VStem: 90 61<158.032 715.098> 594 60<158.032 715.098>
Fore
151 226 m 2,0,1
 151 190 151 190 168 157 c 128,-1,2
 185 124 185 124 215.5 99 c 128,-1,3
 246 74 246 74 286 59.5 c 128,-1,4
 326 45 326 45 372 45 c 256,5,6
 419 45 419 45 459 59.5 c 128,-1,7
 499 74 499 74 529 99 c 128,-1,8
 559 124 559 124 576.5 157 c 128,-1,9
 594 190 594 190 594 226 c 2,10,-1
 594 665 l 2,11,12
 594 725 594 725 654 725 c 1,13,-1
 654 226 l 2,14,15
 654 170 654 170 628.5 126.5 c 128,-1,16
 603 83 603 83 562.5 53 c 128,-1,17
 522 23 522 23 472 7 c 128,-1,18
 422 -9 422 -9 372 -9 c 256,19,20
 323 -9 323 -9 273 7 c 128,-1,21
 223 23 223 23 182.5 53 c 128,-1,22
 142 83 142 83 116 126.5 c 128,-1,23
 90 170 90 170 90 226 c 2,24,-1
 90 665 l 2,25,26
 90 725 90 725 151 725 c 1,27,-1
 151 226 l 2,0,1
EndSplineSet
EndChar
StartChar: V
Encoding: 86 86 55
Width: 651
VWidth: 1507
Flags: W
HStem: -9 21G<315 336.5>
Fore
323 93 m 1,0,-1
 314 63 l 1,1,-1
 315 59 l 1,2,-1
 558 687 l 2,3,4
 567 711 567 711 589.5 722 c 128,-1,5
 612 733 612 733 636 722 c 1,6,-1
 354 9 l 2,7,8
 347 -9 347 -9 326 -9 c 256,9,10
 304 -9 304 -9 297 9 c 2,11,-1
 15 722 l 1,12,13
 39 733 39 733 61.5 722 c 128,-1,14
 84 711 84 711 93 687 c 2,15,-1
 323 93 l 1,0,-1
EndSplineSet
EndChar
StartChar: W
Encoding: 87 87 56
Width: 961
VWidth: 1507
Flags: W
HStem: -9 21G<279.5 307.41 650.585 679>
Fore
301 -9 m 1,0,1
 258 -9 258 -9 241 41 c 2,2,-1
 15 724 l 1,3,4
 39 731 39 731 61.5 719.5 c 128,-1,5
 84 708 84 708 92 684 c 2,6,-1
 277 110 l 1,7,-1
 270 78 l 1,8,-1
 271 74 l 1,9,-1
 451 636 l 2,10,11
 458 656 458 656 479 656 c 256,12,13
 500 656 500 656 508 636 c 2,14,-1
 675 110 l 1,15,-1
 668 78 l 1,16,-1
 669 74 l 1,17,-1
 867 684 l 2,18,19
 874 708 874 708 896.5 719.5 c 128,-1,20
 919 731 919 731 944 724 c 1,21,-1
 717 41 l 2,22,23
 701 -9 701 -9 657 -9 c 1,24,-1
 470 574 l 1,25,-1
 469 570 l 1,26,-1
 476 537 l 1,27,-1
 301 -9 l 1,0,1
EndSplineSet
EndChar
StartChar: X
Encoding: 88 88 57
Width: 633
VWidth: 1507
Flags: W
Fore
30 716 m 1,0,1
 51 731 51 731 73 725.5 c 128,-1,2
 95 720 95 720 109 701 c 2,3,-1
 317 415 l 1,4,-1
 525 701 l 2,5,6
 538 720 538 720 560 725.5 c 128,-1,7
 582 731 582 731 603 716 c 1,8,-1
 350 369 l 1,9,-1
 618 2 l 1,10,11
 597 -14 597 -14 576 -8.5 c 128,-1,12
 555 -3 555 -3 540 18 c 2,13,-1
 317 324 l 1,14,-1
 93 18 l 2,15,16
 78 -3 78 -3 57 -8.5 c 128,-1,17
 36 -14 36 -14 15 2 c 1,18,-1
 283 369 l 1,19,-1
 30 716 l 1,0,1
EndSplineSet
EndChar
StartChar: Y
Encoding: 89 89 58
Width: 602
VWidth: 1507
Flags: W
HStem: -9 21G<271 301.5>
VStem: 271 61<0.902344 365>
Fore
332 51 m 2,0,1
 332 -9 332 -9 271 -9 c 1,2,-1
 271 365 l 1,3,-1
 15 716 l 1,4,5
 36 731 36 731 58 725.5 c 128,-1,6
 80 720 80 720 93 701 c 2,7,-1
 301 415 l 1,8,-1
 509 701 l 2,9,10
 523 720 523 720 545 725.5 c 128,-1,11
 567 731 567 731 588 716 c 1,12,-1
 332 365 l 1,13,-1
 332 51 l 2,0,1
EndSplineSet
EndChar
StartChar: Z
Encoding: 90 90 59
Width: 633
VWidth: 1507
Flags: W
HStem: 0 54<118 595.406> 662 54<37.5938 515>
Fore
84 662 m 2,0,1
 30 662 30 662 30 716 c 1,2,-1
 573 716 l 2,3,4
 591 716 591 716 599 699.5 c 128,-1,5
 607 683 607 683 597 669 c 2,6,-1
 95 33 l 1,7,-1
 99 35 l 1,8,-1
 118 54 l 1,9,-1
 549 54 l 2,10,11
 603 54 603 54 603 0 c 1,12,-1
 60 0 l 2,13,14
 42 0 42 0 34 16.5 c 128,-1,15
 26 33 26 33 36 47 c 2,16,-1
 538 683 l 1,17,-1
 534 681 l 1,18,-1
 515 662 l 1,19,-1
 84 662 l 2,0,1
EndSplineSet
EndChar
StartChar: bracketleft
Encoding: 91 91 60
Width: 287
VWidth: 1507
Flags: W
HStem: -130 55<148 287.406> -130 873<90 148 90 295 90 90> 689 54<148 287.406>
VStem: 90 58<-75 689>
Fore
90 -130 m 1,0,-1
 90 743 l 1,1,-1
 295 743 l 1,2,3
 295 689 295 689 241 689 c 2,4,-1
 148 689 l 1,5,-1
 148 -75 l 1,6,-1
 241 -75 l 2,7,8
 295 -75 295 -75 295 -130 c 1,9,-1
 90 -130 l 1,0,-1
EndSplineSet
EndChar
StartChar: backslash
Encoding: 92 92 61
Width: 420
VWidth: 1507
Flags: W
VStem: -15 451<-30 746 746 746>
Fore
436 -30 m 1,0,1
 387 -56 387 -56 363 -6 c 2,2,-1
 -15 746 l 1,3,4
 35 770 35 770 57 722 c 2,5,-1
 436 -30 l 1,0,1
EndSplineSet
EndChar
StartChar: asciicircum
Encoding: 94 94 63
Width: 642
VWidth: 1507
Flags: W
HStem: 700 20G<312 320 323 330.5>
VStem: 72 498<211 211 211 211>
Fore
320 720 m 1,0,1
 341 720 341 720 348 704 c 2,2,-1
 570 211 l 1,3,4
 552 202 552 202 530 208 c 128,-1,5
 508 214 508 214 500 232 c 2,6,-1
 321 638 l 1,7,-1
 142 232 l 2,8,9
 134 214 134 214 112 208 c 128,-1,10
 90 202 90 202 72 211 c 1,11,-1
 294 704 l 2,12,13
 301 720 301 720 323 720 c 1,14,-1
 320 720 l 1,0,1
EndSplineSet
EndChar
StartChar: underscore
Encoding: 95 95 64
Width: 542
VWidth: 1507
Flags: W
HStem: -282 48<0 543>
Fore
0 -282 m 1,0,-1
 0 -234 l 1,1,-1
 543 -234 l 1,2,-1
 543 -282 l 1,3,-1
 0 -282 l 1,0,-1
EndSplineSet
EndChar
StartChar: grave
Encoding: 96 96 65
Width: 325
VWidth: 1507
Flags: W
HStem: 562 157<65 255 99 99>
Fore
255 562 m 1,0,1
 229 562 229 562 215.5 566 c 128,-1,2
 202 570 202 570 191 579 c 2,3,-1
 65 719 l 1,4,-1
 99 719 l 2,5,6
 152 719 152 719 170 692 c 2,7,-1
 255 562 l 1,0,1
EndSplineSet
EndChar
StartChar: a
Encoding: 97 97 66
Width: 557
VWidth: 1507
Flags: W
HStem: -9 50<181.317 351.198> 283 50<206.784 324.616> 470 50<182.935 326.803>
VStem: 60 55<98.0469 205.736> 413 54<-1.40625 39 98.1992 186.652 285 411.567>
Fore
264 333 m 0,0,1
 317 333 317 333 360.5 313.5 c 128,-1,2
 404 294 404 294 431 259 c 1,3,-1
 433 264 l 1,4,5
 430 268 430 268 424 275 c 128,-1,6
 418 282 418 282 413 285 c 1,7,-1
 413 350 l 2,8,9
 413 398 413 398 370 434 c 128,-1,10
 327 470 327 470 264 470 c 0,11,12
 214 470 214 470 172.5 441.5 c 128,-1,13
 131 413 131 413 110 372 c 1,14,15
 92 386 92 386 86.5 408 c 128,-1,16
 81 430 81 430 98 448 c 0,17,18
 127 482 127 482 170.5 501 c 128,-1,19
 214 520 214 520 264 520 c 0,20,21
 300 520 300 520 336 508.5 c 128,-1,22
 372 497 372 497 401.5 475.5 c 128,-1,23
 431 454 431 454 449 422 c 128,-1,24
 467 390 467 390 467 350 c 2,25,-1
 467 45 l 2,26,27
 467 -9 467 -9 413 -9 c 1,28,-1
 413 39 l 1,29,30
 418 42 418 42 424 49 c 128,-1,31
 430 56 430 56 433 60 c 1,32,-1
 431 65 l 1,33,34
 404 30 404 30 360.5 10.5 c 128,-1,35
 317 -9 317 -9 264 -9 c 0,36,37
 222 -9 222 -9 185 4.5 c 128,-1,38
 148 18 148 18 120 40.5 c 128,-1,39
 92 63 92 63 76 94 c 128,-1,40
 60 125 60 125 60 161 c 256,41,42
 60 197 60 197 76 228 c 128,-1,43
 92 259 92 259 120 282.5 c 128,-1,44
 148 306 148 306 185 319.5 c 128,-1,45
 222 333 222 333 264 333 c 0,0,1
264 41 m 256,46,47
 329 41 329 41 371 77 c 128,-1,48
 413 113 413 113 413 161 c 0,49,50
 413 185 413 185 401.5 207 c 128,-1,51
 390 229 390 229 370.5 246.5 c 128,-1,52
 351 264 351 264 323 273.5 c 128,-1,53
 295 283 295 283 264 283 c 256,54,55
 232 283 232 283 204 273.5 c 128,-1,56
 176 264 176 264 156.5 246.5 c 128,-1,57
 137 229 137 229 126 207 c 128,-1,58
 115 185 115 185 115 161 c 0,59,60
 115 113 115 113 157 77 c 128,-1,61
 199 41 199 41 264 41 c 256,46,47
EndSplineSet
Substitution2: "Single Substitution lookup 22 subtable" uni0E38
Substitution2: "Single Substitution lookup 22 subtable" uni0E38
EndChar
StartChar: b
Encoding: 98 98 67
Width: 572
VWidth: 1507
Flags: W
HStem: -9 50<232.27 351.128> 470 50<206.802 376.683> 705 20G<117.5 145>
VStem: 90 55<136.633 412.801 472 717.406> 443 54<136.633 412.801>
Fore
145 163 m 2,0,1
 145 139 145 139 156 117 c 128,-1,2
 167 95 167 95 186.5 77.5 c 128,-1,3
 206 60 206 60 234 50.5 c 128,-1,4
 262 41 262 41 294 41 c 256,5,6
 326 41 326 41 353.5 50.5 c 128,-1,7
 381 60 381 60 401 77.5 c 128,-1,8
 421 95 421 95 432 117 c 128,-1,9
 443 139 443 139 443 163 c 2,10,-1
 443 350 l 2,11,12
 443 398 443 398 401 434 c 128,-1,13
 359 470 359 470 294 470 c 256,14,15
 229 470 229 470 187 434 c 128,-1,16
 145 398 145 398 145 350 c 2,17,-1
 145 163 l 2,0,1
145 472 m 1,18,19
 140 469 140 469 134 462 c 128,-1,20
 128 455 128 455 125 451 c 1,21,-1
 127 446 l 1,22,23
 154 481 154 481 197.5 500.5 c 128,-1,24
 241 520 241 520 294 520 c 0,25,26
 336 520 336 520 373 506.5 c 128,-1,27
 410 493 410 493 438 470.5 c 128,-1,28
 466 448 466 448 481.5 417 c 128,-1,29
 497 386 497 386 497 350 c 2,30,-1
 497 163 l 2,31,32
 497 127 497 127 481.5 96 c 128,-1,33
 466 65 466 65 438 41.5 c 128,-1,34
 410 18 410 18 373 4.5 c 128,-1,35
 336 -9 336 -9 294 -9 c 0,36,37
 241 -9 241 -9 197.5 10.5 c 128,-1,38
 154 30 154 30 127 65 c 1,39,-1
 125 60 l 1,40,41
 128 56 128 56 134 49 c 128,-1,42
 140 42 140 42 145 39 c 1,43,44
 143 17 143 17 132 4 c 128,-1,45
 121 -9 121 -9 90 -9 c 1,46,-1
 90 671 l 2,47,48
 90 725 90 725 145 725 c 1,49,-1
 145 472 l 1,18,19
EndSplineSet
Substitution2: "Single Substitution lookup 22 subtable" uni0E39
Substitution2: "Single Substitution lookup 22 subtable" uni0E39
EndChar
StartChar: c
Encoding: 99 99 68
Width: 518
VWidth: 1507
Flags: W
HStem: -9 50<196.317 340.18> 470 50<221.784 340.18>
VStem: 75 396<161 387 161 161> 75 55<98.1992 374.367>
Fore
279 520 m 0,0,1
 344 520 344 520 394.5 490.5 c 128,-1,2
 445 461 445 461 467 413 c 0,3,4
 473 399 473 399 471 387 c 128,-1,5
 469 375 469 375 462 367 c 128,-1,6
 455 359 455 359 446 353.5 c 128,-1,7
 437 348 437 348 428 348 c 1,8,9
 428 372 428 372 416.5 394 c 128,-1,10
 405 416 405 416 385.5 433.5 c 128,-1,11
 366 451 366 451 338.5 460.5 c 128,-1,12
 311 470 311 470 279 470 c 256,13,14
 247 470 247 470 219 460.5 c 128,-1,15
 191 451 191 451 171.5 433.5 c 128,-1,16
 152 416 152 416 141 394 c 128,-1,17
 130 372 130 372 130 348 c 2,18,-1
 130 161 l 2,19,20
 130 113 130 113 172 77 c 128,-1,21
 214 41 214 41 279 41 c 0,22,23
 311 41 311 41 338.5 50.5 c 128,-1,24
 366 60 366 60 385.5 77.5 c 128,-1,25
 405 95 405 95 416.5 117 c 128,-1,26
 428 139 428 139 428 163 c 1,27,28
 437 163 437 163 446 157.5 c 128,-1,29
 455 152 455 152 462 144 c 128,-1,30
 469 136 469 136 471 124 c 128,-1,31
 473 112 473 112 467 98 c 0,32,33
 445 50 445 50 394.5 20.5 c 128,-1,34
 344 -9 344 -9 279 -9 c 0,35,36
 237 -9 237 -9 200 4.5 c 128,-1,37
 163 18 163 18 135 40.5 c 128,-1,38
 107 63 107 63 91 94 c 128,-1,39
 75 125 75 125 75 161 c 2,40,-1
 75 348 l 2,41,42
 75 384 75 384 91 415 c 128,-1,43
 107 446 107 446 135 469.5 c 128,-1,44
 163 493 163 493 200 506.5 c 128,-1,45
 237 520 237 520 279 520 c 0,0,1
EndSplineSet
Substitution2: "Single Substitution lookup 22 subtable" uni0E3A
Substitution2: "Single Substitution lookup 22 subtable" uni0E3A
EndChar
StartChar: d
Encoding: 100 100 69
Width: 572
VWidth: 1507
Flags: W
HStem: -9 50<196.317 366.198> 470 50<221.784 339.945> 705 20G<455 482>
VStem: 75 55<98.1992 348 348 374.367> 428 54<-1.40625 39 98.1992 373.652 472 717.406>
Fore
428 348 m 2,0,1
 428 372 428 372 416.5 394 c 128,-1,2
 405 416 405 416 385.5 433.5 c 128,-1,3
 366 451 366 451 338.5 460.5 c 128,-1,4
 311 470 311 470 279 470 c 256,5,6
 247 470 247 470 219 460.5 c 128,-1,7
 191 451 191 451 171.5 433.5 c 128,-1,8
 152 416 152 416 141 394 c 128,-1,9
 130 372 130 372 130 348 c 2,10,-1
 130 161 l 2,11,12
 130 113 130 113 172 77 c 128,-1,13
 214 41 214 41 279 41 c 256,14,15
 344 41 344 41 386 77 c 128,-1,16
 428 113 428 113 428 161 c 2,17,-1
 428 348 l 2,0,1
428 671 m 2,18,19
 428 725 428 725 482 725 c 1,20,-1
 482 45 l 2,21,22
 482 -9 482 -9 428 -9 c 1,23,-1
 428 39 l 1,24,25
 433 42 433 42 439 49 c 128,-1,26
 445 56 445 56 448 60 c 1,27,-1
 446 65 l 1,28,29
 419 30 419 30 375.5 10.5 c 128,-1,30
 332 -9 332 -9 279 -9 c 0,31,32
 237 -9 237 -9 200 4.5 c 128,-1,33
 163 18 163 18 135 40.5 c 128,-1,34
 107 63 107 63 91 94 c 128,-1,35
 75 125 75 125 75 161 c 2,36,-1
 75 348 l 2,37,38
 75 384 75 384 91 415 c 128,-1,39
 107 446 107 446 135 469.5 c 128,-1,40
 163 493 163 493 200 506.5 c 128,-1,41
 237 520 237 520 279 520 c 0,42,43
 332 520 332 520 375.5 500.5 c 128,-1,44
 419 481 419 481 446 446 c 1,45,-1
 448 451 l 1,46,47
 445 455 445 455 439 462 c 128,-1,48
 433 469 433 469 428 472 c 1,49,-1
 428 671 l 2,18,19
EndSplineSet
EndChar
StartChar: e
Encoding: 101 101 70
Width: 557
VWidth: 1507
Flags: W
HStem: -9 50<196.317 340.18> 267 50<130 428> 470 50<221.784 336.128>
VStem: 75 55<98.1992 161 161 267 317 374.367> 428 54<317 373.652>
Fore
130 161 m 2,0,1
 130 113 130 113 172 77 c 128,-1,2
 214 41 214 41 279 41 c 0,3,4
 311 41 311 41 338.5 50.5 c 128,-1,5
 366 60 366 60 385.5 77.5 c 128,-1,6
 405 95 405 95 416.5 117 c 128,-1,7
 428 139 428 139 428 163 c 1,8,9
 437 163 437 163 446 157.5 c 128,-1,10
 455 152 455 152 462 144 c 128,-1,11
 469 136 469 136 471 124 c 128,-1,12
 473 112 473 112 467 98 c 0,13,14
 445 50 445 50 394.5 20.5 c 128,-1,15
 344 -9 344 -9 279 -9 c 0,16,17
 237 -9 237 -9 200 4.5 c 128,-1,18
 163 18 163 18 135 40.5 c 128,-1,19
 107 63 107 63 91 94 c 128,-1,20
 75 125 75 125 75 161 c 2,21,-1
 75 348 l 2,22,23
 75 384 75 384 91 415 c 128,-1,24
 107 446 107 446 135 469.5 c 128,-1,25
 163 493 163 493 200 506.5 c 128,-1,26
 237 520 237 520 279 520 c 256,27,28
 321 520 321 520 358 506.5 c 128,-1,29
 395 493 395 493 423 469.5 c 128,-1,30
 451 446 451 446 466.5 415 c 128,-1,31
 482 384 482 384 482 348 c 2,32,-1
 482 294 l 2,33,34
 482 282 482 282 474 274.5 c 128,-1,35
 466 267 466 267 455 267 c 2,36,-1
 130 267 l 1,37,-1
 130 161 l 2,0,1
130 317 m 1,38,-1
 428 317 l 1,39,-1
 428 348 l 2,40,41
 428 372 428 372 416.5 394 c 128,-1,42
 405 416 405 416 385.5 433.5 c 128,-1,43
 366 451 366 451 338.5 460.5 c 128,-1,44
 311 470 311 470 279 470 c 256,45,46
 247 470 247 470 219 460.5 c 128,-1,47
 191 451 191 451 171.5 433.5 c 128,-1,48
 152 416 152 416 141 394 c 128,-1,49
 130 372 130 372 130 348 c 2,50,-1
 130 317 l 1,38,-1
EndSplineSet
EndChar
StartChar: f
Encoding: 102 102 71
Width: 301
VWidth: 1507
Flags: W
HStem: -9 21G<102 129.5> 461 50<20.9082 102 157 246.092> 675 50<185.491 286.987>
VStem: 102 55<-1.40625 461 511 646.746>
Fore
102 461 m 1,0,-1
 15 461 l 1,1,2
 15 511 15 511 65 511 c 2,3,-1
 102 511 l 1,4,-1
 102 588 l 2,5,6
 102 645 102 645 142 685 c 128,-1,7
 182 725 182 725 252 725 c 0,8,9
 282 725 282 725 294.5 706 c 128,-1,10
 307 687 307 687 295 666 c 1,11,12
 277 675 277 675 252 675 c 0,13,14
 205 675 205 675 181 649.5 c 128,-1,15
 157 624 157 624 157 588 c 2,16,-1
 157 511 l 1,17,-1
 252 511 l 1,18,19
 252 461 252 461 202 461 c 2,20,-1
 157 461 l 1,21,-1
 157 45 l 2,22,23
 157 -9 157 -9 102 -9 c 1,24,-1
 102 461 l 1,0,-1
EndSplineSet
EndChar
StartChar: g
Encoding: 103 103 72
Width: 572
VWidth: 1507
Flags: W
HStem: -214 50<217.732 361.683> -9 50<196.317 366.198> 470 50<221.784 339.945>
VStem: 75 55<98.1992 374.367> 428 54<-106.801 39 98.1992 373.652>
Fore
428 348 m 2,0,1
 428 372 428 372 416.5 394 c 128,-1,2
 405 416 405 416 385.5 433.5 c 128,-1,3
 366 451 366 451 338.5 460.5 c 128,-1,4
 311 470 311 470 279 470 c 256,5,6
 247 470 247 470 219 460.5 c 128,-1,7
 191 451 191 451 171.5 433.5 c 128,-1,8
 152 416 152 416 141 394 c 128,-1,9
 130 372 130 372 130 348 c 2,10,-1
 130 161 l 2,11,12
 130 113 130 113 172 77 c 128,-1,13
 214 41 214 41 279 41 c 256,14,15
 344 41 344 41 386 77 c 128,-1,16
 428 113 428 113 428 161 c 2,17,-1
 428 348 l 2,0,1
428 39 m 1,18,19
 433 42 433 42 439 49 c 128,-1,20
 445 56 445 56 448 60 c 1,21,-1
 446 65 l 1,22,23
 419 30 419 30 375.5 10.5 c 128,-1,24
 332 -9 332 -9 279 -9 c 0,25,26
 237 -9 237 -9 200 4.5 c 128,-1,27
 163 18 163 18 135 40.5 c 128,-1,28
 107 63 107 63 91 94 c 128,-1,29
 75 125 75 125 75 161 c 2,30,-1
 75 348 l 2,31,32
 75 384 75 384 91 415 c 128,-1,33
 107 446 107 446 135 469.5 c 128,-1,34
 163 493 163 493 200 506.5 c 128,-1,35
 237 520 237 520 279 520 c 0,36,37
 332 520 332 520 375.5 500.5 c 128,-1,38
 419 481 419 481 446 446 c 1,39,-1
 448 451 l 1,40,41
 445 455 445 455 439 462 c 128,-1,42
 433 469 433 469 428 472 c 1,43,44
 430 494 430 494 441 507 c 128,-1,45
 452 520 452 520 482 520 c 1,46,-1
 482 -44 l 2,47,48
 482 -80 482 -80 466.5 -111 c 128,-1,49
 451 -142 451 -142 423 -164.5 c 128,-1,50
 395 -187 395 -187 358 -200.5 c 128,-1,51
 321 -214 321 -214 279 -214 c 0,52,53
 214 -214 214 -214 163.5 -184.5 c 128,-1,54
 113 -155 113 -155 90 -107 c 0,55,56
 84 -93 84 -93 86.5 -81 c 128,-1,57
 89 -69 89 -69 95.5 -61 c 128,-1,58
 102 -53 102 -53 111.5 -47.5 c 128,-1,59
 121 -42 121 -42 130 -42 c 1,60,61
 130 -66 130 -66 141 -88 c 128,-1,62
 152 -110 152 -110 171.5 -127.5 c 128,-1,63
 191 -145 191 -145 219 -154.5 c 128,-1,64
 247 -164 247 -164 279 -164 c 0,65,66
 344 -164 344 -164 386 -128 c 128,-1,67
 428 -92 428 -92 428 -44 c 2,68,-1
 428 39 l 1,18,19
EndSplineSet
EndChar
StartChar: h
Encoding: 104 104 73
Width: 587
VWidth: 1507
Flags: W
HStem: -9 21G<90 117.5 443 470> 470 50<232.27 351.128> 705 20G<117.5 145>
VStem: 90 55<-1.40625 374.367 472 717.406> 443 54<-1.40625 374.367>
Fore
90 671 m 2,0,1
 90 725 90 725 145 725 c 1,2,-1
 145 472 l 1,3,4
 140 469 140 469 134 462 c 128,-1,5
 128 455 128 455 125 451 c 1,6,-1
 127 446 l 1,7,8
 154 481 154 481 197.5 500.5 c 128,-1,9
 241 520 241 520 294 520 c 0,10,11
 336 520 336 520 373 506.5 c 128,-1,12
 410 493 410 493 438 469.5 c 128,-1,13
 466 446 466 446 481.5 415 c 128,-1,14
 497 384 497 384 497 348 c 2,15,-1
 497 45 l 2,16,17
 497 -9 497 -9 443 -9 c 1,18,-1
 443 348 l 2,19,20
 443 372 443 372 432 394 c 128,-1,21
 421 416 421 416 401 433.5 c 128,-1,22
 381 451 381 451 353.5 460.5 c 128,-1,23
 326 470 326 470 294 470 c 256,24,25
 262 470 262 470 234 460.5 c 128,-1,26
 206 451 206 451 186.5 433.5 c 128,-1,27
 167 416 167 416 156 394 c 128,-1,28
 145 372 145 372 145 348 c 2,29,-1
 145 45 l 2,30,31
 145 -9 145 -9 90 -9 c 1,32,-1
 90 671 l 2,0,1
EndSplineSet
EndChar
StartChar: i
Encoding: 105 105 74
Width: 235
VWidth: 1507
Flags: W
HStem: -9 21G<90 117.5> 500 20G<117.5 145> 601 103<81.4705 153.53>
VStem: 66 103<616.986 688.53> 90 55<-1.40625 512.406>
Fore
90 466 m 2,0,1
 90 520 90 520 145 520 c 1,2,-1
 145 45 l 2,3,4
 145 -9 145 -9 90 -9 c 1,5,-1
 90 466 l 2,0,1
66 653 m 256,6,7
 66 674 66 674 81 689 c 128,-1,8
 96 704 96 704 118 704 c 256,9,10
 139 704 139 704 154 689 c 128,-1,11
 169 674 169 674 169 653 c 256,12,13
 169 632 169 632 154 616.5 c 128,-1,14
 139 601 139 601 118 601 c 256,15,16
 96 601 96 601 81 616.5 c 128,-1,17
 66 632 66 632 66 653 c 256,6,7
EndSplineSet
EndChar
StartChar: j
Encoding: 106 106 75
Width: 235
VWidth: 1507
Flags: W
HStem: -214 50<-39.9872 61.5089> 500 20G<117.5 145> 601 103<81.4705 153.53>
VStem: 66 103<616.986 688.53> 90 55<-135.746 512.406>
Fore
145 -77 m 2,0,1
 145 -134 145 -134 105 -174 c 128,-1,2
 65 -214 65 -214 -5 -214 c 0,3,4
 -35 -214 -35 -214 -47.5 -195 c 128,-1,5
 -60 -176 -60 -176 -48 -155 c 1,6,7
 -30 -164 -30 -164 -5 -164 c 0,8,9
 42 -164 42 -164 66 -138.5 c 128,-1,10
 90 -113 90 -113 90 -77 c 2,11,-1
 90 466 l 2,12,13
 90 520 90 520 145 520 c 1,14,-1
 145 -77 l 2,0,1
66 653 m 256,15,16
 66 674 66 674 81 689 c 128,-1,17
 96 704 96 704 118 704 c 256,18,19
 139 704 139 704 154 689 c 128,-1,20
 169 674 169 674 169 653 c 256,21,22
 169 632 169 632 154 616.5 c 128,-1,23
 139 601 139 601 118 601 c 256,24,25
 96 601 96 601 81 616.5 c 128,-1,26
 66 632 66 632 66 653 c 256,15,16
EndSplineSet
EndChar
StartChar: k
Encoding: 107 107 76
Width: 572
VWidth: 1507
Flags: W
HStem: -9 21G<90 117.5 443 470> 314 49<285.079 329.496> 499 20G<432.725 478.5> 705 20G<117.5 145>
VStem: 90 55<-1.40625 218.018 315 717.406> 443 54<-1.40625 218.018>
Fore
90 671 m 2,0,1
 90 725 90 725 145 725 c 1,2,-1
 145 315 l 1,3,-1
 464 519 l 1,4,5
 493 469 493 469 446 443 c 2,6,-1
 327 368 l 1,7,8
 315 368 315 368 308 368 c 128,-1,9
 301 368 301 368 289 365 c 2,10,-1
 285 363 l 1,11,-1
 294 363 l 2,12,13
 336 363 336 363 373 349.5 c 128,-1,14
 410 336 410 336 438 312.5 c 128,-1,15
 466 289 466 289 481.5 258.5 c 128,-1,16
 497 228 497 228 497 191 c 2,17,-1
 497 45 l 2,18,19
 497 -9 497 -9 443 -9 c 1,20,-1
 443 191 l 2,21,22
 443 216 443 216 432 237.5 c 128,-1,23
 421 259 421 259 401 276.5 c 128,-1,24
 381 294 381 294 353.5 304 c 128,-1,25
 326 314 326 314 294 314 c 256,26,27
 262 314 262 314 234 304 c 128,-1,28
 206 294 206 294 186.5 276.5 c 128,-1,29
 167 259 167 259 156 237.5 c 128,-1,30
 145 216 145 216 145 191 c 2,31,-1
 145 45 l 2,32,33
 145 -9 145 -9 90 -9 c 1,34,-1
 90 671 l 2,0,1
EndSplineSet
EndChar
StartChar: l
Encoding: 108 108 77
Width: 289
VWidth: 1507
Flags: W
HStem: -9 50<173.491 274.987> 705 20G<117.5 145>
VStem: 90 55<69.2539 717.406>
Fore
240 -9 m 0,0,1
 170 -9 170 -9 130 31 c 128,-1,2
 90 71 90 71 90 128 c 2,3,-1
 90 671 l 2,4,5
 90 725 90 725 145 725 c 1,6,-1
 145 128 l 2,7,8
 145 92 145 92 169 66.5 c 128,-1,9
 193 41 193 41 240 41 c 0,10,11
 265 41 265 41 283 50 c 1,12,13
 295 29 295 29 282.5 10 c 128,-1,14
 270 -9 270 -9 240 -9 c 0,0,1
EndSplineSet
EndChar
StartChar: m
Encoding: 109 109 78
Width: 786
VWidth: 1507
Flags: W
HStem: -9 21G<90 117.5 366 393.5 642 669> 470 50<182.532 328.308 457.883 586.241>
VStem: 90 55<-1.40625 435.424 493 512.406> 366 55<-1.40625 434.568> 642 54<-1.40625 383 383 411.077>
Fore
366 383 m 2,0,1
 366 419 366 419 333.5 444.5 c 128,-1,2
 301 470 301 470 255 470 c 256,3,4
 208 470 208 470 176.5 444.5 c 128,-1,5
 145 419 145 419 145 383 c 2,6,-1
 145 45 l 2,7,8
 145 -9 145 -9 90 -9 c 1,9,-1
 90 466 l 2,10,11
 90 520 90 520 145 520 c 1,12,-1
 145 493 l 1,13,14
 140 490 140 490 132.5 483 c 128,-1,15
 125 476 125 476 122 472 c 1,16,-1
 127 470 l 1,17,18
 149 493 149 493 182.5 506.5 c 128,-1,19
 216 520 216 520 255 520 c 0,20,21
 295 520 295 520 330.5 505 c 128,-1,22
 366 490 366 490 389 464 c 1,23,24
 380 452 380 452 377 440 c 1,25,-1
 378 436 l 1,26,27
 396 473 396 473 437 496.5 c 128,-1,28
 478 520 478 520 531 520 c 0,29,30
 565 520 565 520 595.5 509.5 c 128,-1,31
 626 499 626 499 648.5 480 c 128,-1,32
 671 461 671 461 683.5 436 c 128,-1,33
 696 411 696 411 696 383 c 2,34,-1
 696 45 l 2,35,36
 696 -9 696 -9 642 -9 c 1,37,-1
 642 383 l 2,38,39
 642 419 642 419 609.5 444.5 c 128,-1,40
 577 470 577 470 531 470 c 256,41,42
 484 470 484 470 452.5 444.5 c 128,-1,43
 421 419 421 419 421 383 c 2,44,-1
 421 45 l 2,45,46
 421 -9 421 -9 366 -9 c 1,47,-1
 366 383 l 2,0,1
EndSplineSet
EndChar
StartChar: n
Encoding: 110 110 79
Width: 587
VWidth: 1507
Flags: W
HStem: -9 21G<90 117.5 443 470> 470 50<232.27 351.128>
VStem: 90 55<-1.40625 374.367 472 512.406> 443 54<-1.40625 374.367>
Fore
90 466 m 2,0,1
 90 520 90 520 145 520 c 1,2,-1
 145 472 l 1,3,4
 140 469 140 469 134 462 c 128,-1,5
 128 455 128 455 125 451 c 1,6,-1
 127 446 l 1,7,8
 154 481 154 481 197.5 500.5 c 128,-1,9
 241 520 241 520 294 520 c 0,10,11
 336 520 336 520 373 506.5 c 128,-1,12
 410 493 410 493 438 469.5 c 128,-1,13
 466 446 466 446 481.5 415 c 128,-1,14
 497 384 497 384 497 348 c 2,15,-1
 497 45 l 2,16,17
 497 -9 497 -9 443 -9 c 1,18,-1
 443 348 l 2,19,20
 443 372 443 372 432 394 c 128,-1,21
 421 416 421 416 401 433.5 c 128,-1,22
 381 451 381 451 353.5 460.5 c 128,-1,23
 326 470 326 470 294 470 c 256,24,25
 262 470 262 470 234 460.5 c 128,-1,26
 206 451 206 451 186.5 433.5 c 128,-1,27
 167 416 167 416 156 394 c 128,-1,28
 145 372 145 372 145 348 c 2,29,-1
 145 45 l 2,30,31
 145 -9 145 -9 90 -9 c 1,32,-1
 90 466 l 2,0,1
EndSplineSet
EndChar
StartChar: o
Encoding: 111 111 80
Width: 649
VWidth: 1507
Flags: W
HStem: -9 50<236.673 411.327> 470 50<236.673 411.327>
VStem: 60 55<166.124 344.378> 535 54<166.883 344.378>
Fore
60 255 m 256,0,1
 60 309 60 309 80.5 357 c 128,-1,2
 101 405 101 405 137 441.5 c 128,-1,3
 173 478 173 478 221.5 499 c 128,-1,4
 270 520 270 520 324 520 c 256,5,6
 378 520 378 520 426.5 499 c 128,-1,7
 475 478 475 478 511 441.5 c 128,-1,8
 547 405 547 405 568 357 c 128,-1,9
 589 309 589 309 589 255 c 256,10,11
 589 200 589 200 568 152 c 128,-1,12
 547 104 547 104 511 68 c 128,-1,13
 475 32 475 32 426.5 11.5 c 128,-1,14
 378 -9 378 -9 324 -9 c 256,15,16
 270 -9 270 -9 221.5 11.5 c 128,-1,17
 173 32 173 32 137 68 c 128,-1,18
 101 104 101 104 80.5 152 c 128,-1,19
 60 200 60 200 60 255 c 256,0,1
115 255 m 256,20,21
 115 210 115 210 131.5 171.5 c 128,-1,22
 148 133 148 133 175.5 103.5 c 128,-1,23
 203 74 203 74 241.5 57.5 c 128,-1,24
 280 41 280 41 324 41 c 256,25,26
 368 41 368 41 406.5 57.5 c 128,-1,27
 445 74 445 74 473.5 103.5 c 128,-1,28
 502 133 502 133 518.5 171.5 c 128,-1,29
 535 210 535 210 535 255 c 256,30,31
 535 300 535 300 518.5 339 c 128,-1,32
 502 378 502 378 473.5 407.5 c 128,-1,33
 445 437 445 437 406.5 453.5 c 128,-1,34
 368 470 368 470 324 470 c 256,35,36
 280 470 280 470 241.5 453.5 c 128,-1,37
 203 437 203 437 175.5 407.5 c 128,-1,38
 148 378 148 378 131.5 339 c 128,-1,39
 115 300 115 300 115 255 c 256,20,21
EndSplineSet
EndChar
StartChar: p
Encoding: 112 112 81
Width: 572
VWidth: 1507
Flags: W
HStem: -214 21G<90 117.5> -9 50<206.802 376.683> 470 50<232.27 351.128>
VStem: 90 55<-206.406 39 98.1992 374.367 472 512.406> 443 54<98.1992 374.367>
Fore
145 161 m 2,0,1
 145 113 145 113 187 77 c 128,-1,2
 229 41 229 41 294 41 c 256,3,4
 359 41 359 41 401 77 c 128,-1,5
 443 113 443 113 443 161 c 2,6,-1
 443 348 l 2,7,8
 443 372 443 372 432 394 c 128,-1,9
 421 416 421 416 401 433.5 c 128,-1,10
 381 451 381 451 353.5 460.5 c 128,-1,11
 326 470 326 470 294 470 c 256,12,13
 262 470 262 470 234 460.5 c 128,-1,14
 206 451 206 451 186.5 433.5 c 128,-1,15
 167 416 167 416 156 394 c 128,-1,16
 145 372 145 372 145 348 c 2,17,-1
 145 161 l 2,0,1
90 466 m 2,18,19
 90 520 90 520 145 520 c 1,20,-1
 145 472 l 1,21,22
 140 469 140 469 134 462 c 128,-1,23
 128 455 128 455 125 451 c 1,24,-1
 127 446 l 1,25,26
 154 481 154 481 197.5 500.5 c 128,-1,27
 241 520 241 520 294 520 c 0,28,29
 336 520 336 520 373 506.5 c 128,-1,30
 410 493 410 493 438 469.5 c 128,-1,31
 466 446 466 446 481.5 415 c 128,-1,32
 497 384 497 384 497 348 c 2,33,-1
 497 161 l 2,34,35
 497 125 497 125 481.5 94 c 128,-1,36
 466 63 466 63 438 40.5 c 128,-1,37
 410 18 410 18 373 4.5 c 128,-1,38
 336 -9 336 -9 294 -9 c 0,39,40
 241 -9 241 -9 197.5 10.5 c 128,-1,41
 154 30 154 30 127 65 c 1,42,-1
 125 60 l 1,43,44
 128 56 128 56 134 49 c 128,-1,45
 140 42 140 42 145 39 c 1,46,-1
 145 -160 l 2,47,48
 145 -214 145 -214 90 -214 c 1,49,-1
 90 466 l 2,18,19
EndSplineSet
EndChar
StartChar: q
Encoding: 113 113 82
Width: 572
VWidth: 1507
Flags: W
HStem: -214 21G<428 455> -9 50<196.317 366.198> 470 50<221.784 339.945>
VStem: 75 55<98.1992 374.367> 428 54<-206.406 39 98.1992 373.652>
Fore
428 348 m 2,0,1
 428 372 428 372 416.5 394 c 128,-1,2
 405 416 405 416 385.5 433.5 c 128,-1,3
 366 451 366 451 338.5 460.5 c 128,-1,4
 311 470 311 470 279 470 c 256,5,6
 247 470 247 470 219 460.5 c 128,-1,7
 191 451 191 451 171.5 433.5 c 128,-1,8
 152 416 152 416 141 394 c 128,-1,9
 130 372 130 372 130 348 c 2,10,-1
 130 161 l 2,11,12
 130 113 130 113 172 77 c 128,-1,13
 214 41 214 41 279 41 c 256,14,15
 344 41 344 41 386 77 c 128,-1,16
 428 113 428 113 428 161 c 2,17,-1
 428 348 l 2,0,1
428 39 m 1,18,19
 433 42 433 42 439 49 c 128,-1,20
 445 56 445 56 448 60 c 1,21,-1
 446 65 l 1,22,23
 419 30 419 30 375.5 10.5 c 128,-1,24
 332 -9 332 -9 279 -9 c 0,25,26
 237 -9 237 -9 200 4.5 c 128,-1,27
 163 18 163 18 135 40.5 c 128,-1,28
 107 63 107 63 91 94 c 128,-1,29
 75 125 75 125 75 161 c 2,30,-1
 75 348 l 2,31,32
 75 384 75 384 91 415 c 128,-1,33
 107 446 107 446 135 469.5 c 128,-1,34
 163 493 163 493 200 506.5 c 128,-1,35
 237 520 237 520 279 520 c 0,36,37
 332 520 332 520 375.5 500.5 c 128,-1,38
 419 481 419 481 446 446 c 1,39,-1
 448 451 l 1,40,41
 445 455 445 455 439 462 c 128,-1,42
 433 469 433 469 428 472 c 1,43,44
 430 494 430 494 441 507 c 128,-1,45
 452 520 452 520 482 520 c 1,46,-1
 482 -160 l 2,47,48
 482 -214 482 -214 428 -214 c 1,49,-1
 428 39 l 1,18,19
EndSplineSet
EndChar
StartChar: r
Encoding: 114 114 83
Width: 378
VWidth: 1507
Flags: W
HStem: -9 21G<90 117.5> 500 20G<117.5 145>
VStem: 90 55<-1.40625 374.367 469 512.406>
Fore
348 514 m 1,0,1
 344 466 344 466 294 470 c 0,2,3
 262 470 262 470 234 460.5 c 128,-1,4
 206 451 206 451 186.5 433.5 c 128,-1,5
 167 416 167 416 156 394 c 128,-1,6
 145 372 145 372 145 348 c 2,7,-1
 145 45 l 2,8,9
 145 -9 145 -9 90 -9 c 1,10,-1
 90 466 l 2,11,12
 90 520 90 520 145 520 c 1,13,-1
 145 469 l 1,14,15
 139 463 139 463 133.5 456 c 128,-1,16
 128 449 128 449 125 443 c 1,17,-1
 127 439 l 1,18,19
 154 478 154 478 197.5 499 c 128,-1,20
 241 520 241 520 294 520 c 0,21,22
 307 520 307 520 321.5 518.5 c 128,-1,23
 336 517 336 517 348 514 c 1,0,1
EndSplineSet
EndChar
StartChar: s
Encoding: 115 115 84
Width: 495
VWidth: 1507
Flags: W
HStem: -9 50<188.934 304.943> 470 50<191.216 298.218>
VStem: 66 55<323.908 362 362 397.323> 396 55<128.663 158 158 196.454>
Fore
427 377 m 0,0,1
 431 348 431 348 414.5 334 c 128,-1,2
 398 320 398 320 372 323 c 1,3,4
 378 351 378 351 371.5 377.5 c 128,-1,5
 365 404 365 404 347.5 424.5 c 128,-1,6
 330 445 330 445 303.5 457.5 c 128,-1,7
 277 470 277 470 247 470 c 256,8,9
 217 470 217 470 193.5 461 c 128,-1,10
 170 452 170 452 153 438 c 128,-1,11
 136 424 136 424 127.5 405 c 128,-1,12
 119 386 119 386 121 368 c 0,13,14
 124 332 124 332 154 316.5 c 128,-1,15
 184 301 184 301 252 288 c 0,16,17
 294 279 294 279 330 270.5 c 128,-1,18
 366 262 366 262 392 248.5 c 128,-1,19
 418 235 418 235 433 214.5 c 128,-1,20
 448 194 448 194 451 161 c 256,21,22
 454 128 454 128 438 97 c 128,-1,23
 422 66 422 66 394 43 c 128,-1,24
 366 20 366 20 327.5 5.5 c 128,-1,25
 289 -9 289 -9 247 -9 c 0,26,27
 172 -9 172 -9 115.5 31 c 128,-1,28
 59 71 59 71 47 133 c 0,29,30
 42 158 42 158 55.5 174 c 128,-1,31
 69 190 69 190 99 187 c 1,32,33
 92 155 92 155 102.5 128.5 c 128,-1,34
 113 102 113 102 135.5 82.5 c 128,-1,35
 158 63 158 63 187.5 52 c 128,-1,36
 217 41 217 41 247 41 c 0,37,38
 279 41 279 41 307 50.5 c 128,-1,39
 335 60 335 60 355 76.5 c 128,-1,40
 375 93 375 93 386.5 114.5 c 128,-1,41
 398 136 398 136 396 158 c 0,42,43
 393 193 393 193 351 209 c 128,-1,44
 309 225 309 225 243 238 c 0,45,46
 199 247 199 247 166.5 255.5 c 128,-1,47
 134 264 134 264 113 277.5 c 128,-1,48
 92 291 92 291 80.5 310.5 c 128,-1,49
 69 330 69 330 66 362 c 0,50,51
 63 392 63 392 75 420.5 c 128,-1,52
 87 449 87 449 110.5 471 c 128,-1,53
 134 493 134 493 168.5 506.5 c 128,-1,54
 203 520 203 520 247 520 c 0,55,56
 326 520 326 520 371 479.5 c 128,-1,57
 416 439 416 439 427 377 c 0,0,1
EndSplineSet
EndChar
StartChar: t
Encoding: 116 116 85
Width: 301
VWidth: 1507
Flags: W
HStem: -9 50<185.491 286.987> 461 50<20.9082 102 157 246.092> 705 20G<129.5 157>
VStem: 102 55<69.2539 461 511 717.406>
Fore
252 -9 m 0,0,1
 182 -9 182 -9 142 31 c 128,-1,2
 102 71 102 71 102 128 c 2,3,-1
 102 461 l 1,4,-1
 15 461 l 1,5,6
 15 511 15 511 65 511 c 2,7,-1
 102 511 l 1,8,-1
 102 671 l 2,9,10
 102 725 102 725 157 725 c 1,11,-1
 157 511 l 1,12,-1
 252 511 l 1,13,14
 252 461 252 461 202 461 c 2,15,-1
 157 461 l 1,16,-1
 157 128 l 2,17,18
 157 92 157 92 181 66.5 c 128,-1,19
 205 41 205 41 252 41 c 0,20,21
 277 41 277 41 295 50 c 1,22,23
 307 29 307 29 294.5 10 c 128,-1,24
 282 -9 282 -9 252 -9 c 0,0,1
EndSplineSet
EndChar
StartChar: u
Encoding: 117 117 86
Width: 587
VWidth: 1507
Flags: W
HStem: -9 50<236.784 354.945> 500 20G<117.5 145 470 497>
VStem: 90 55<136.633 512.406> 443 54<-1.40625 39 136.633 512.406>
Fore
497 45 m 2,0,1
 497 -9 497 -9 443 -9 c 1,2,-1
 443 39 l 1,3,4
 448 42 448 42 454 49 c 128,-1,5
 460 56 460 56 463 60 c 1,6,-1
 461 65 l 1,7,8
 434 30 434 30 390.5 10.5 c 128,-1,9
 347 -9 347 -9 294 -9 c 0,10,11
 252 -9 252 -9 215 4.5 c 128,-1,12
 178 18 178 18 150 41.5 c 128,-1,13
 122 65 122 65 106 96 c 128,-1,14
 90 127 90 127 90 163 c 2,15,-1
 90 466 l 2,16,17
 90 520 90 520 145 520 c 1,18,-1
 145 163 l 2,19,20
 145 139 145 139 156 117 c 128,-1,21
 167 95 167 95 186.5 77.5 c 128,-1,22
 206 60 206 60 234 50.5 c 128,-1,23
 262 41 262 41 294 41 c 256,24,25
 326 41 326 41 353.5 50.5 c 128,-1,26
 381 60 381 60 401 77.5 c 128,-1,27
 421 95 421 95 432 117 c 128,-1,28
 443 139 443 139 443 163 c 2,29,-1
 443 466 l 2,30,31
 443 520 443 520 497 520 c 1,32,-1
 497 45 l 2,0,1
EndSplineSet
EndChar
StartChar: v
Encoding: 118 118 87
Width: 506
VWidth: 1507
Flags: W
HStem: -9 21G<244 262>
VStem: 23 461<515 515 515 515>
Fore
253 -9 m 256,0,1
 235 -9 235 -9 229 8 c 2,2,-1
 23 515 l 1,3,4
 44 525 44 525 62 516.5 c 128,-1,5
 80 508 80 508 87 488 c 2,6,-1
 250 83 l 1,7,-1
 241 53 l 1,8,-1
 243 48 l 1,9,-1
 419 488 l 2,10,11
 427 508 427 508 445 516.5 c 128,-1,12
 463 525 463 525 484 515 c 1,13,-1
 277 8 l 2,14,15
 271 -9 271 -9 253 -9 c 256,0,1
EndSplineSet
EndChar
StartChar: w
Encoding: 119 119 88
Width: 729
VWidth: 1507
Flags: W
HStem: -9 21G<229.5 246.507 483.464 500.5>
Fore
362 366 m 1,0,-1
 240 -9 l 1,1,2
 219 -9 219 -9 207.5 1.5 c 128,-1,3
 196 12 196 12 188 32 c 2,4,-1
 23 515 l 1,5,6
 69 531 69 531 86 484 c 2,7,-1
 220 92 l 1,8,-1
 214 63 l 1,9,-1
 216 59 l 1,10,-1
 339 446 l 2,11,12
 347 466 347 466 365 466 c 256,13,14
 383 466 383 466 390 446 c 2,15,-1
 503 92 l 1,16,-1
 497 63 l 1,17,-1
 499 59 l 1,18,-1
 644 484 l 2,19,20
 659 531 659 531 707 515 c 1,21,-1
 541 32 l 2,22,23
 534 12 534 12 522.5 1.5 c 128,-1,24
 511 -9 511 -9 490 -9 c 1,25,-1
 357 398 l 1,26,-1
 356 393 l 1,27,-1
 362 366 l 1,0,-1
EndSplineSet
EndChar
StartChar: x
Encoding: 120 120 89
Width: 509
VWidth: 1507
Flags: W
VStem: 23 464<5 5 5 5>
Fore
487 5 m 1,0,1
 448 -26 448 -26 418 14 c 2,2,-1
 255 231 l 1,3,-1
 92 14 l 2,4,5
 62 -26 62 -26 23 5 c 1,6,-1
 223 273 l 1,7,-1
 47 508 l 1,8,9
 87 537 87 537 118 497 c 2,10,-1
 255 315 l 1,11,-1
 392 497 l 2,12,13
 422 537 422 537 463 508 c 1,14,-1
 286 273 l 1,15,-1
 487 5 l 1,0,1
EndSplineSet
EndChar
StartChar: y
Encoding: 121 121 90
Width: 506
VWidth: 1507
Flags: W
VStem: 23 461<-170 515 -170 -170>
Fore
86 -211 m 0,0,1
 27 -225 27 -225 23 -170 c 1,2,3
 33 -170 33 -170 40.5 -169.5 c 128,-1,4
 48 -169 48 -169 60 -166 c 0,5,6
 115 -154 115 -154 147 -125 c 128,-1,7
 179 -96 179 -96 203 -39 c 2,8,-1
 226 15 l 1,9,-1
 23 515 l 1,10,11
 44 525 44 525 62 516.5 c 128,-1,12
 80 508 80 508 87 488 c 2,13,-1
 250 83 l 1,14,-1
 241 53 l 1,15,-1
 243 48 l 1,16,-1
 419 488 l 2,17,18
 427 508 427 508 445 516.5 c 128,-1,19
 463 525 463 525 484 515 c 1,20,-1
 252 -54 l 2,21,22
 225 -122 225 -122 186.5 -159 c 128,-1,23
 148 -196 148 -196 86 -211 c 0,0,1
EndSplineSet
EndChar
StartChar: z
Encoding: 122 122 91
Width: 455
VWidth: 1507
Flags: W
HStem: 0 50<101 427.092> 461 50<28.79 354>
VStem: 23 410<0 511 511 511>
Fore
72 461 m 2,0,1
 23 461 23 461 23 511 c 1,2,-1
 405 511 l 2,3,4
 422 511 422 511 430.5 495 c 128,-1,5
 439 479 439 479 427 466 c 2,6,-1
 78 29 l 1,7,-1
 83 30 l 1,8,-1
 101 50 l 1,9,-1
 383 50 l 2,10,11
 433 50 433 50 433 0 c 1,12,-1
 50 0 l 2,13,14
 33 0 33 0 25 16 c 128,-1,15
 17 32 17 32 29 45 c 2,16,-1
 377 482 l 1,17,-1
 372 481 l 1,18,-1
 354 461 l 1,19,-1
 72 461 l 2,0,1
EndSplineSet
EndChar
StartChar: braceleft
Encoding: 123 123 92
Width: 287
VWidth: 1507
Flags: W
HStem: -128 48<200.501 289.832> 288 39<36.0044 106.471> 695 48<200.501 289.832>
VStem: 36 259<307 743 -316 -302> 124 60<-66.0712 262.214 352.786 681.071>
CounterMasks: 1 e0
Fore
36 307 m 256,0,1
 36 327 36 327 54 327 c 0,2,3
 93 327 93 327 108.5 352 c 128,-1,4
 124 377 124 377 124 421 c 2,5,-1
 124 612 l 2,6,7
 124 675 124 675 150 709 c 128,-1,8
 176 743 176 743 225 743 c 2,9,-1
 295 743 l 1,10,11
 295 695 295 695 247 695 c 2,12,-1
 238 695 l 2,13,14
 216 695 216 695 200 681.5 c 128,-1,15
 184 668 184 668 184 626 c 2,16,-1
 184 431 l 2,17,18
 184 374 184 374 166.5 346 c 128,-1,19
 149 318 149 318 110 307 c 1,20,21
 149 297 149 297 166.5 269 c 128,-1,22
 184 241 184 241 184 184 c 2,23,-1
 184 -11 l 2,24,25
 184 -53 184 -53 200 -66.5 c 128,-1,26
 216 -80 216 -80 238 -80 c 2,27,-1
 247 -80 l 2,28,29
 295 -80 295 -80 295 -128 c 1,30,-1
 225 -128 l 2,31,32
 176 -128 176 -128 150 -94 c 128,-1,33
 124 -60 124 -60 124 3 c 2,34,-1
 124 194 l 2,35,36
 124 238 124 238 108.5 263 c 128,-1,37
 93 288 93 288 54 288 c 0,38,39
 36 288 36 288 36 307 c 256,0,1
EndSplineSet
EndChar
StartChar: bar
Encoding: 124 124 93
Width: 232
VWidth: 1507
Flags: W
VStem: 90 52<-150.413 787.413>
Fore
90 743 m 2,0,1
 90 794 90 794 142 794 c 1,2,-1
 142 -106 l 2,3,4
 142 -157 142 -157 90 -157 c 1,5,-1
 90 743 l 2,0,1
EndSplineSet
EndChar
StartChar: asciitilde
Encoding: 126 126 95
Width: 652
VWidth: 1507
Flags: W
HStem: 235 53<363.123 537.018> 307 55<102.46 245.763>
Fore
65 265 m 1,0,1
 29 315 29 315 78 342 c 0,2,3
 122 362 122 362 178 362 c 0,4,5
 241 362 241 362 325.5 325 c 128,-1,6
 410 288 410 288 457 288 c 0,7,8
 531 288 531 288 588 353 c 1,9,10
 609 336 609 336 609.5 316.5 c 128,-1,11
 610 297 610 297 589 280 c 0,12,13
 535 235 535 235 457 235 c 0,14,15
 398 235 398 235 301 276 c 0,16,17
 265 292 265 292 234 299.5 c 128,-1,18
 203 307 203 307 178 307 c 0,19,20
 140 307 140 307 112 295 c 128,-1,21
 84 283 84 283 65 265 c 1,0,1
EndSplineSet
EndChar
StartChar: quotedbl
Encoding: 34 34 97
Width: 349
VWidth: 1507
Flags: W
HStem: 508 217<93.1442 123.529 84 148 148 148>
VStem: 84 55<508 528.218 528.218 567.999> 216 54<508 528.162 528.162 567.943>
Fore
75 653 m 2,0,1
 72 690 72 690 92.5 707.5 c 128,-1,2
 113 725 113 725 148 725 c 1,3,-1
 139 565 l 2,4,5
 139 544 139 544 124 526 c 128,-1,6
 109 508 109 508 84 508 c 1,7,-1
 75 653 l 2,0,1
206 653 m 2,8,9
 203 690 203 690 223.5 707.5 c 128,-1,10
 244 725 244 725 279 725 c 1,11,-1
 270 565 l 2,12,13
 270 544 270 544 255 526 c 128,-1,14
 240 508 240 508 216 508 c 1,15,-1
 206 653 l 2,8,9
EndSplineSet
EndChar
StartChar: exclam
Encoding: 33 33 98
Width: 221
VWidth: 1507
Flags: W
HStem: -9 113<70.502 149.983> 705 20G<135 156.312>
VStem: 54 113<7.50195 86.9825> 69 88<623.306 702.308> 84 55<153.698 260.967>
Fore
69 642 m 2,0,1
 68 681 68 681 90.5 703 c 128,-1,2
 113 725 113 725 157 725 c 1,3,-1
 139 202 l 2,4,5
 136 145 136 145 84 145 c 1,6,-1
 69 642 l 2,0,1
54 47 m 256,7,8
 54 71 54 71 70 87.5 c 128,-1,9
 86 104 86 104 110 104 c 256,10,11
 134 104 134 104 150.5 87.5 c 128,-1,12
 167 71 167 71 167 47 c 256,13,14
 167 23 167 23 150.5 7 c 128,-1,15
 134 -9 134 -9 110 -9 c 256,16,17
 86 -9 86 -9 70 7 c 128,-1,18
 54 23 54 23 54 47 c 256,7,8
EndSplineSet
EndChar
StartChar: exclamdown
Encoding: 161 161 100
Width: 221
VWidth: 1507
Flags: W
HStem: -214 21G<66.6883 88> 407 113<73.0175 152.498>
VStem: 56 113<424.017 503.498> 66 88<-191.308 -112.306> 84 55<250.033 357.302>
Fore
154 -131 m 2,0,1
 155 -170 155 -170 132.5 -192 c 128,-1,2
 110 -214 110 -214 66 -214 c 1,3,-1
 84 309 l 2,4,5
 87 366 87 366 139 366 c 1,6,-1
 154 -131 l 2,0,1
169 464 m 256,7,8
 169 440 169 440 153 423.5 c 128,-1,9
 137 407 137 407 113 407 c 256,10,11
 89 407 89 407 72.5 423.5 c 128,-1,12
 56 440 56 440 56 464 c 256,13,14
 56 488 56 488 72.5 504 c 128,-1,15
 89 520 89 520 113 520 c 256,16,17
 137 520 137 520 153 504 c 128,-1,18
 169 488 169 488 169 464 c 256,7,8
EndSplineSet
EndChar
StartChar: cent
Encoding: 162 162 101
Width: 518
VWidth: 1507
Flags: W
HStem: -8 50<190.697 253 304 367.359> 469 50<310.202 390.369>
VStem: 75 55<99.625 412.042> 253 51<-77.9736 -8 42 469 519 588.974> 428 43<98.9076 124 124 143.749 367.251 387 387 412.092>
Fore
253 544 m 2,0,1
 253 595 253 595 304 595 c 1,2,-1
 304 519 l 1,3,4
 360 512 360 512 403 484.5 c 128,-1,5
 446 457 446 457 467 413 c 0,6,7
 473 399 473 399 471 387 c 128,-1,8
 469 375 469 375 462 367 c 128,-1,9
 455 359 455 359 446 353.5 c 128,-1,10
 437 348 437 348 428 348 c 1,11,12
 428 392 428 392 393.5 426.5 c 128,-1,13
 359 461 359 461 304 469 c 1,14,-1
 304 42 l 1,15,16
 359 50 359 50 393.5 84.5 c 128,-1,17
 428 119 428 119 428 163 c 1,18,19
 437 163 437 163 446 157.5 c 128,-1,20
 455 152 455 152 462 144 c 128,-1,21
 469 136 469 136 471 124 c 128,-1,22
 473 112 473 112 467 98 c 0,23,24
 446 54 446 54 403 26 c 128,-1,25
 360 -2 360 -2 304 -8 c 1,26,-1
 304 -33 l 2,27,28
 304 -84 304 -84 253 -84 c 1,29,-1
 253 -8 l 1,30,31
 176 0 176 0 125.5 47.5 c 128,-1,32
 75 95 75 95 75 161 c 2,33,-1
 75 348 l 2,34,35
 75 415 75 415 125.5 463 c 128,-1,36
 176 511 176 511 253 519 c 1,37,-1
 253 544 l 2,0,1
130 348 m 2,38,-1
 130 161 l 2,39,40
 130 118 130 118 164.5 84 c 128,-1,41
 199 50 199 50 253 42 c 1,42,-1
 253 469 l 1,43,44
 199 461 199 461 164.5 426.5 c 128,-1,45
 130 392 130 392 130 348 c 2,38,-1
EndSplineSet
EndChar
StartChar: sterling
Encoding: 163 163 102
Width: 575
VWidth: 1507
Flags: W
HStem: 0 54<173 521.406> 332 54<69.5938 188 250 413.266> 672 53<294.429 446.142>
VStem: 62 467<0 332 283.577 419.779> 178 61<454.001 489.154 471.577 607.779> 203 56<162.597 272.4>
Fore
62 332 m 1,0,1
 62 386 62 386 116 386 c 2,2,-1
 188 386 l 1,3,4
 184 421 184 421 181 453 c 128,-1,5
 178 485 178 485 178 520 c 0,6,7
 178 565 178 565 193 603 c 128,-1,8
 208 641 208 641 234.5 668 c 128,-1,9
 261 695 261 695 297 710 c 128,-1,10
 333 725 333 725 377 725 c 0,11,12
 416 725 416 725 445.5 716 c 128,-1,13
 475 707 475 707 491 692 c 0,14,15
 506 680 506 680 505.5 662.5 c 128,-1,16
 505 645 505 645 493 635 c 1,17,18
 451 672 451 672 372 672 c 0,19,20
 304 672 304 672 270.5 631.5 c 128,-1,21
 237 591 237 591 237 519 c 0,22,23
 237 494 237 494 239 459 c 128,-1,24
 241 424 241 424 244 386 c 1,25,-1
 421 386 l 1,26,27
 421 332 421 332 366 332 c 2,28,-1
 250 332 l 1,29,30
 253 297 253 297 256 270 c 128,-1,31
 259 243 259 243 259 231 c 0,32,33
 259 166 259 166 238 125 c 128,-1,34
 217 84 217 84 173 54 c 1,35,-1
 475 54 l 2,36,37
 529 54 529 54 529 0 c 1,38,-1
 77 0 l 1,39,40
 77 18 77 18 83 33 c 128,-1,41
 89 48 89 48 101 56 c 0,42,43
 118 66 118 66 136 82 c 128,-1,44
 154 98 154 98 169 119 c 128,-1,45
 184 140 184 140 193.5 165.5 c 128,-1,46
 203 191 203 191 203 220 c 256,47,48
 203 249 203 249 201 276.5 c 128,-1,49
 199 304 199 304 196 332 c 1,50,-1
 62 332 l 1,0,1
EndSplineSet
EndChar
StartChar: currency
Encoding: 164 164 103
Width: 743
VWidth: 1507
Flags: W
HStem: 78 53<283.329 459.398> 586 55<284.36 459.617>
VStem: 90 61<265.642 447.14> 591 62<271.344 448.382>
Fore
151 187 m 1,0,1
 90 262 90 262 90 359 c 0,2,3
 90 405 90 405 104.5 450.5 c 128,-1,4
 119 496 119 496 151 534 c 1,5,-1
 90 595 l 1,6,-1
 136 642 l 1,7,-1
 197 579 l 1,8,9
 235 609 235 609 281 625 c 128,-1,10
 327 641 327 641 371 641 c 0,11,12
 469 641 469 641 547 579 c 1,13,-1
 612 642 l 1,14,-1
 656 595 l 1,15,-1
 594 534 l 1,16,17
 624 499 624 499 638.5 453 c 128,-1,18
 653 407 653 407 653 359 c 0,19,20
 653 314 653 314 638.5 269.5 c 128,-1,21
 624 225 624 225 594 187 c 1,22,-1
 656 124 l 1,23,-1
 610 78 l 1,24,-1
 547 143 l 1,25,26
 511 110 511 110 465 94 c 128,-1,27
 419 78 419 78 371 78 c 256,28,29
 323 78 323 78 279 93.5 c 128,-1,30
 235 109 235 109 197 143 c 1,31,-1
 136 78 l 1,32,-1
 90 124 l 1,33,-1
 151 187 l 1,0,1
151 359 m 256,34,35
 151 312 151 312 168 270.5 c 128,-1,36
 185 229 185 229 214.5 198 c 128,-1,37
 244 167 244 167 285 149 c 128,-1,38
 326 131 326 131 371 131 c 256,39,40
 416 131 416 131 456.5 149 c 128,-1,41
 497 167 497 167 526.5 198 c 128,-1,42
 556 229 556 229 573.5 270.5 c 128,-1,43
 591 312 591 312 591 359 c 256,44,45
 591 405 591 405 573.5 446.5 c 128,-1,46
 556 488 556 488 526.5 519 c 128,-1,47
 497 550 497 550 456.5 568 c 128,-1,48
 416 586 416 586 371 586 c 256,49,50
 326 586 326 586 285 568 c 128,-1,51
 244 550 244 550 214.5 519 c 128,-1,52
 185 488 185 488 168 446.5 c 128,-1,53
 151 405 151 405 151 359 c 256,34,35
EndSplineSet
EndChar
StartChar: yen
Encoding: 165 165 104
Width: 602
VWidth: 1507
Flags: W
HStem: -9 21G<271 301.5> 264 54<91.7344 271 332 511.266> 399 55<91.7344 139 139 206 396 511.266>
VStem: 271 61<0.902344 264 318 365>
Fore
84 399 m 1,0,1
 84 454 84 454 139 454 c 2,2,-1
 206 454 l 1,3,-1
 15 716 l 1,4,5
 36 731 36 731 58 725.5 c 128,-1,6
 80 720 80 720 93 701 c 2,7,-1
 301 415 l 1,8,-1
 509 701 l 2,9,10
 523 720 523 720 545 725.5 c 128,-1,11
 567 731 567 731 588 716 c 1,12,-1
 396 454 l 1,13,-1
 519 454 l 1,14,15
 519 399 519 399 464 399 c 2,16,-1
 357 399 l 1,17,-1
 332 365 l 1,18,-1
 332 318 l 1,19,-1
 519 318 l 1,20,21
 519 264 519 264 464 264 c 2,22,-1
 332 264 l 1,23,-1
 332 51 l 2,24,25
 332 -9 332 -9 271 -9 c 1,26,-1
 271 264 l 1,27,-1
 84 264 l 1,28,29
 84 318 84 318 139 318 c 2,30,-1
 271 318 l 1,31,-1
 271 365 l 1,32,-1
 246 399 l 1,33,-1
 84 399 l 1,0,1
EndSplineSet
EndChar
StartChar: brokenbar
Encoding: 166 166 105
Width: 232
VWidth: 1507
Flags: W
VStem: 90 52<-150.413 258.413 378.716 787.413>
Fore
90 743 m 2,0,1
 90 794 90 794 142 794 c 1,2,-1
 142 424 l 2,3,4
 142 372 142 372 90 372 c 1,5,-1
 90 743 l 2,0,1
90 214 m 2,6,7
 90 265 90 265 142 265 c 1,8,-1
 142 -106 l 2,9,10
 142 -157 142 -157 90 -157 c 1,11,-1
 90 214 l 2,6,7
EndSplineSet
EndChar
StartChar: section
Encoding: 167 167 106
Width: 592
VWidth: 1507
Flags: W
HStem: -9 51<215.925 377.017> 678 47<222.416 370.683>
VStem: 90 58<356.421 438.7> 128 57<555.584 644.935> 419 56<79.0549 178.886> 442 60<295.951 388.904>
Fore
502 345 m 0,0,1
 502 307 502 307 485.5 278 c 128,-1,2
 469 249 469 249 442 223 c 1,3,4
 454 211 454 211 464.5 188.5 c 128,-1,5
 475 166 475 166 475 139 c 0,6,7
 475 68 475 68 419 29.5 c 128,-1,8
 363 -9 363 -9 279 -9 c 0,9,10
 243 -9 243 -9 209.5 -1.5 c 128,-1,11
 176 6 176 6 157 18 c 0,12,13
 140 30 140 30 135.5 48 c 128,-1,14
 131 66 131 66 143 87 c 1,15,16
 164 66 164 66 199 54 c 128,-1,17
 234 42 234 42 282 42 c 0,18,19
 342 42 342 42 380.5 65.5 c 128,-1,20
 419 89 419 89 419 133 c 0,21,22
 419 173 419 173 389 198 c 128,-1,23
 359 223 359 223 273 249 c 0,24,25
 181 276 181 276 135.5 308.5 c 128,-1,26
 90 341 90 341 90 401 c 0,27,28
 90 427 90 427 104 454.5 c 128,-1,29
 118 482 118 482 157 512 c 1,30,31
 142 526 142 526 135 545.5 c 128,-1,32
 128 565 128 565 128 586 c 0,33,34
 128 650 128 650 180 687.5 c 128,-1,35
 232 725 232 725 314 725 c 0,36,37
 348 725 348 725 381.5 717.5 c 128,-1,38
 415 710 415 710 436 695 c 0,39,40
 448 687 448 687 448 669 c 128,-1,41
 448 651 448 651 439 639 c 1,42,43
 418 653 418 653 383 665.5 c 128,-1,44
 348 678 348 678 306 678 c 0,45,46
 256 678 256 678 220.5 655.5 c 128,-1,47
 185 633 185 633 185 595 c 0,48,49
 185 555 185 555 227.5 533.5 c 128,-1,50
 270 512 270 512 338 493 c 0,51,52
 372 481 372 481 402.5 468 c 128,-1,53
 433 455 433 455 454.5 438 c 128,-1,54
 476 421 476 421 489 398 c 128,-1,55
 502 375 502 375 502 345 c 0,0,1
442 338 m 0,56,57
 442 368 442 368 416 393.5 c 128,-1,58
 390 419 390 419 327 440 c 0,59,60
 298 449 298 449 262 462 c 128,-1,61
 226 475 226 475 200 488 c 1,62,63
 173 467 173 467 160.5 444.5 c 128,-1,64
 148 422 148 422 148 404 c 0,65,66
 148 378 148 378 174 351 c 128,-1,67
 200 324 200 324 282 300 c 0,68,69
 330 283 330 283 357 272.5 c 128,-1,70
 384 262 384 262 402 252 c 1,71,72
 419 270 419 270 430.5 292.5 c 128,-1,73
 442 315 442 315 442 338 c 0,56,57
EndSplineSet
EndChar
StartChar: dieresis
Encoding: 168 168 107
Width: 324
VWidth: 1507
Flags: W
HStem: 606 102<27.4702 99.0143 225.47 296.53>
VStem: 12 103<621.47 692.53> 210 102<621.47 692.53>
Fore
12 657 m 256,0,1
 12 678 12 678 27 693 c 128,-1,2
 42 708 42 708 63 708 c 256,3,4
 84 708 84 708 99.5 693 c 128,-1,5
 115 678 115 678 115 657 c 256,6,7
 115 636 115 636 99.5 621 c 128,-1,8
 84 606 84 606 63 606 c 256,9,10
 42 606 42 606 27 621 c 128,-1,11
 12 636 12 636 12 657 c 256,0,1
210 657 m 256,12,13
 210 678 210 678 225 693 c 128,-1,14
 240 708 240 708 261 708 c 256,15,16
 282 708 282 708 297 693 c 128,-1,17
 312 678 312 678 312 657 c 256,18,19
 312 636 312 636 297 621 c 128,-1,20
 282 606 282 606 261 606 c 256,21,22
 240 606 240 606 225 621 c 128,-1,23
 210 636 210 636 210 657 c 256,12,13
EndSplineSet
EndChar
StartChar: copyright
Encoding: 169 169 108
Width: 824
VWidth: 1507
Flags: W
HStem: -9 48<297.82 525.899> 142 45<361.502 471.41> 531 43<362.107 470.823> 677 48<297.82 525.899>
VStem: 45 54<239.15 473.483> 247 53<226.829 489.73> 725 54<239.15 473.483>
Fore
45 357 m 256,0,1
 45 434 45 434 73.5 501 c 128,-1,2
 102 568 102 568 152 618 c 128,-1,3
 202 668 202 668 268.5 696.5 c 128,-1,4
 335 725 335 725 411 725 c 256,5,6
 488 725 488 725 555.5 696.5 c 128,-1,7
 623 668 623 668 672.5 618 c 128,-1,8
 722 568 722 568 750.5 501 c 128,-1,9
 779 434 779 434 779 357 c 256,10,11
 779 280 779 280 750.5 214 c 128,-1,12
 722 148 722 148 672.5 98 c 128,-1,13
 623 48 623 48 555.5 19.5 c 128,-1,14
 488 -9 488 -9 411 -9 c 256,15,16
 335 -9 335 -9 268.5 19.5 c 128,-1,17
 202 48 202 48 152 98 c 128,-1,18
 102 148 102 148 73.5 214 c 128,-1,19
 45 280 45 280 45 357 c 256,0,1
99 356 m 256,20,21
 99 289 99 289 124 232 c 128,-1,22
 149 175 149 175 191.5 132 c 128,-1,23
 234 89 234 89 290.5 64 c 128,-1,24
 347 39 347 39 411 39 c 256,25,26
 476 39 476 39 533.5 64 c 128,-1,27
 591 89 591 89 633 132 c 128,-1,28
 675 175 675 175 700 232 c 128,-1,29
 725 289 725 289 725 356 c 256,30,31
 725 422 725 422 700 481 c 128,-1,32
 675 540 675 540 633 583.5 c 128,-1,33
 591 627 591 627 533.5 652 c 128,-1,34
 476 677 476 677 411 677 c 256,35,36
 347 677 347 677 290.5 652 c 128,-1,37
 234 627 234 627 191.5 583.5 c 128,-1,38
 149 540 149 540 124 481 c 128,-1,39
 99 422 99 422 99 356 c 256,20,21
416 531 m 256,40,41
 368 531 368 531 334 502 c 128,-1,42
 300 473 300 473 300 436 c 2,43,-1
 300 282 l 2,44,45
 300 243 300 243 334 215 c 128,-1,46
 368 187 368 187 416 187 c 256,47,48
 464 187 464 187 499.5 217 c 128,-1,49
 535 247 535 247 535 288 c 1,50,51
 561 291 561 291 574.5 278 c 128,-1,52
 588 265 588 265 580 238 c 0,53,54
 571 216 571 216 554.5 197.5 c 128,-1,55
 538 179 538 179 515.5 166.5 c 128,-1,56
 493 154 493 154 467.5 148 c 128,-1,57
 442 142 442 142 416 142 c 0,58,59
 387 142 387 142 357 151 c 128,-1,60
 327 160 327 160 303 178 c 128,-1,61
 279 196 279 196 263 222.5 c 128,-1,62
 247 249 247 249 247 282 c 2,63,-1
 247 436 l 2,64,65
 247 467 247 467 262 493 c 128,-1,66
 277 519 277 519 301.5 537 c 128,-1,67
 326 555 326 555 356 564.5 c 128,-1,68
 386 574 386 574 416 574 c 0,69,70
 442 574 442 574 467.5 568 c 128,-1,71
 493 562 493 562 515.5 550 c 128,-1,72
 538 538 538 538 554.5 520 c 128,-1,73
 571 502 571 502 580 479 c 0,74,75
 588 451 588 451 574.5 439 c 128,-1,76
 561 427 561 427 535 430 c 1,77,78
 535 469 535 469 499.5 500 c 128,-1,79
 464 531 464 531 416 531 c 256,40,41
EndSplineSet
EndChar
StartChar: ordfeminine
Encoding: 170 170 109
Width: 409
VWidth: 1507
Flags: W
HStem: 311 45<120.968 247.077> 534 45<121.478 246.046> 675 45<108.21 228.066>
VStem: 15 51<403.579 483.554> 283 52<316.812 339 390.345 497.699 550 640.645>
Fore
175 356 m 0,0,1
 223 356 223 356 253 382 c 128,-1,2
 283 408 283 408 283 443 c 0,3,4
 283 479 283 479 253 506.5 c 128,-1,5
 223 534 223 534 175 534 c 0,6,7
 128 534 128 534 97 506.5 c 128,-1,8
 66 479 66 479 66 443 c 0,9,10
 66 408 66 408 97 382 c 128,-1,11
 128 356 128 356 175 356 c 0,0,1
283 588 m 2,12,13
 283 623 283 623 252.5 649 c 128,-1,14
 222 675 222 675 175 675 c 0,15,16
 139 675 139 675 107 652.5 c 128,-1,17
 75 630 75 630 59 600 c 1,18,19
 42 612 42 612 37.5 630 c 128,-1,20
 33 648 33 648 45 663 c 0,21,22
 68 692 68 692 102 706 c 128,-1,23
 136 720 136 720 175 720 c 0,24,25
 203 720 203 720 232 711 c 128,-1,26
 261 702 261 702 283.5 685 c 128,-1,27
 306 668 306 668 320.5 643 c 128,-1,28
 335 618 335 618 335 588 c 2,29,-1
 335 356 l 2,30,31
 335 311 335 311 283 311 c 1,32,-1
 283 339 l 1,33,34
 294 348 294 348 304 360 c 1,35,-1
 303 365 l 1,36,37
 282 339 282 339 248 325 c 128,-1,38
 214 311 214 311 175 311 c 0,39,40
 142 311 142 311 112.5 321.5 c 128,-1,41
 83 332 83 332 62 350 c 128,-1,42
 41 368 41 368 28 392 c 128,-1,43
 15 416 15 416 15 443 c 256,44,45
 15 470 15 470 28 495 c 128,-1,46
 41 520 41 520 62 539 c 128,-1,47
 83 558 83 558 112.5 568.5 c 128,-1,48
 142 579 142 579 175 579 c 0,49,50
 214 579 214 579 248 564.5 c 128,-1,51
 282 550 282 550 303 525 c 1,52,-1
 304 529 l 1,53,54
 294 541 294 541 283 550 c 1,55,-1
 283 588 l 2,12,13
EndSplineSet
EndChar
StartChar: logicalnot
Encoding: 172 172 111
Width: 602
VWidth: 1507
Flags: W
HStem: 182 233<506 551.284> 363 52<51.5867 506>
VStem: 506 52<188.716 363>
Fore
558 415 m 1,0,-1
 558 234 l 2,1,2
 558 182 558 182 506 182 c 1,3,-1
 506 363 l 1,4,-1
 45 363 l 1,5,6
 45 415 45 415 96 415 c 2,7,-1
 558 415 l 1,0,-1
EndSplineSet
EndChar
StartChar: registered
Encoding: 174 174 112
Width: 822
VWidth: 1507
Flags: W
HStem: -9 48<297.82 525.899> 335 45<303 517.841> 522 43<303 517.873> 677 48<297.82 525.899>
VStem: 45 54<239.15 473.483> 252 51<147.845 335 380 522> 538 51<147.845 315.918 414.277 501.047> 725 54<239.15 473.483>
Fore
476 380 m 2,0,1
 502 380 502 380 519.5 403.5 c 128,-1,2
 537 427 537 427 537 451 c 0,3,4
 537 476 537 476 519.5 499 c 128,-1,5
 502 522 502 522 476 522 c 2,6,-1
 303 522 l 1,7,-1
 303 380 l 1,8,-1
 476 380 l 2,0,1
303 184 m 2,9,10
 303 143 303 143 252 143 c 1,11,-1
 252 543 l 2,12,13
 252 552 252 552 258.5 558.5 c 128,-1,14
 265 565 265 565 277 565 c 2,15,-1
 476 565 l 2,16,17
 525 565 525 565 555.5 531 c 128,-1,18
 586 497 586 497 586 451 c 0,19,20
 586 425 586 425 573.5 399.5 c 128,-1,21
 561 374 561 374 538 357 c 1,22,23
 589 329 589 329 589 264 c 2,24,-1
 589 184 l 2,25,26
 589 143 589 143 538 143 c 1,27,-1
 538 264 l 2,28,29
 538 298 538 298 520 316.5 c 128,-1,30
 502 335 502 335 476 335 c 2,31,-1
 303 335 l 1,32,-1
 303 184 l 2,9,10
45 357 m 256,33,34
 45 434 45 434 73.5 501 c 128,-1,35
 102 568 102 568 152 618 c 128,-1,36
 202 668 202 668 268.5 696.5 c 128,-1,37
 335 725 335 725 411 725 c 256,38,39
 488 725 488 725 555.5 696.5 c 128,-1,40
 623 668 623 668 672.5 618 c 128,-1,41
 722 568 722 568 750.5 501 c 128,-1,42
 779 434 779 434 779 357 c 256,43,44
 779 280 779 280 750.5 214 c 128,-1,45
 722 148 722 148 672.5 98 c 128,-1,46
 623 48 623 48 555.5 19.5 c 128,-1,47
 488 -9 488 -9 411 -9 c 256,48,49
 335 -9 335 -9 268.5 19.5 c 128,-1,50
 202 48 202 48 152 98 c 128,-1,51
 102 148 102 148 73.5 214 c 128,-1,52
 45 280 45 280 45 357 c 256,33,34
99 356 m 256,53,54
 99 289 99 289 124 232 c 128,-1,55
 149 175 149 175 191.5 132 c 128,-1,56
 234 89 234 89 290.5 64 c 128,-1,57
 347 39 347 39 411 39 c 256,58,59
 476 39 476 39 533.5 64 c 128,-1,60
 591 89 591 89 633 132 c 128,-1,61
 675 175 675 175 700 232 c 128,-1,62
 725 289 725 289 725 356 c 256,63,64
 725 422 725 422 700 481 c 128,-1,65
 675 540 675 540 633 583.5 c 128,-1,66
 591 627 591 627 533.5 652 c 128,-1,67
 476 677 476 677 411 677 c 256,68,69
 347 677 347 677 290.5 652 c 128,-1,70
 234 627 234 627 191.5 583.5 c 128,-1,71
 149 540 149 540 124 481 c 128,-1,72
 99 422 99 422 99 356 c 256,53,54
EndSplineSet
EndChar
StartChar: macron
Encoding: 175 175 113
Width: 325
VWidth: 1507
Flags: W
HStem: 636 48<42 282 42 282 42 42>
Fore
42 636 m 1,0,-1
 42 684 l 1,1,-1
 282 684 l 1,2,-1
 282 636 l 1,3,-1
 42 636 l 1,0,-1
EndSplineSet
EndChar
StartChar: degree
Encoding: 176 176 114
Width: 325
VWidth: 1507
Flags: W
HStem: 451 48<118.259 204.35> 677 48<118.259 204.35>
VStem: 23 55<542.188 633.407> 244 56<541.779 633.816>
Fore
23 588 m 256,0,1
 23 616 23 616 33.5 641 c 128,-1,2
 44 666 44 666 62.5 685 c 128,-1,3
 81 704 81 704 107 714.5 c 128,-1,4
 133 725 133 725 161 725 c 256,5,6
 190 725 190 725 215.5 714.5 c 128,-1,7
 241 704 241 704 260 685 c 128,-1,8
 279 666 279 666 289.5 641 c 128,-1,9
 300 616 300 616 300 588 c 256,10,11
 300 559 300 559 289.5 534 c 128,-1,12
 279 509 279 509 260 490.5 c 128,-1,13
 241 472 241 472 215.5 461.5 c 128,-1,14
 190 451 190 451 161 451 c 256,15,16
 133 451 133 451 107 461.5 c 128,-1,17
 81 472 81 472 62.5 490.5 c 128,-1,18
 44 509 44 509 33.5 534 c 128,-1,19
 23 559 23 559 23 588 c 256,0,1
78 588 m 256,20,21
 78 550 78 550 102.5 524.5 c 128,-1,22
 127 499 127 499 161 499 c 256,23,24
 196 499 196 499 220 524.5 c 128,-1,25
 244 550 244 550 244 588 c 256,26,27
 244 626 244 626 220 651.5 c 128,-1,28
 196 677 196 677 161 677 c 256,29,30
 127 677 127 677 102.5 651.5 c 128,-1,31
 78 626 78 626 78 588 c 256,20,21
EndSplineSet
EndChar
StartChar: plusminus
Encoding: 177 177 115
Width: 602
VWidth: 1507
Flags: W
HStem: -2 55<59.9557 543.044> 273 51<51.0264 274 329 551.855>
VStem: 274 55<93.5938 273 324 503.406>
Fore
274 273 m 1,0,-1
 45 273 l 1,1,2
 45 324 45 324 96 324 c 2,3,-1
 274 324 l 1,4,-1
 274 457 l 2,5,6
 274 511 274 511 329 511 c 1,7,-1
 329 324 l 1,8,-1
 558 324 l 1,9,10
 558 273 558 273 506 273 c 2,11,-1
 329 273 l 1,12,-1
 329 140 l 2,13,14
 329 86 329 86 274 86 c 1,15,-1
 274 273 l 1,0,-1
45 -2 m 1,16,17
 45 24 45 24 59.5 38.5 c 128,-1,18
 74 53 74 53 99 53 c 2,19,-1
 558 53 l 1,20,21
 558 27 558 27 543.5 12.5 c 128,-1,22
 529 -2 529 -2 503 -2 c 2,23,-1
 45 -2 l 1,16,17
EndSplineSet
EndChar
StartChar: twosuperior
Encoding: 178 178 116
Width: 419
VWidth: 1507
Flags: W
HStem: 314 45<113 355.191> 677 43<159.825 260.611>
VStem: 60 299<322.927 355.409> 311 48<560.54 644.724>
Fore
320 359 m 2,0,1
 359 359 359 359 359 314 c 1,2,-1
 84 314 l 2,3,4
 75 314 75 314 67.5 319 c 128,-1,5
 60 324 60 324 60 335 c 0,6,7
 60 386 60 386 93.5 429.5 c 128,-1,8
 127 473 127 473 194 502 c 0,9,10
 240 522 240 522 275.5 542 c 128,-1,11
 311 562 311 562 311 595 c 0,12,13
 311 627 311 627 281.5 652 c 128,-1,14
 252 677 252 677 210 677 c 0,15,16
 169 677 169 677 139 652 c 128,-1,17
 109 627 109 627 109 595 c 0,18,19
 109 592 109 592 109 587.5 c 128,-1,20
 109 583 109 583 112 571 c 1,21,22
 92 571 92 571 75.5 584.5 c 128,-1,23
 59 598 59 598 62 612 c 0,24,25
 66 636 66 636 81 656.5 c 128,-1,26
 96 677 96 677 116.5 691 c 128,-1,27
 137 705 137 705 161 712.5 c 128,-1,28
 185 720 185 720 210 720 c 128,-1,29
 235 720 235 720 261.5 712 c 128,-1,30
 288 704 288 704 310 688 c 128,-1,31
 332 672 332 672 345.5 649 c 128,-1,32
 359 626 359 626 359 595 c 0,33,34
 359 570 359 570 347 549.5 c 128,-1,35
 335 529 335 529 314.5 513 c 128,-1,36
 294 497 294 497 267.5 484.5 c 128,-1,37
 241 472 241 472 214 460 c 0,38,39
 170 442 170 442 145.5 415.5 c 128,-1,40
 121 389 121 389 113 359 c 1,41,-1
 320 359 l 2,0,1
EndSplineSet
EndChar
StartChar: threesuperior
Encoding: 179 179 117
Width: 419
VWidth: 1507
Flags: W
HStem: 309 44<156.874 278.169> 509 44<195.996 263.764> 677 43<151.843 252.965>
VStem: 83 48<609.521 658.257> 288 50<572.671 648.373> 309 50<382.281 479.089>
Fore
83 633 m 0,0,1
 87 665 87 665 122 692.5 c 128,-1,2
 157 720 157 720 210 720 c 0,3,4
 235 720 235 720 258.5 712 c 128,-1,5
 282 704 282 704 299.5 689.5 c 128,-1,6
 317 675 317 675 327.5 656.5 c 128,-1,7
 338 638 338 638 338 615 c 0,8,9
 338 591 338 591 325 570 c 128,-1,10
 312 549 312 549 291 534 c 1,11,12
 323 517 323 517 341 490 c 128,-1,13
 359 463 359 463 359 431 c 0,14,15
 359 380 359 380 316 344.5 c 128,-1,16
 273 309 273 309 210 309 c 0,17,18
 178 309 178 309 151.5 319 c 128,-1,19
 125 329 125 329 105.5 344 c 128,-1,20
 86 359 86 359 74.5 377.5 c 128,-1,21
 63 396 63 396 62 415 c 0,22,23
 59 455 59 455 110 455 c 1,24,25
 109 448 109 448 109 442.5 c 128,-1,26
 109 437 109 437 109 431 c 0,27,28
 109 398 109 398 138 375.5 c 128,-1,29
 167 353 167 353 210 353 c 0,30,31
 250 353 250 353 279.5 375.5 c 128,-1,32
 309 398 309 398 309 431 c 0,33,34
 309 463 309 463 279.5 486 c 128,-1,35
 250 509 250 509 210 509 c 0,36,37
 199 509 199 509 191.5 515.5 c 128,-1,38
 184 522 184 522 184 531 c 0,39,40
 184 541 184 541 191.5 547 c 128,-1,41
 199 553 199 553 210 553 c 0,42,43
 241 553 241 553 264.5 571 c 128,-1,44
 288 589 288 589 288 615 c 256,45,46
 288 641 288 641 264.5 659 c 128,-1,47
 241 677 241 677 210 677 c 0,48,49
 176 677 176 677 153.5 659 c 128,-1,50
 131 641 131 641 131 615 c 0,51,52
 131 612 131 612 132 606.5 c 128,-1,53
 133 601 133 601 136 594 c 1,54,55
 112 591 112 591 95 601.5 c 128,-1,56
 78 612 78 612 83 633 c 0,0,1
EndSplineSet
EndChar
StartChar: acute
Encoding: 180 180 118
Width: 319
VWidth: 1507
Flags: W
HStem: 562 157<65 255 220 220>
Fore
149 692 m 2,0,1
 167 719 167 719 220 719 c 2,2,-1
 255 719 l 1,3,-1
 128 579 l 2,4,5
 118 570 118 570 104 566 c 128,-1,6
 90 562 90 562 65 562 c 1,7,-1
 149 692 l 2,0,1
EndSplineSet
EndChar
StartChar: mu
Encoding: 181 181 119
Width: 587
VWidth: 1507
Flags: W
HStem: -214 21G<90 117.5> -9 50<232.27 354.945> 500 20G<117.5 145 470 497>
VStem: 90 55<-206.406 39 136.633 512.406> 443 54<-1.40625 39 136.633 163 163 512.406>
Fore
294 -9 m 256,0,1
 241 -9 241 -9 197.5 10.5 c 128,-1,2
 154 30 154 30 127 65 c 1,3,-1
 125 60 l 1,4,5
 128 56 128 56 134 49 c 128,-1,6
 140 42 140 42 145 39 c 1,7,-1
 145 -160 l 2,8,9
 145 -214 145 -214 90 -214 c 1,10,-1
 90 466 l 2,11,12
 90 520 90 520 145 520 c 1,13,-1
 145 163 l 2,14,15
 145 139 145 139 156 117 c 128,-1,16
 167 95 167 95 186.5 77.5 c 128,-1,17
 206 60 206 60 234 50.5 c 128,-1,18
 262 41 262 41 294 41 c 256,19,20
 326 41 326 41 353.5 50.5 c 128,-1,21
 381 60 381 60 401 77.5 c 128,-1,22
 421 95 421 95 432 117 c 128,-1,23
 443 139 443 139 443 163 c 2,24,-1
 443 466 l 2,25,26
 443 520 443 520 497 520 c 1,27,-1
 497 45 l 2,28,29
 497 -9 497 -9 443 -9 c 1,30,-1
 443 39 l 1,31,32
 448 42 448 42 454 49 c 128,-1,33
 460 56 460 56 463 60 c 1,34,-1
 461 65 l 1,35,36
 434 30 434 30 390.5 10.5 c 128,-1,37
 347 -9 347 -9 294 -9 c 256,0,1
EndSplineSet
EndChar
StartChar: paragraph
Encoding: 182 182 120
Width: 559
VWidth: 1507
Flags: W
HStem: 677 48<341.071 410.752>
VStem: 36 303<394.253 528.25> 282 57<-130.608 271> 411 58<-130.608 677>
Fore
469 -84 m 2,0,1
 469 -139 469 -139 411 -139 c 1,2,-1
 411 677 l 1,3,-1
 339 677 l 1,4,-1
 339 -84 l 2,5,6
 339 -139 339 -139 282 -139 c 1,7,-1
 282 271 l 1,8,-1
 276 271 l 2,9,10
 234 271 234 271 191.5 284.5 c 128,-1,11
 149 298 149 298 114.5 325.5 c 128,-1,12
 80 353 80 353 58 393 c 128,-1,13
 36 433 36 433 36 487 c 0,14,15
 36 528 36 528 49.5 570 c 128,-1,16
 63 612 63 612 97 646.5 c 128,-1,17
 131 681 131 681 190.5 703 c 128,-1,18
 250 725 250 725 344 725 c 0,19,20
 393 725 393 725 422.5 722.5 c 128,-1,21
 452 720 452 720 469 717 c 1,22,-1
 469 -84 l 2,0,1
EndSplineSet
EndChar
StartChar: periodcentered
Encoding: 183 183 121
Width: 346
VWidth: 1507
Flags: W
HStem: 200 196<112.374 234.237>
VStem: 75 196<237.374 359.237>
Fore
75 298 m 256,0,1
 75 339 75 339 104 367.5 c 128,-1,2
 133 396 133 396 173 396 c 256,3,4
 214 396 214 396 242.5 367.5 c 128,-1,5
 271 339 271 339 271 298 c 256,6,7
 271 258 271 258 242.5 229 c 128,-1,8
 214 200 214 200 173 200 c 256,9,10
 133 200 133 200 104 229 c 128,-1,11
 75 258 75 258 75 298 c 256,0,1
EndSplineSet
EndChar
StartChar: cedilla
Encoding: 184 184 122
Width: 263
VWidth: 1507
Flags: W
HStem: -211 41<51.277 151.619>
VStem: 172 54<-159.919 -94.2461>
Fore
226 -121 m 0,0,1
 226 -164 226 -164 190.5 -187.5 c 128,-1,2
 155 -211 155 -211 115 -211 c 0,3,4
 80 -211 80 -211 54 -194 c 0,5,6
 24 -173 24 -173 42 -146 c 1,7,8
 72 -170 72 -170 115 -170 c 0,9,10
 136 -170 136 -170 154 -159 c 128,-1,11
 172 -148 172 -148 172 -128 c 0,12,13
 172 -101 172 -101 139.5 -89.5 c 128,-1,14
 107 -78 107 -78 68 -81 c 1,15,-1
 128 11 l 1,16,-1
 173 11 l 1,17,-1
 131 -48 l 1,18,19
 170 -48 170 -48 198 -69 c 128,-1,20
 226 -90 226 -90 226 -121 c 0,0,1
EndSplineSet
EndChar
StartChar: onesuperior
Encoding: 185 185 123
Width: 419
VWidth: 1507
Flags: W
HStem: 309 407<210 252.234> 671 45<160.377 210>
VStem: 148 113<683.377 690 690 702.657 690 716 716 716> 210 51<315.026 671>
Fore
232 716 m 1,0,1
 244 716 244 716 252.5 708.5 c 128,-1,2
 261 701 261 701 261 690 c 2,3,-1
 261 360 l 2,4,5
 261 309 261 309 210 309 c 1,6,-1
 210 671 l 1,7,-1
 193 671 l 2,8,9
 172 671 172 671 160 683 c 128,-1,10
 148 695 148 695 148 716 c 1,11,-1
 232 716 l 1,0,1
EndSplineSet
EndChar
StartChar: ordmasculine
Encoding: 186 186 124
Width: 443
VWidth: 1507
Flags: W
HStem: 311 45<149.714 285.694> 675 45<137.339 274.879>
VStem: 0 51<458.682 570.443> 362 51<434.264 570.443>
Fore
0 514 m 0,0,1
 0 556 0 556 16.5 594 c 128,-1,2
 33 632 33 632 61 659.5 c 128,-1,3
 89 687 89 687 126 703.5 c 128,-1,4
 163 720 163 720 205 720 c 0,5,6
 249 720 249 720 286.5 703.5 c 128,-1,7
 324 687 324 687 352.5 659.5 c 128,-1,8
 381 632 381 632 397 594 c 128,-1,9
 413 556 413 556 413 514 c 0,10,11
 413 473 413 473 397 436 c 128,-1,12
 381 399 381 399 352.5 371.5 c 128,-1,13
 324 344 324 344 286.5 327.5 c 128,-1,14
 249 311 249 311 205 311 c 0,15,16
 163 311 163 311 126 327.5 c 128,-1,17
 89 344 89 344 61 371.5 c 128,-1,18
 33 399 33 399 16.5 436 c 128,-1,19
 0 473 0 473 0 514 c 0,0,1
51 514 m 256,20,21
 51 481 51 481 63 452.5 c 128,-1,22
 75 424 75 424 96.5 402 c 128,-1,23
 118 380 118 380 145.5 368 c 128,-1,24
 173 356 173 356 205 356 c 0,25,26
 271 356 271 356 316.5 401 c 128,-1,27
 362 446 362 446 362 514 c 0,28,29
 362 547 362 547 350 576.5 c 128,-1,30
 338 606 338 606 316.5 628 c 128,-1,31
 295 650 295 650 266.5 662.5 c 128,-1,32
 238 675 238 675 205 675 c 0,33,34
 173 675 173 675 145.5 662.5 c 128,-1,35
 118 650 118 650 96.5 628 c 128,-1,36
 75 606 75 606 63 576.5 c 128,-1,37
 51 547 51 547 51 514 c 256,20,21
EndSplineSet
EndChar
StartChar: onequarter
Encoding: 188 188 126
Width: 854
VWidth: 1507
Flags: W
HStem: -5 21G<690 716> 96 46<538 690 742 802.387> 671 45<166.377 216>
VStem: 216 51<315.026 671> 690 52<0.295166 96 142 320>
Fore
238 716 m 2,0,1
 250 716 250 716 258.5 708.5 c 128,-1,2
 267 701 267 701 267 690 c 2,3,-1
 267 360 l 2,4,5
 267 309 267 309 216 309 c 1,6,-1
 216 671 l 1,7,-1
 199 671 l 2,8,9
 178 671 178 671 166 683 c 128,-1,10
 154 695 154 695 154 716 c 1,11,-1
 238 716 l 2,0,1
806 142 m 1,12,13
 806 96 806 96 769 96 c 2,14,-1
 742 96 l 1,15,-1
 742 36 l 2,16,17
 742 -5 742 -5 690 -5 c 1,18,-1
 690 96 l 1,19,-1
 491 96 l 2,20,21
 475 96 475 96 468 108.5 c 128,-1,22
 461 121 461 121 472 134 c 2,23,-1
 696 398 l 2,24,25
 708 410 708 410 723.5 404.5 c 128,-1,26
 739 399 739 399 742 383 c 1,27,-1
 742 142 l 1,28,-1
 806 142 l 1,12,13
690 142 m 1,29,-1
 690 320 l 1,30,-1
 538 142 l 1,31,-1
 690 142 l 1,29,-1
580 722 m 2,32,33
 603 770 603 770 653 746 c 1,34,-1
 274 -6 l 2,35,36
 250 -56 250 -56 202 -30 c 1,37,-1
 580 722 l 2,32,33
EndSplineSet
Ligature2: "'frac' Diagonal Fractions in Latin lookup 0 subtable" one fraction four
Ligature2: "'frac' Diagonal Fractions in Latin lookup 0 subtable" one slash four
EndChar
StartChar: onehalf
Encoding: 189 189 127
Width: 854
VWidth: 1507
Flags: W
HStem: 0 45<543 784.191> 363 44<589.271 689.538> 671 45<166.377 216>
VStem: 216 51<315.026 671> 740 48<237.978 331.249>
Fore
238 716 m 2,0,1
 250 716 250 716 258.5 708.5 c 128,-1,2
 267 701 267 701 267 690 c 2,3,-1
 267 360 l 2,4,5
 267 309 267 309 216 309 c 1,6,-1
 216 671 l 1,7,-1
 199 671 l 2,8,9
 178 671 178 671 166 683 c 128,-1,10
 154 695 154 695 154 716 c 1,11,-1
 238 716 l 2,0,1
749 45 m 2,12,13
 788 45 788 45 788 0 c 1,14,-1
 514 0 l 2,15,16
 505 0 505 0 497.5 5.5 c 128,-1,17
 490 11 490 11 490 21 c 0,18,19
 490 72 490 72 523 116 c 128,-1,20
 556 160 556 160 624 188 c 0,21,22
 669 208 669 208 704.5 228.5 c 128,-1,23
 740 249 740 249 740 282 c 0,24,25
 740 314 740 314 710.5 338.5 c 128,-1,26
 681 363 681 363 639 363 c 0,27,28
 598 363 598 363 568 338.5 c 128,-1,29
 538 314 538 314 538 282 c 0,30,31
 538 279 538 279 538 274.5 c 128,-1,32
 538 270 538 270 541 258 c 1,33,34
 522 258 522 258 505 271.5 c 128,-1,35
 488 285 488 285 491 298 c 0,36,37
 496 323 496 323 511 343 c 128,-1,38
 526 363 526 363 546.5 377.5 c 128,-1,39
 567 392 567 392 591 399.5 c 128,-1,40
 615 407 615 407 639 407 c 0,41,42
 665 407 665 407 691 398.5 c 128,-1,43
 717 390 717 390 739 374.5 c 128,-1,44
 761 359 761 359 774.5 335.5 c 128,-1,45
 788 312 788 312 788 282 c 0,46,47
 788 256 788 256 776 236 c 128,-1,48
 764 216 764 216 744 200 c 128,-1,49
 724 184 724 184 697.5 171 c 128,-1,50
 671 158 671 158 644 146 c 0,51,52
 600 128 600 128 575 101.5 c 128,-1,53
 550 75 550 75 543 45 c 1,54,-1
 749 45 l 2,12,13
580 722 m 2,55,56
 603 770 603 770 653 746 c 1,57,-1
 274 -6 l 2,58,59
 250 -56 250 -56 202 -30 c 1,60,-1
 580 722 l 2,55,56
EndSplineSet
Ligature2: "'frac' Diagonal Fractions in Latin lookup 0 subtable" one fraction two
Ligature2: "'frac' Diagonal Fractions in Latin lookup 0 subtable" one slash two
EndChar
StartChar: threequarters
Encoding: 190 190 128
Width: 854
VWidth: 1507
Flags: W
HStem: -5 21G<690 716> 96 46<538 690 742 802.387> 309 44<162.874 284.169> 509 44<201.996 269.764> 677 43<157.843 258.965>
VStem: 89 48<609.521 658.257> 294 50<572.671 648.373> 315 50<382.281 479.089> 690 52<0.295166 96 142 320>
Fore
806 142 m 1,0,1
 806 96 806 96 769 96 c 2,2,-1
 742 96 l 1,3,-1
 742 36 l 2,4,5
 742 -5 742 -5 690 -5 c 1,6,-1
 690 96 l 1,7,-1
 491 96 l 2,8,9
 475 96 475 96 468 108.5 c 128,-1,10
 461 121 461 121 472 134 c 2,11,-1
 696 398 l 2,12,13
 708 410 708 410 723.5 404.5 c 128,-1,14
 739 399 739 399 742 383 c 1,15,-1
 742 142 l 1,16,-1
 806 142 l 1,0,1
690 142 m 1,17,-1
 690 320 l 1,18,-1
 538 142 l 1,19,-1
 690 142 l 1,17,-1
89 633 m 0,20,21
 93 665 93 665 128 692.5 c 128,-1,22
 163 720 163 720 216 720 c 0,23,24
 241 720 241 720 264.5 712 c 128,-1,25
 288 704 288 704 305.5 689.5 c 128,-1,26
 323 675 323 675 333.5 656.5 c 128,-1,27
 344 638 344 638 344 615 c 0,28,29
 344 591 344 591 331 570 c 128,-1,30
 318 549 318 549 297 534 c 1,31,32
 329 517 329 517 347 490 c 128,-1,33
 365 463 365 463 365 431 c 0,34,35
 365 380 365 380 322 344.5 c 128,-1,36
 279 309 279 309 216 309 c 0,37,38
 184 309 184 309 157.5 319 c 128,-1,39
 131 329 131 329 111.5 344 c 128,-1,40
 92 359 92 359 80.5 377.5 c 128,-1,41
 69 396 69 396 68 415 c 0,42,43
 65 455 65 455 116 455 c 1,44,45
 115 448 115 448 115 442.5 c 128,-1,46
 115 437 115 437 115 431 c 0,47,48
 115 398 115 398 144 375.5 c 128,-1,49
 173 353 173 353 216 353 c 0,50,51
 256 353 256 353 285.5 375.5 c 128,-1,52
 315 398 315 398 315 431 c 0,53,54
 315 463 315 463 285.5 486 c 128,-1,55
 256 509 256 509 216 509 c 0,56,57
 205 509 205 509 197.5 515.5 c 128,-1,58
 190 522 190 522 190 531 c 0,59,60
 190 541 190 541 197.5 547 c 128,-1,61
 205 553 205 553 216 553 c 0,62,63
 247 553 247 553 270.5 571 c 128,-1,64
 294 589 294 589 294 615 c 256,65,66
 294 641 294 641 270.5 659 c 128,-1,67
 247 677 247 677 216 677 c 0,68,69
 182 677 182 677 159.5 659 c 128,-1,70
 137 641 137 641 137 615 c 0,71,72
 137 612 137 612 138 606.5 c 128,-1,73
 139 601 139 601 142 594 c 1,74,75
 118 591 118 591 101 601.5 c 128,-1,76
 84 612 84 612 89 633 c 0,20,21
580 722 m 2,77,78
 603 770 603 770 653 746 c 1,79,-1
 274 -6 l 2,80,81
 250 -56 250 -56 202 -30 c 1,82,-1
 580 722 l 2,77,78
EndSplineSet
Ligature2: "'frac' Diagonal Fractions in Latin lookup 0 subtable" three fraction four
Ligature2: "'frac' Diagonal Fractions in Latin lookup 0 subtable" three slash four
EndChar
StartChar: questiondown
Encoding: 191 191 129
Width: 503
VWidth: 1507
Flags: W
HStem: -214 51<175.935 340.419> 407 113<217.533 297.498>
VStem: 47 57<-93.8974 51.9217> 200 114<424.017 503.498> 229 57<216.299 357.302>
Fore
229 309 m 2,0,1
 229 366 229 366 286 366 c 1,2,-1
 286 277 l 2,3,4
 286 241 286 241 272.5 215.5 c 128,-1,5
 259 190 259 190 239 169 c 128,-1,6
 219 148 219 148 195.5 130 c 128,-1,7
 172 112 172 112 151.5 91.5 c 128,-1,8
 131 71 131 71 117.5 45.5 c 128,-1,9
 104 20 104 20 104 -15 c 0,10,11
 104 -78 104 -78 147 -120.5 c 128,-1,12
 190 -163 190 -163 258 -163 c 0,13,14
 321 -163 321 -163 366 -123 c 128,-1,15
 411 -83 411 -83 411 -15 c 0,16,17
 411 -6 411 -6 411 -0.5 c 128,-1,18
 411 5 411 5 410 14 c 1,19,20
 434 14 434 14 452 -3 c 128,-1,21
 470 -20 470 -20 467 -44 c 0,22,23
 457 -122 457 -122 398 -168 c 128,-1,24
 339 -214 339 -214 258 -214 c 0,25,26
 216 -214 216 -214 177.5 -200.5 c 128,-1,27
 139 -187 139 -187 110 -161.5 c 128,-1,28
 81 -136 81 -136 64 -99 c 128,-1,29
 47 -62 47 -62 47 -15 c 0,30,31
 47 47 47 47 75.5 85.5 c 128,-1,32
 104 124 104 124 138 152.5 c 128,-1,33
 172 181 172 181 200.5 209 c 128,-1,34
 229 237 229 237 229 277 c 2,35,-1
 229 309 l 2,0,1
314 464 m 256,36,37
 314 440 314 440 298 423.5 c 128,-1,38
 282 407 282 407 258 407 c 256,39,40
 234 407 234 407 217 423.5 c 128,-1,41
 200 440 200 440 200 464 c 256,42,43
 200 488 200 488 217 504 c 128,-1,44
 234 520 234 520 258 520 c 256,45,46
 282 520 282 520 298 504 c 128,-1,47
 314 488 314 488 314 464 c 256,36,37
EndSplineSet
EndChar
StartChar: AE
Encoding: 198 198 135
Width: 908
VWidth: 1507
Flags: W
HStem: 0 54<591 886.406> 234 54<238 502> 332 54<559 841.266> 662 54<520 871.266>
Fore
463 716 m 1,0,-1
 824 716 l 2,1,2
 879 716 879 716 879 662 c 1,3,-1
 520 662 l 1,4,-1
 552 386 l 1,5,-1
 849 386 l 1,6,7
 849 332 849 332 794 332 c 2,8,-1
 559 332 l 1,9,-1
 591 54 l 1,10,-1
 894 54 l 1,11,12
 894 0 894 0 840 0 c 2,13,-1
 532 0 l 1,14,-1
 508 234 l 1,15,-1
 202 234 l 1,16,-1
 39 -9 l 1,17,18
 18 0 18 0 13.5 22.5 c 128,-1,19
 9 45 9 45 26 69 c 2,20,-1
 463 716 l 1,0,-1
238 288 m 1,21,-1
 502 288 l 1,22,-1
 461 657 l 1,23,-1
 458 653 l 1,24,-1
 460 623 l 1,25,-1
 238 288 l 1,21,-1
EndSplineSet
EndChar
StartChar: Eth
Encoding: 208 208 145
Width: 729
VWidth: 1507
Flags: W
HStem: 0 54<151 457.233> 333 51<6.02637 90 151 314.974> 662 54<151 457.233>
VStem: 90 61<54 333 384 662> 595 59<167.032 482 482 550.968>
Fore
372 716 m 2,0,1
 422 716 422 716 472 700 c 128,-1,2
 522 684 522 684 562.5 655 c 128,-1,3
 603 626 603 626 628.5 582 c 128,-1,4
 654 538 654 538 654 482 c 2,5,-1
 654 235 l 2,6,7
 654 181 654 181 629 138 c 128,-1,8
 604 95 604 95 564.5 64 c 128,-1,9
 525 33 525 33 474.5 16.5 c 128,-1,10
 424 0 424 0 372 0 c 2,11,-1
 121 0 l 2,12,13
 107 0 107 0 98.5 9 c 128,-1,14
 90 18 90 18 90 30 c 2,15,-1
 90 333 l 1,16,-1
 0 333 l 1,17,18
 0 384 0 384 51 384 c 2,19,-1
 90 384 l 1,20,-1
 90 686 l 2,21,22
 90 716 90 716 121 716 c 2,23,-1
 372 716 l 2,0,1
151 662 m 1,24,-1
 151 384 l 1,25,-1
 321 384 l 1,26,27
 321 333 321 333 270 333 c 2,28,-1
 151 333 l 1,29,-1
 151 54 l 1,30,-1
 372 54 l 2,31,32
 418 54 418 54 458.5 68.5 c 128,-1,33
 499 83 499 83 530 108 c 128,-1,34
 561 133 561 133 578 166 c 128,-1,35
 595 199 595 199 595 235 c 2,36,-1
 595 482 l 2,37,38
 595 519 595 519 578 552 c 128,-1,39
 561 585 561 585 530 609 c 128,-1,40
 499 633 499 633 458.5 647.5 c 128,-1,41
 418 662 418 662 372 662 c 2,42,-1
 151 662 l 1,24,-1
EndSplineSet
EndChar
StartChar: multiply
Encoding: 215 215 152
Width: 602
VWidth: 1507
Flags: W
HStem: 113 369<80 522 80 80>
Fore
522 113 m 1,0,1
 484 78 484 78 449 113 c 2,2,-1
 80 482 l 1,3,4
 118 517 118 517 152 482 c 2,5,-1
 522 113 l 1,0,1
449 482 m 2,6,7
 484 517 484 517 522 482 c 1,8,-1
 152 113 l 2,9,10
 118 78 118 78 80 113 c 1,11,-1
 449 482 l 2,6,7
EndSplineSet
EndChar
StartChar: Thorn
Encoding: 222 222 159
Width: 595
VWidth: 1507
Flags: W
HStem: -9 21G<90 104> 175.5 50.5<169.941 224.062 224.062 227.031 225.546 372.936> 549 47.5<207.493 245.396 226.445 362.406> 704 20G<135.5 149>
VStem: 90 59<6.47217 181 235 535 588 707.497> 481 59<311.094 471.956>
Fore
540 402 m 0,0,1
 540 350 540 350 518.5 307.5 c 128,-1,2
 497 265 497 265 459 235.5 c 128,-1,3
 421 206 421 206 367.5 190.5 c 128,-1,4
 314 175 314 175 249 175 c 0,5,6
 226 175 226 175 199 175.5 c 128,-1,7
 172 176 172 176 149 181 c 1,8,-1
 149 50 l 2,9,10
 149 21 149 21 133.5 6 c 128,-1,11
 118 -9 118 -9 90 -9 c 1,12,-1
 90 665 l 2,13,14
 90 692 90 692 106 708 c 128,-1,15
 122 724 122 724 149 724 c 1,16,-1
 149 588 l 1,17,18
 179 595 179 595 214.5 596.5 c 128,-1,19
 250 598 250 598 276 598 c 0,20,21
 413 598 413 598 481 535 c 0,22,23
 540 481 540 481 540 402 c 0,0,1
481 395 m 0,24,25
 481 439 481 439 464.5 468 c 128,-1,26
 448 497 448 497 419 515.5 c 128,-1,27
 390 534 390 534 353.5 541.5 c 128,-1,28
 317 549 317 549 276 549 c 0,29,30
 237 549 237 549 202 545 c 128,-1,31
 167 541 167 541 149 535 c 1,32,-1
 149 235 l 1,33,34
 176 229 176 229 202 227.5 c 128,-1,35
 228 226 228 226 252 226 c 0,36,37
 363 226 363 226 422 270.5 c 128,-1,38
 481 315 481 315 481 395 c 0,24,25
EndSplineSet
EndChar
StartChar: uni00DF
Encoding: 223 223 160
Width: 559
VWidth: 1507
Flags: W
HStem: -2 47<262 268.214 268.214 277.5 277.5 296.604 296.604 301.828 299.216 380.172> 360 48<243 325.605> 677 48<198.374 335.087>
VStem: 90 59<-129.692 578.167> 378 62<459.56 623.557> 425 59<89.2966 291.86>
Fore
90 534 m 2,0,1
 90 620 90 620 134 672.5 c 128,-1,2
 178 725 178 725 268 725 c 0,3,4
 306 725 306 725 338.5 710.5 c 128,-1,5
 371 696 371 696 393 673 c 128,-1,6
 415 650 415 650 427.5 616.5 c 128,-1,7
 440 583 440 583 440 544 c 0,8,9
 440 494 440 494 416.5 456 c 128,-1,10
 393 418 393 418 348 393 c 1,11,12
 416 372 416 372 450 322.5 c 128,-1,13
 484 273 484 273 484 202 c 0,14,15
 484 104 484 104 440 47.5 c 128,-1,16
 396 -9 396 -9 312 -9 c 0,17,18
 292 -9 292 -9 281.5 -7 c 128,-1,19
 271 -5 271 -5 262 -2 c 0,20,21
 220 14 220 14 243 59 c 1,22,23
 258 51 258 51 277.5 45 c 128,-1,24
 297 39 297 39 317 39 c 0,25,26
 369 39 369 39 397 79 c 128,-1,27
 425 119 425 119 425 194 c 0,28,29
 425 283 425 283 379 321.5 c 128,-1,30
 333 360 333 360 243 360 c 1,31,-1
 243 408 l 1,32,33
 307 411 307 411 342.5 441.5 c 128,-1,34
 378 472 378 472 378 547 c 0,35,36
 378 607 378 607 349 642 c 128,-1,37
 320 677 320 677 258 677 c 0,38,39
 225 677 225 677 204.5 665 c 128,-1,40
 184 653 184 653 172 632.5 c 128,-1,41
 160 612 160 612 154.5 588 c 128,-1,42
 149 564 149 564 149 538 c 2,43,-1
 149 -78 l 2,44,45
 149 -139 149 -139 90 -139 c 1,46,-1
 90 534 l 2,0,1
EndSplineSet
EndChar
StartChar: ae
Encoding: 230 230 167
Width: 895
VWidth: 1507
Flags: W
HStem: -9 50<197.172 350.852 529.13 677.268> 267 50<186.157 413 467 766> 470 50<182.935 350.205 555.617 673.716>
VStem: 60 55<93.0782 214.922> 413 54<98.1992 267 317 373.951> 766 54<317 348 348 373.652>
Fore
413 317 m 1,0,-1
 413 350 l 2,1,2
 413 398 413 398 370 434 c 128,-1,3
 327 470 327 470 264 470 c 0,4,5
 214 470 214 470 172.5 441.5 c 128,-1,6
 131 413 131 413 110 372 c 1,7,8
 92 386 92 386 86.5 408 c 128,-1,9
 81 430 81 430 98 448 c 0,10,11
 127 482 127 482 170.5 501 c 128,-1,12
 214 520 214 520 264 520 c 0,13,14
 315 520 315 520 364 497.5 c 128,-1,15
 413 475 413 475 442 434 c 1,16,17
 467 473 467 473 513 496.5 c 128,-1,18
 559 520 559 520 616 520 c 0,19,20
 659 520 659 520 696 506.5 c 128,-1,21
 733 493 733 493 760.5 469.5 c 128,-1,22
 788 446 788 446 804 415 c 128,-1,23
 820 384 820 384 820 348 c 2,24,-1
 820 294 l 2,25,26
 820 282 820 282 811.5 274.5 c 128,-1,27
 803 267 803 267 793 267 c 2,28,-1
 467 267 l 1,29,-1
 467 161 l 2,30,31
 467 113 467 113 509.5 77 c 128,-1,32
 552 41 552 41 616 41 c 0,33,34
 648 41 648 41 676 50.5 c 128,-1,35
 704 60 704 60 723.5 77.5 c 128,-1,36
 743 95 743 95 754.5 117 c 128,-1,37
 766 139 766 139 766 163 c 1,38,39
 775 163 775 163 784 157.5 c 128,-1,40
 793 152 793 152 799.5 144 c 128,-1,41
 806 136 806 136 808.5 124 c 128,-1,42
 811 112 811 112 805 98 c 0,43,44
 782 50 782 50 731.5 20.5 c 128,-1,45
 681 -9 681 -9 616 -9 c 0,46,47
 559 -9 559 -9 513 14.5 c 128,-1,48
 467 38 467 38 442 77 c 1,49,50
 413 36 413 36 364 13.5 c 128,-1,51
 315 -9 315 -9 264 -9 c 0,52,53
 222 -9 222 -9 185 3 c 128,-1,54
 148 15 148 15 120 37 c 128,-1,55
 92 59 92 59 76 88.5 c 128,-1,56
 60 118 60 118 60 154 c 256,57,58
 60 190 60 190 76 219.5 c 128,-1,59
 92 249 92 249 120 270.5 c 128,-1,60
 148 292 148 292 185 304.5 c 128,-1,61
 222 317 222 317 264 317 c 2,62,-1
 413 317 l 1,0,-1
264 267 m 2,63,64
 199 267 199 267 157 234.5 c 128,-1,65
 115 202 115 202 115 154 c 256,66,67
 115 106 115 106 157 73.5 c 128,-1,68
 199 41 199 41 264 41 c 256,69,70
 329 41 329 41 371 77 c 128,-1,71
 413 113 413 113 413 161 c 2,72,-1
 413 267 l 1,73,-1
 264 267 l 2,63,64
467 317 m 1,74,-1
 766 317 l 1,75,-1
 766 348 l 2,76,77
 766 372 766 372 754.5 394 c 128,-1,78
 743 416 743 416 723.5 433.5 c 128,-1,79
 704 451 704 451 676 460.5 c 128,-1,80
 648 470 648 470 616 470 c 256,81,82
 585 470 585 470 558 460.5 c 128,-1,83
 531 451 531 451 510.5 434.5 c 128,-1,84
 490 418 490 418 478.5 395 c 128,-1,85
 467 372 467 372 467 348 c 2,86,-1
 467 317 l 1,74,-1
EndSplineSet
EndChar
StartChar: eth
Encoding: 240 240 177
Width: 630
VWidth: 1507
Flags: W
HStem: -9 48<229.875 394.203> 472 48<224.299 403.177>
VStem: 60 55<155.822 321.131> 511 59<158.841 339.383>
Fore
158 553 m 1,0,1
 137 600 137 600 182 621 c 2,2,-1
 270 662 l 1,3,4
 243 678 243 678 214 691.5 c 128,-1,5
 185 705 185 705 155 717 c 1,6,-1
 178 764 l 1,7,8
 217 748 217 748 255.5 729.5 c 128,-1,9
 294 711 294 711 329 689 c 1,10,-1
 469 754 l 1,11,12
 490 707 490 707 445 686 c 2,13,-1
 377 654 l 1,14,15
 422 618 422 618 459.5 573 c 128,-1,16
 497 528 497 528 525 472 c 0,17,18
 547 425 547 425 558.5 375.5 c 128,-1,19
 570 326 570 326 570 268 c 0,20,21
 570 196 570 196 546.5 143 c 128,-1,22
 523 90 523 90 486 56.5 c 128,-1,23
 449 23 449 23 403 7 c 128,-1,24
 357 -9 357 -9 311 -9 c 0,25,26
 255 -9 255 -9 209 10.5 c 128,-1,27
 163 30 163 30 129.5 64.5 c 128,-1,28
 96 99 96 99 78 146 c 128,-1,29
 60 193 60 193 60 247 c 0,30,31
 60 311 60 311 82 361 c 128,-1,32
 104 411 104 411 140 446.5 c 128,-1,33
 176 482 176 482 221.5 501 c 128,-1,34
 267 520 267 520 315 520 c 0,35,36
 369 520 369 520 420.5 496 c 128,-1,37
 472 472 472 472 509 427 c 1,38,-1
 511 431 l 1,39,40
 505 439 505 439 496 449.5 c 128,-1,41
 487 460 487 460 475 469 c 1,42,43
 415 564 415 564 323 629 c 1,44,-1
 158 553 l 1,0,1
511 261 m 256,45,46
 511 315 511 315 498 351 c 128,-1,47
 485 387 485 387 463 413 c 1,48,49
 437 434 437 434 401.5 453 c 128,-1,50
 366 472 366 472 315 472 c 0,51,52
 262 472 262 472 224.5 451.5 c 128,-1,53
 187 431 187 431 163 398.5 c 128,-1,54
 139 366 139 366 127 326 c 128,-1,55
 115 286 115 286 115 249 c 0,56,57
 115 199 115 199 132 160 c 128,-1,58
 149 121 149 121 176 93.5 c 128,-1,59
 203 66 203 66 238 52.5 c 128,-1,60
 273 39 273 39 309 39 c 0,61,62
 351 39 351 39 388 53.5 c 128,-1,63
 425 68 425 68 452 96 c 128,-1,64
 479 124 479 124 495 165 c 128,-1,65
 511 206 511 206 511 261 c 256,45,46
EndSplineSet
EndChar
StartChar: divide
Encoding: 247 247 184
Width: 602
VWidth: 1507
Flags: W
HStem: 66 112<263.017 339.983> 271 55<59.9557 541.56> 419 112<263.017 339.983>
VStem: 246 111<83.0172 160.983 436.017 513.468>
CounterMasks: 1 e0
Fore
556 326 m 1,0,1
 556 300 556 300 542 285.5 c 128,-1,2
 528 271 528 271 502 271 c 2,3,-1
 45 271 l 1,4,5
 45 297 45 297 59.5 311.5 c 128,-1,6
 74 326 74 326 99 326 c 2,7,-1
 556 326 l 1,0,1
246 475 m 256,8,9
 246 497 246 497 262.5 514 c 128,-1,10
 279 531 279 531 301 531 c 256,11,12
 324 531 324 531 340.5 514 c 128,-1,13
 357 497 357 497 357 475 c 256,14,15
 357 452 357 452 340.5 435.5 c 128,-1,16
 324 419 324 419 301 419 c 256,17,18
 279 419 279 419 262.5 435.5 c 128,-1,19
 246 452 246 452 246 475 c 256,8,9
246 122 m 256,20,21
 246 145 246 145 262.5 161.5 c 128,-1,22
 279 178 279 178 301 178 c 256,23,24
 324 178 324 178 340.5 161.5 c 128,-1,25
 357 145 357 145 357 122 c 256,26,27
 357 99 357 99 340.5 82.5 c 128,-1,28
 324 66 324 66 301 66 c 256,29,30
 279 66 279 66 262.5 82.5 c 128,-1,31
 246 99 246 99 246 122 c 256,20,21
EndSplineSet
EndChar
StartChar: oslash
Encoding: 248 248 185
Width: 649
VWidth: 1507
Flags: W
HStem: -9 50<239.747 411.327> 470 50<236.673 409.792>
VStem: 60 55<166.124 344.378> 535 54<166.883 344.378>
Fore
427 517 m 2,0,1
 449 565 449 565 499 541 c 1,2,-1
 223 -6 l 2,3,4
 199 -56 199 -56 151 -30 c 1,5,-1
 427 517 l 2,0,1
60 255 m 256,6,7
 60 309 60 309 80.5 357 c 128,-1,8
 101 405 101 405 137 441.5 c 128,-1,9
 173 478 173 478 221.5 499 c 128,-1,10
 270 520 270 520 324 520 c 256,11,12
 378 520 378 520 426.5 499 c 128,-1,13
 475 478 475 478 511 441.5 c 128,-1,14
 547 405 547 405 568 357 c 128,-1,15
 589 309 589 309 589 255 c 256,16,17
 589 200 589 200 568 152 c 128,-1,18
 547 104 547 104 511 68 c 128,-1,19
 475 32 475 32 426.5 11.5 c 128,-1,20
 378 -9 378 -9 324 -9 c 256,21,22
 270 -9 270 -9 221.5 11.5 c 128,-1,23
 173 32 173 32 137 68 c 128,-1,24
 101 104 101 104 80.5 152 c 128,-1,25
 60 200 60 200 60 255 c 256,6,7
115 255 m 256,26,27
 115 210 115 210 131.5 171.5 c 128,-1,28
 148 133 148 133 175.5 103.5 c 128,-1,29
 203 74 203 74 241.5 57.5 c 128,-1,30
 280 41 280 41 324 41 c 256,31,32
 368 41 368 41 406.5 57.5 c 128,-1,33
 445 74 445 74 473.5 103.5 c 128,-1,34
 502 133 502 133 518.5 171.5 c 128,-1,35
 535 210 535 210 535 255 c 256,36,37
 535 300 535 300 518.5 339 c 128,-1,38
 502 378 502 378 473.5 407.5 c 128,-1,39
 445 437 445 437 406.5 453.5 c 128,-1,40
 368 470 368 470 324 470 c 256,41,42
 280 470 280 470 241.5 453.5 c 128,-1,43
 203 437 203 437 175.5 407.5 c 128,-1,44
 148 378 148 378 131.5 339 c 128,-1,45
 115 300 115 300 115 255 c 256,26,27
EndSplineSet
EndChar
StartChar: thorn
Encoding: 254 254 191
Width: 587
VWidth: 1507
Flags: W
HStem: -214 21G<90 105.5> -9 50<232.27 351.128> 470 50<206.802 376.683> 705 20G<117.5 145>
VStem: 90 55<-200.592 39 136.633 412.801 472 717.406> 443 54<136.633 412.801>
Fore
145 163 m 2,0,1
 145 139 145 139 156 117 c 128,-1,2
 167 95 167 95 186.5 77.5 c 128,-1,3
 206 60 206 60 234 50.5 c 128,-1,4
 262 41 262 41 294 41 c 256,5,6
 326 41 326 41 353.5 50.5 c 128,-1,7
 381 60 381 60 401 77.5 c 128,-1,8
 421 95 421 95 432 117 c 128,-1,9
 443 139 443 139 443 163 c 2,10,-1
 443 350 l 2,11,12
 443 398 443 398 401 434 c 128,-1,13
 359 470 359 470 294 470 c 256,14,15
 229 470 229 470 187 434 c 128,-1,16
 145 398 145 398 145 350 c 2,17,-1
 145 163 l 2,0,1
145 -166 m 2,18,19
 145 -188 145 -188 133 -201 c 128,-1,20
 121 -214 121 -214 90 -214 c 1,21,-1
 90 671 l 2,22,23
 90 725 90 725 145 725 c 1,24,-1
 145 472 l 1,25,26
 140 469 140 469 134 462 c 128,-1,27
 128 455 128 455 125 451 c 1,28,-1
 127 446 l 1,29,30
 154 481 154 481 197.5 500.5 c 128,-1,31
 241 520 241 520 294 520 c 0,32,33
 336 520 336 520 373 506.5 c 128,-1,34
 410 493 410 493 438 470.5 c 128,-1,35
 466 448 466 448 481.5 417 c 128,-1,36
 497 386 497 386 497 350 c 2,37,-1
 497 163 l 2,38,39
 497 127 497 127 481.5 96 c 128,-1,40
 466 65 466 65 438 41.5 c 128,-1,41
 410 18 410 18 373 4.5 c 128,-1,42
 336 -9 336 -9 294 -9 c 0,43,44
 241 -9 241 -9 197.5 10.5 c 128,-1,45
 154 30 154 30 127 65 c 1,46,-1
 125 60 l 1,47,48
 128 56 128 56 134 49 c 128,-1,49
 140 42 140 42 145 39 c 1,50,-1
 145 -166 l 2,18,19
EndSplineSet
EndChar
StartChar: Lslash
Encoding: 321 321 193
Width: 624
VWidth: 1507
Flags: W
HStem: 0 54<151 586.406> 705 20G<120.5 151>
VStem: 90 61<54 301 402 715.098>
Fore
540 54 m 2,0,1
 594 54 594 54 594 0 c 1,2,-1
 121 0 l 2,3,4
 107 0 107 0 98.5 9 c 128,-1,5
 90 18 90 18 90 30 c 2,6,-1
 90 301 l 1,7,-1
 11 250 l 1,8,9
 -15 292 -15 292 26 320 c 2,10,-1
 90 362 l 1,11,-1
 90 665 l 2,12,13
 90 725 90 725 151 725 c 1,14,-1
 151 402 l 1,15,-1
 321 514 l 1,16,17
 348 472 348 472 307 445 c 2,18,-1
 151 341 l 1,19,-1
 151 54 l 1,20,-1
 540 54 l 2,0,1
EndSplineSet
EndChar
StartChar: lslash
Encoding: 322 322 194
Width: 241
VWidth: 1507
Flags: W
HStem: -9 21G<90 120.5> 705 20G<120.5 151>
VStem: 90 61<0.902344 301 401 715.098>
Fore
151 401 m 1,0,-1
 231 454 l 1,1,2
 258 411 258 411 217 384 c 2,3,-1
 151 341 l 1,4,-1
 151 51 l 2,5,6
 151 -9 151 -9 90 -9 c 1,7,-1
 90 301 l 1,8,-1
 11 250 l 1,9,10
 -15 292 -15 292 26 320 c 2,11,-1
 90 362 l 1,12,-1
 90 665 l 2,13,14
 90 725 90 725 151 725 c 1,15,-1
 151 401 l 1,0,-1
EndSplineSet
EndChar
StartChar: OE
Encoding: 338 338 195
Width: 1204
VWidth: 1507
Flags: W
HStem: -9 54<265.649 424.255 767.032 929.218> 332 54<641 931.406> 671 54<264.665 452.271 767.214 929.651>
VStem: 75 61<158.032 559.968> 580 61<158.032 332 386 491 491 559.968>
Fore
641 386 m 1,0,-1
 939 386 l 1,1,2
 939 332 939 332 885 332 c 2,3,-1
 641 332 l 1,4,-1
 641 226 l 2,5,6
 641 190 641 190 658 157 c 128,-1,7
 675 124 675 124 705.5 99 c 128,-1,8
 736 74 736 74 775.5 59.5 c 128,-1,9
 815 45 815 45 862 45 c 256,10,11
 909 45 909 45 949.5 59.5 c 128,-1,12
 990 74 990 74 1020.5 99 c 128,-1,13
 1051 124 1051 124 1068 157 c 128,-1,14
 1085 190 1085 190 1085 226 c 0,15,16
 1085 237.5 l 0,17,18
 1085 249 1085 249 1084 256 c 1,19,20
 1108 256 1108 256 1128.5 239.5 c 128,-1,21
 1149 223 1149 223 1141 184 c 0,22,23
 1132 139 1132 139 1105 102.5 c 128,-1,24
 1078 66 1078 66 1039.5 41.5 c 128,-1,25
 1001 17 1001 17 955 4 c 128,-1,26
 909 -9 909 -9 862 -9 c 0,27,28
 790 -9 790 -9 720 23.5 c 128,-1,29
 650 56 650 56 610 118 c 1,30,31
 592 87 592 87 564.5 64 c 128,-1,32
 537 41 537 41 503 24.5 c 128,-1,33
 469 8 469 8 432 -0.5 c 128,-1,34
 395 -9 395 -9 357 -9 c 0,35,36
 307 -9 307 -9 257.5 7 c 128,-1,37
 208 23 208 23 167.5 53 c 128,-1,38
 127 83 127 83 101 126.5 c 128,-1,39
 75 170 75 170 75 226 c 2,40,-1
 75 491 l 2,41,42
 75 546 75 546 100 589 c 128,-1,43
 125 632 125 632 165 662 c 128,-1,44
 205 692 205 692 255.5 708.5 c 128,-1,45
 306 725 306 725 357 725 c 0,46,47
 431 725 431 725 501 693.5 c 128,-1,48
 571 662 571 662 610 597 c 1,49,50
 648 657 648 657 718 691 c 128,-1,51
 788 725 788 725 862 725 c 0,52,53
 907 725 907 725 951.5 713.5 c 128,-1,54
 996 702 996 702 1034.5 678 c 128,-1,55
 1073 654 1073 654 1101 618.5 c 128,-1,56
 1129 583 1129 583 1141 535 c 0,57,58
 1150 494 1150 494 1129 477.5 c 128,-1,59
 1108 461 1108 461 1084 461 c 1,60,61
 1085 469 1085 469 1085 472.5 c 0,62,-1
 1085 491 l 0,63,64
 1085 528 1085 528 1068 561 c 128,-1,65
 1051 594 1051 594 1020.5 618 c 128,-1,66
 990 642 990 642 949.5 656.5 c 128,-1,67
 909 671 909 671 862 671 c 256,68,69
 815 671 815 671 775.5 656.5 c 128,-1,70
 736 642 736 642 705.5 618 c 128,-1,71
 675 594 675 594 658 561 c 128,-1,72
 641 528 641 528 641 491 c 2,73,-1
 641 386 l 1,0,-1
580 491 m 2,74,75
 580 528 580 528 563 561 c 128,-1,76
 546 594 546 594 515.5 618 c 128,-1,77
 485 642 485 642 444.5 656.5 c 128,-1,78
 404 671 404 671 357 671 c 256,79,80
 311 671 311 671 271 656.5 c 128,-1,81
 231 642 231 642 200.5 618 c 128,-1,82
 170 594 170 594 153 561 c 128,-1,83
 136 528 136 528 136 491 c 2,84,-1
 136 226 l 2,85,86
 136 190 136 190 153 157 c 128,-1,87
 170 124 170 124 200.5 99 c 128,-1,88
 231 74 231 74 271 59.5 c 128,-1,89
 311 45 311 45 357 45 c 256,90,91
 404 45 404 45 444.5 59.5 c 128,-1,92
 485 74 485 74 515.5 99 c 128,-1,93
 546 124 546 124 563 157 c 128,-1,94
 580 190 580 190 580 226 c 2,95,-1
 580 491 l 2,74,75
EndSplineSet
EndChar
StartChar: oe
Encoding: 339 339 196
Width: 910
VWidth: 1507
Flags: W
HStem: -9 50<196.317 339.8 544.426 692.39> 267 50<482 781> 470 50<221.784 340.219 570.376 688.799>
VStem: 75 55<98.1992 374.367> 428 54<134.553 161 161 267 317 373.652> 781 54<317 373.652>
Fore
482 161 m 2,0,1
 482 113 482 113 524.5 77 c 128,-1,2
 567 41 567 41 632 41 c 0,3,4
 663 41 663 41 691 50.5 c 128,-1,5
 719 60 719 60 738.5 77.5 c 128,-1,6
 758 95 758 95 769.5 117 c 128,-1,7
 781 139 781 139 781 163 c 1,8,9
 790 163 790 163 799 157.5 c 128,-1,10
 808 152 808 152 814.5 144 c 128,-1,11
 821 136 821 136 823.5 124 c 128,-1,12
 826 112 826 112 820 98 c 0,13,14
 797 50 797 50 746.5 20.5 c 128,-1,15
 696 -9 696 -9 632 -9 c 0,16,17
 574 -9 574 -9 526.5 14.5 c 128,-1,18
 479 38 479 38 454 77 c 1,19,20
 428 38 428 38 382 14.5 c 128,-1,21
 336 -9 336 -9 279 -9 c 0,22,23
 237 -9 237 -9 200 4.5 c 128,-1,24
 163 18 163 18 135 40.5 c 128,-1,25
 107 63 107 63 91 94 c 128,-1,26
 75 125 75 125 75 161 c 2,27,-1
 75 348 l 2,28,29
 75 384 75 384 91 415 c 128,-1,30
 107 446 107 446 135 469.5 c 128,-1,31
 163 493 163 493 200 506.5 c 128,-1,32
 237 520 237 520 279 520 c 0,33,34
 336 520 336 520 383 496.5 c 128,-1,35
 430 473 430 473 455 434 c 1,36,37
 481 473 481 473 527.5 496.5 c 128,-1,38
 574 520 574 520 632 520 c 0,39,40
 674 520 674 520 711 506.5 c 128,-1,41
 748 493 748 493 775.5 469.5 c 128,-1,42
 803 446 803 446 819 415 c 128,-1,43
 835 384 835 384 835 348 c 2,44,-1
 835 294 l 2,45,46
 835 282 835 282 826.5 274.5 c 128,-1,47
 818 267 818 267 808 267 c 2,48,-1
 482 267 l 1,49,-1
 482 161 l 2,0,1
279 470 m 256,50,51
 247 470 247 470 219 460.5 c 128,-1,52
 191 451 191 451 171.5 433.5 c 128,-1,53
 152 416 152 416 141 394 c 128,-1,54
 130 372 130 372 130 348 c 2,55,-1
 130 161 l 2,56,57
 130 113 130 113 172 77 c 128,-1,58
 214 41 214 41 279 41 c 0,59,60
 311 41 311 41 338 50.5 c 128,-1,61
 365 60 365 60 385 76 c 128,-1,62
 405 92 405 92 416.5 114 c 128,-1,63
 428 136 428 136 428 161 c 2,64,-1
 428 348 l 2,65,66
 428 372 428 372 416.5 394 c 128,-1,67
 405 416 405 416 385.5 433.5 c 128,-1,68
 366 451 366 451 338.5 460.5 c 128,-1,69
 311 470 311 470 279 470 c 256,50,51
482 317 m 1,70,-1
 781 317 l 1,71,-1
 781 348 l 2,72,73
 781 372 781 372 769.5 394 c 128,-1,74
 758 416 758 416 738.5 433.5 c 128,-1,75
 719 451 719 451 691 460.5 c 128,-1,76
 663 470 663 470 632 470 c 256,77,78
 600 470 600 470 572 460.5 c 128,-1,79
 544 451 544 451 524.5 433.5 c 128,-1,80
 505 416 505 416 493.5 394 c 128,-1,81
 482 372 482 372 482 348 c 2,82,-1
 482 317 l 1,70,-1
EndSplineSet
EndChar
StartChar: florin
Encoding: 402 402 202
Width: 575
VWidth: 1507
Flags: W
HStem: -80 45<48 72.7975 72.7975 76.9077 74.8526 149.414> 387 49<132.672 240 303 454.21> 677 50<387.026 484.469>
Fore
528 657 m 1,0,1
 511 666 511 666 489 671.5 c 128,-1,2
 467 677 467 677 449 677 c 0,3,4
 415 677 415 677 390 661 c 128,-1,5
 365 645 365 645 347.5 618.5 c 128,-1,6
 330 592 330 592 321 558.5 c 128,-1,7
 312 525 312 525 309 487 c 2,8,-1
 303 436 l 1,9,-1
 460 436 l 1,10,11
 460 387 460 387 411 387 c 2,12,-1
 298 387 l 1,13,14
 294 342 294 342 288 300 c 0,15,16
 283 264 283 264 279.5 224.5 c 128,-1,17
 276 185 276 185 273 158 c 0,18,19
 261 47 261 47 218.5 -19.5 c 128,-1,20
 176 -86 176 -86 89 -86 c 0,21,22
 66 -86 66 -86 48 -80 c 0,23,24
 30 -72 30 -72 22.5 -58 c 128,-1,25
 15 -44 15 -44 24 -21 c 1,26,27
 44 -32 44 -32 59 -35 c 128,-1,28
 74 -38 74 -38 95 -38 c 0,29,30
 124 -38 124 -38 145 -23.5 c 128,-1,31
 166 -9 166 -9 179.5 15 c 128,-1,32
 193 39 193 39 201.5 70 c 128,-1,33
 210 101 210 101 213 133 c 2,34,-1
 240 387 l 1,35,-1
 127 387 l 1,36,37
 127 436 127 436 175 436 c 2,38,-1
 246 436 l 1,39,40
 247 449 247 449 248.5 462 c 128,-1,41
 250 475 250 475 252 488 c 0,42,43
 264 594 264 594 313.5 660.5 c 128,-1,44
 363 727 363 727 457 727 c 0,45,46
 488 727 488 727 509 716 c 0,47,48
 549 696 549 696 528 657 c 1,0,1
EndSplineSet
EndChar
StartChar: circumflex
Encoding: 710 710 203
Width: 461
VWidth: 1507
Flags: W
HStem: 565 155
VStem: 84 293<577 577 577 577>
Fore
231 720 m 256,0,1
 241 720 241 720 249 713 c 2,2,-1
 377 577 l 1,3,4
 360 565 360 565 340.5 565 c 128,-1,5
 321 565 321 565 309 577 c 2,6,-1
 231 660 l 1,7,-1
 152 577 l 2,8,9
 140 565 140 565 120.5 565 c 128,-1,10
 101 565 101 565 84 577 c 1,11,-1
 213 713 l 2,12,13
 220 720 220 720 231 720 c 256,0,1
EndSplineSet
EndChar
StartChar: breve
Encoding: 728 728 205
Width: 452
VWidth: 1507
Flags: W
HStem: 562 51<173.973 277.361> 705 20G<102.5 113 339 349.5>
VStem: 339 50<656.473 687 687 713.14>
Fore
226 562 m 0,0,1
 200 562 200 562 172.5 570.5 c 128,-1,2
 145 579 145 579 120.5 594.5 c 128,-1,3
 96 610 96 610 80.5 633.5 c 128,-1,4
 65 657 65 657 63 687 c 0,5,6
 62 702 62 702 77 713.5 c 128,-1,7
 92 725 92 725 113 725 c 1,8,9
 113 677 113 677 144.5 645 c 128,-1,10
 176 613 176 613 226 613 c 256,11,12
 276 613 276 613 307.5 645 c 128,-1,13
 339 677 339 677 339 725 c 1,14,15
 360 725 360 725 375 713.5 c 128,-1,16
 390 702 390 702 389 687 c 0,17,18
 387 657 387 657 371.5 633.5 c 128,-1,19
 356 610 356 610 331.5 594.5 c 128,-1,20
 307 579 307 579 278.5 570.5 c 128,-1,21
 250 562 250 562 226 562 c 0,0,1
EndSplineSet
EndChar
StartChar: dotaccent
Encoding: 729 729 206
Width: 238
VWidth: 1507
Flags: W
HStem: 642 109<80.4709 157.529>
VStem: 65 108<658.501 733.468>
Fore
65 696 m 0,0,1
 65 717 65 717 80 734 c 128,-1,2
 95 751 95 751 119 751 c 256,3,4
 143 751 143 751 158 734 c 128,-1,5
 173 717 173 717 173 696 c 0,6,7
 173 674 173 674 158 658 c 128,-1,8
 143 642 143 642 119 642 c 256,9,10
 95 642 95 642 80 658 c 128,-1,11
 65 674 65 674 65 696 c 0,0,1
EndSplineSet
EndChar
StartChar: ring
Encoding: 730 730 207
Width: 419
VWidth: 1507
Flags: W
HStem: 595 37<162.608 256.163> 757 36<162.129 255.483>
VStem: 109 37<648.544 739.431> 273 36<648.941 738.155>
Fore
109 695 m 0,0,1
 109 730 109 730 136 761.5 c 128,-1,2
 163 793 163 793 210 793 c 0,3,4
 255 793 255 793 282 761.5 c 128,-1,5
 309 730 309 730 309 695 c 0,6,7
 309 651 309 651 281 623 c 128,-1,8
 253 595 253 595 210 595 c 128,-1,9
 167 595 167 595 138 624 c 128,-1,10
 109 653 109 653 109 695 c 0,0,1
146 695 m 0,11,12
 146 668 146 668 164 650 c 128,-1,13
 182 632 182 632 210 632 c 256,14,15
 237 632 237 632 255 650 c 128,-1,16
 273 668 273 668 273 695 c 0,17,18
 273 716 273 716 255.5 736.5 c 128,-1,19
 238 757 238 757 210 757 c 0,20,21
 179 757 179 757 162.5 737 c 128,-1,22
 146 717 146 717 146 695 c 0,11,12
EndSplineSet
EndChar
StartChar: tilde
Encoding: 732 732 209
Width: 351
VWidth: 1507
Flags: W
HStem: 597 47<215.239 276.962> 668 46<72.0631 134.87>
VStem: 21 308<638 641 671 674 641 671 641 641>
Fore
191 674 m 0,0,1
 205 662 205 662 218.5 653 c 128,-1,2
 232 644 232 644 249 644 c 256,3,4
 265 644 265 644 277 665 c 128,-1,5
 289 686 289 686 277 711 c 1,6,7
 304 720 304 720 318 704.5 c 128,-1,8
 332 689 332 689 329 671 c 0,9,10
 324 638 324 638 303 617.5 c 128,-1,11
 282 597 282 597 249 597 c 0,12,13
 219 597 219 597 199 609 c 128,-1,14
 179 621 179 621 158 638 c 0,15,16
 146 650 146 650 132 659 c 128,-1,17
 118 668 118 668 101 668 c 256,18,19
 84 668 84 668 72 647 c 128,-1,20
 60 626 60 626 72 600 c 1,21,22
 47 589 47 589 32.5 606 c 128,-1,23
 18 623 18 623 21 641 c 0,24,25
 27 674 27 674 48 694 c 128,-1,26
 69 714 69 714 101 714 c 256,27,28
 133 714 133 714 151.5 702 c 128,-1,29
 170 690 170 690 191 674 c 0,0,1
EndSplineSet
EndChar
StartChar: uni0E01
Encoding: 3585 3585 212
Width: 630
VWidth: 1507
Flags: W
HStem: -9 21G<163 175 482 494> 555 51<238.008 340.607>
VStem: 60 58<406.424 466.702> 118 57<9.5647 295.404> 482 58<9.5647 460.156>
Fore
118 291 m 1,0,1
 115 294 115 294 105.5 310.5 c 128,-1,2
 96 327 96 327 87 345 c 0,3,4
 75 366 75 366 63 392 c 0,5,6
 60 401 60 401 60 405 c 0,7,8
 60 451 60 451 81 488 c 128,-1,9
 102 525 102 525 136 551 c 128,-1,10
 170 577 170 577 213 591.5 c 128,-1,11
 256 606 256 606 300 606 c 0,12,13
 342 606 342 606 385 592.5 c 128,-1,14
 428 579 428 579 462 553.5 c 128,-1,15
 496 528 496 528 518 490 c 128,-1,16
 540 452 540 452 540 405 c 2,17,-1
 540 54 l 2,18,19
 540 27 540 27 523 9 c 128,-1,20
 506 -9 506 -9 482 -9 c 1,21,-1
 482 405 l 2,22,23
 482 434 482 434 468 461 c 128,-1,24
 454 488 454 488 429 509.5 c 128,-1,25
 404 531 404 531 371 543 c 128,-1,26
 338 555 338 555 300 555 c 0,27,28
 264 555 264 555 231.5 543.5 c 128,-1,29
 199 532 199 532 174 512.5 c 128,-1,30
 149 493 149 493 134 467.5 c 128,-1,31
 119 442 119 442 118 413 c 1,32,33
 121 408 121 408 128.5 391.5 c 128,-1,34
 136 375 136 375 146 357 c 0,35,36
 157 336 157 336 172 312 c 1,37,38
 175 303 175 303 175 298 c 2,39,-1
 175 -9 l 1,40,41
 151 -9 151 -9 134.5 9 c 128,-1,42
 118 27 118 27 118 54 c 2,43,-1
 118 291 l 1,0,1
EndSplineSet
EndChar
StartChar: uni0E02
Encoding: 3586 3586 213
Width: 604
VWidth: 1507
Flags: W
HStem: -9 51<302.214 404.245> 312 45<102.494 177.156> 454 39<112.347 177.156> 555 51<136.424 245.63>
VStem: 33 59<367.463 471.053> 188 46<367.42 443.281> 193 57<77.8452 248.357> 314 57<377.287 482.819> 457 57<77.8452 584.92>
Fore
457 541 m 2,0,1
 457 567 457 567 473.5 585.5 c 128,-1,2
 490 604 490 604 514 604 c 1,3,-1
 514 137 l 2,4,5
 514 104 514 104 501 77 c 128,-1,6
 488 50 488 50 465.5 31 c 128,-1,7
 443 12 443 12 413.5 1.5 c 128,-1,8
 384 -9 384 -9 353 -9 c 256,9,10
 321 -9 321 -9 292.5 1.5 c 128,-1,11
 264 12 264 12 241.5 31 c 128,-1,12
 219 50 219 50 206 77 c 128,-1,13
 193 104 193 104 193 137 c 2,14,-1
 193 166 l 2,15,16
 193 222 193 222 218.5 268 c 128,-1,17
 244 314 244 314 279 357 c 0,18,19
 314 399 314 399 314 437 c 0,20,21
 314 460 314 460 304.5 481 c 128,-1,22
 295 502 295 502 280 518.5 c 128,-1,23
 265 535 265 535 245 545 c 128,-1,24
 225 555 225 555 202 555 c 0,25,26
 163 555 163 555 134.5 534.5 c 128,-1,27
 106 514 106 514 92 484 c 1,28,29
 77 469 77 469 71 454 c 1,30,-1
 72 449 l 1,31,32
 80 470 80 470 100.5 481.5 c 128,-1,33
 121 493 121 493 140 493 c 0,34,35
 179 493 179 493 206.5 468 c 128,-1,36
 234 443 234 443 234 405 c 0,37,38
 234 366 234 366 206.5 339 c 128,-1,39
 179 312 179 312 140 312 c 0,40,41
 92 312 92 312 62.5 349.5 c 128,-1,42
 33 387 33 387 33 437 c 0,43,44
 33 472 33 472 46.5 503 c 128,-1,45
 60 534 60 534 83 556.5 c 128,-1,46
 106 579 106 579 136.5 592.5 c 128,-1,47
 167 606 167 606 202 606 c 256,48,49
 237 606 237 606 267.5 592.5 c 128,-1,50
 298 579 298 579 321 556.5 c 128,-1,51
 344 534 344 534 357.5 503 c 128,-1,52
 371 472 371 472 371 437 c 0,53,54
 371 407 371 407 355 378.5 c 128,-1,55
 339 350 339 350 317 321 c 0,56,57
 289 286 289 286 270.5 249.5 c 128,-1,58
 252 213 252 213 250 166 c 2,59,-1
 250 137 l 2,60,61
 250 95 250 95 280.5 68.5 c 128,-1,62
 311 42 311 42 353 42 c 256,63,64
 395 42 395 42 426 67.5 c 128,-1,65
 457 93 457 93 457 137 c 2,66,-1
 457 541 l 2,0,1
92 405 m 256,67,68
 92 384 92 384 105.5 370.5 c 128,-1,69
 119 357 119 357 140 357 c 256,70,71
 161 357 161 357 174.5 370.5 c 128,-1,72
 188 384 188 384 188 405 c 256,73,74
 188 427 188 427 174.5 440.5 c 128,-1,75
 161 454 161 454 140 454 c 256,76,77
 119 454 119 454 105.5 440.5 c 128,-1,78
 92 427 92 427 92 405 c 256,67,68
EndSplineSet
EndChar
StartChar: uni0E03
Encoding: 3587 3587 214
Width: 604
VWidth: 1507
Flags: W
HStem: -9 51<302.214 404.245> 312 45<102.494 177.156> 454 39<112.347 177.156> 586 20G<129.5 163.5 245.5 266.5 502 514>
VStem: 33 59<367.463 467.827> 188 46<367.42 443.281> 193 57<77.8452 166 166 248.357> 314 57<377.287 474.108> 457 57<77.8452 584.92>
Fore
92 405 m 256,0,1
 92 384 92 384 105.5 370.5 c 128,-1,2
 119 357 119 357 140 357 c 256,3,4
 161 357 161 357 174.5 370.5 c 128,-1,5
 188 384 188 384 188 405 c 256,6,7
 188 427 188 427 174.5 440.5 c 128,-1,8
 161 454 161 454 140 454 c 256,9,10
 119 454 119 454 105.5 440.5 c 128,-1,11
 92 427 92 427 92 405 c 256,0,1
140 493 m 0,12,13
 179 493 179 493 206.5 468 c 128,-1,14
 234 443 234 443 234 405 c 0,15,16
 234 366 234 366 206.5 339 c 128,-1,17
 179 312 179 312 140 312 c 0,18,19
 92 312 92 312 62.5 349.5 c 128,-1,20
 33 387 33 387 33 437 c 0,21,22
 33 467 33 467 40.5 496.5 c 128,-1,23
 48 526 48 526 65 549 c 0,24,25
 102 606 102 606 157 606 c 0,26,27
 170 606 170 606 181.5 594 c 128,-1,28
 193 582 193 582 205 571 c 1,29,30
 214 579 214 579 226 592.5 c 128,-1,31
 238 606 238 606 253 606 c 0,32,33
 280 606 280 606 302 591 c 128,-1,34
 324 576 324 576 339 552.5 c 128,-1,35
 354 529 354 529 362.5 499 c 128,-1,36
 371 469 371 469 371 437 c 0,37,38
 371 407 371 407 355 378.5 c 128,-1,39
 339 350 339 350 317 321 c 0,40,41
 289 286 289 286 270.5 249.5 c 128,-1,42
 252 213 252 213 250 166 c 2,43,-1
 250 137 l 2,44,45
 250 95 250 95 280.5 68.5 c 128,-1,46
 311 42 311 42 353 42 c 256,47,48
 395 42 395 42 426 67.5 c 128,-1,49
 457 93 457 93 457 137 c 2,50,-1
 457 541 l 2,51,52
 457 567 457 567 473.5 585.5 c 128,-1,53
 490 604 490 604 514 604 c 1,54,-1
 514 137 l 2,55,56
 514 104 514 104 501 77 c 128,-1,57
 488 50 488 50 465.5 31 c 128,-1,58
 443 12 443 12 413.5 1.5 c 128,-1,59
 384 -9 384 -9 353 -9 c 256,60,61
 321 -9 321 -9 292.5 1.5 c 128,-1,62
 264 12 264 12 241.5 31 c 128,-1,63
 219 50 219 50 206 77 c 128,-1,64
 193 104 193 104 193 137 c 2,65,-1
 193 166 l 2,66,67
 193 222 193 222 218.5 268 c 128,-1,68
 244 314 244 314 279 357 c 0,69,70
 314 399 314 399 314 437 c 0,71,72
 314 455 314 455 310 474 c 128,-1,73
 306 493 306 493 299 510.5 c 128,-1,74
 292 528 292 528 283 540 c 128,-1,75
 274 552 274 552 264 556 c 1,76,77
 258 552 258 552 255 549 c 0,78,-1
 240 534 l 256,79,80
 234 528 234 528 225 520 c 0,81,82
 217 512 217 512 205 512 c 128,-1,83
 193 512 193 512 185 520 c 0,84,85
 176 528 176 528 170 534 c 256,86,87
 164 540 164 540 157.5 546 c 128,-1,88
 151 552 151 552 146 556 c 1,89,90
 130 550 130 550 114.5 531 c 128,-1,91
 99 512 99 512 90 482 c 1,92,93
 77 469 77 469 71 454 c 1,94,-1
 72 449 l 1,95,96
 80 470 80 470 100.5 481.5 c 128,-1,97
 121 493 121 493 140 493 c 0,12,13
EndSplineSet
EndChar
StartChar: uni0E04
Encoding: 3588 3588 215
Width: 660
VWidth: 1507
Flags: W
HStem: -9 21G<136 155.584 512 524.5> 262 45<292.729 367.336> 404 45<292.683 367.336> 555 51<267.69 370.544>
VStem: 90 58<151 405 405 460.156> 378 46<318.095 393.58> 512 58<9.5647 460.156>
Fore
330 606 m 0,0,1
 372 606 372 606 414.5 592.5 c 128,-1,2
 457 579 457 579 491.5 552.5 c 128,-1,3
 526 526 526 526 548 489 c 128,-1,4
 570 452 570 452 570 405 c 2,5,-1
 570 54 l 2,6,7
 570 27 570 27 553.5 9 c 128,-1,8
 537 -9 537 -9 512 -9 c 1,9,-1
 512 405 l 2,10,11
 512 434 512 434 498 461 c 128,-1,12
 484 488 484 488 459 509.5 c 128,-1,13
 434 531 434 531 401 543 c 128,-1,14
 368 555 368 555 330 555 c 256,15,16
 292 555 292 555 259 543 c 128,-1,17
 226 531 226 531 201 509.5 c 128,-1,18
 176 488 176 488 162 461 c 128,-1,19
 148 434 148 434 148 405 c 2,20,-1
 148 151 l 1,21,-1
 134 110 l 1,22,-1
 136 106 l 1,23,-1
 244 392 l 2,24,25
 253 418 253 418 276.5 433.5 c 128,-1,26
 300 449 300 449 330 449 c 0,27,28
 368 449 368 449 396 422 c 128,-1,29
 424 395 424 395 424 356 c 256,30,31
 424 317 424 317 396 289.5 c 128,-1,32
 368 262 368 262 330 262 c 0,33,34
 270 262 270 262 252 320 c 1,35,-1
 250 315 l 1,36,37
 253 300 253 300 261 289 c 1,38,-1
 148 -9 l 1,39,40
 124 -9 124 -9 107 9 c 128,-1,41
 90 27 90 27 90 54 c 2,42,-1
 90 405 l 2,43,44
 90 451 90 451 111.5 488 c 128,-1,45
 133 525 133 525 166.5 551 c 128,-1,46
 200 577 200 577 243 591.5 c 128,-1,47
 286 606 286 606 330 606 c 0,0,1
282 356 m 256,48,49
 282 335 282 335 295.5 321 c 128,-1,50
 309 307 309 307 330 307 c 256,51,52
 351 307 351 307 364.5 321 c 128,-1,53
 378 335 378 335 378 356 c 256,54,55
 378 377 378 377 364.5 390.5 c 128,-1,56
 351 404 351 404 330 404 c 256,57,58
 309 404 309 404 295.5 390.5 c 128,-1,59
 282 377 282 377 282 356 c 256,48,49
EndSplineSet
EndChar
StartChar: uni0E05
Encoding: 3589 3589 216
Width: 660
VWidth: 1507
Flags: W
HStem: -9 21G<136 155.93 512 524.5> 249 45<292.729 367.156> 390 46<292.517 367.156> 586 20G<231.5 248 412.5 429>
VStem: 90 58<151 465.972> 378 46<304.42 379.156> 512 58<9.5647 465.972>
Fore
282 342 m 256,0,1
 282 321 282 321 295.5 307.5 c 128,-1,2
 309 294 309 294 330 294 c 256,3,4
 351 294 351 294 364.5 307.5 c 128,-1,5
 378 321 378 321 378 342 c 256,6,7
 378 363 378 363 364.5 376.5 c 128,-1,8
 351 390 351 390 330 390 c 256,9,10
 309 390 309 390 295.5 376.5 c 128,-1,11
 282 363 282 363 282 342 c 256,0,1
244 378 m 2,12,13
 255 404 255 404 278 420 c 128,-1,14
 301 436 301 436 330 436 c 0,15,16
 369 436 369 436 396.5 408.5 c 128,-1,17
 424 381 424 381 424 342 c 256,18,19
 424 303 424 303 396.5 276 c 128,-1,20
 369 249 369 249 330 249 c 0,21,22
 270 249 270 249 252 306 c 1,23,-1
 250 301 l 1,24,25
 253 286 253 286 261 276 c 1,26,-1
 148 -9 l 1,27,28
 124 -9 124 -9 107 9 c 128,-1,29
 90 27 90 27 90 54 c 2,30,-1
 90 434 l 2,31,32
 90 475 90 475 105.5 507.5 c 128,-1,33
 121 540 121 540 143.5 561.5 c 128,-1,34
 166 583 166 583 193 594.5 c 128,-1,35
 220 606 220 606 243 606 c 0,36,37
 253 606 253 606 261 598 c 0,38,39
 274 586 274 586 288 577 c 0,40,41
 300 568 300 568 311.5 560 c 128,-1,42
 323 552 323 552 330 544 c 1,43,44
 338 552 338 552 350 560 c 128,-1,45
 362 568 362 568 374 577 c 0,46,47
 387 586 387 586 399 598 c 0,48,49
 407 606 407 606 418 606 c 0,50,51
 440 606 440 606 467 594.5 c 128,-1,52
 494 583 494 583 517 561.5 c 128,-1,53
 540 540 540 540 555 507.5 c 128,-1,54
 570 475 570 475 570 434 c 2,55,-1
 570 54 l 2,56,57
 570 27 570 27 553.5 9 c 128,-1,58
 537 -9 537 -9 512 -9 c 1,59,-1
 512 434 l 2,60,61
 512 460 512 460 504 481 c 128,-1,62
 496 502 496 502 483 517 c 128,-1,63
 470 532 470 532 455 541 c 128,-1,64
 440 550 440 550 427 553 c 1,65,66
 421 549 421 549 408 538.5 c 128,-1,67
 395 528 395 528 381 517 c 0,68,69
 365 505 365 505 348 491 c 0,70,71
 330 476 330 476 312 491 c 0,72,73
 295 505 295 505 279 517 c 0,74,75
 265 528 265 528 252.5 538.5 c 128,-1,76
 240 549 240 549 234 553 c 1,77,78
 220 550 220 550 205 541 c 128,-1,79
 190 532 190 532 177 517 c 128,-1,80
 164 502 164 502 156 481 c 128,-1,81
 148 460 148 460 148 434 c 2,82,-1
 148 151 l 1,83,-1
 134 110 l 1,84,-1
 136 106 l 1,85,-1
 244 378 l 2,12,13
EndSplineSet
EndChar
StartChar: uni0E06
Encoding: 3590 3590 217
Width: 691
VWidth: 1507
Flags: W
HStem: -9 45<116.634 193.641> 139 45<116.634 182.093> 312 45<102.494 177.156> 454 39<112.347 177.156> 586 20G<129.5 163.5 245.5 266.5 589 601>
VStem: 33 59<367.463 467.827> 59 45<48.6335 126.468> 188 46<367.42 443.281> 206 46<51.4702 94.3557> 314 57<377.287 474.108> 544 57<51.4885 584.92>
Fore
90 482 m 1,0,1
 77 469 77 469 71 454 c 1,2,-1
 72 449 l 1,3,4
 80 470 80 470 100.5 481.5 c 128,-1,5
 121 493 121 493 140 493 c 0,6,7
 179 493 179 493 206.5 468 c 128,-1,8
 234 443 234 443 234 405 c 0,9,10
 234 366 234 366 206.5 339 c 128,-1,11
 179 312 179 312 140 312 c 0,12,13
 92 312 92 312 62.5 349.5 c 128,-1,14
 33 387 33 387 33 437 c 0,15,16
 33 467 33 467 40.5 496.5 c 128,-1,17
 48 526 48 526 65 549 c 0,18,19
 102 606 102 606 157 606 c 0,20,21
 170 606 170 606 181.5 594 c 128,-1,22
 193 582 193 582 205 571 c 1,23,24
 214 579 214 579 226 592.5 c 128,-1,25
 238 606 238 606 253 606 c 0,26,27
 280 606 280 606 302 591 c 128,-1,28
 324 576 324 576 339 552.5 c 128,-1,29
 354 529 354 529 362.5 499 c 128,-1,30
 371 469 371 469 371 437 c 0,31,32
 371 407 371 407 355 378.5 c 128,-1,33
 339 350 339 350 317 321 c 0,34,35
 291 291 291 291 270.5 252 c 128,-1,36
 250 213 250 213 250 172 c 0,37,38
 250 161 250 161 252 155 c 1,39,-1
 544 51 l 1,40,-1
 544 541 l 2,41,42
 544 567 544 567 560.5 585.5 c 128,-1,43
 577 604 577 604 601 604 c 1,44,-1
 601 54 l 2,45,46
 601 27 601 27 584.5 9 c 128,-1,47
 568 -9 568 -9 544 -9 c 1,48,-1
 252 95 l 1,49,-1
 252 87 l 2,50,51
 252 47 252 47 223 19 c 128,-1,52
 194 -9 194 -9 155 -9 c 0,53,54
 115 -9 115 -9 87 19 c 128,-1,55
 59 47 59 47 59 87 c 128,-1,56
 59 127 59 127 87 155.5 c 128,-1,57
 115 184 115 184 155 184 c 0,58,59
 163 184 163 184 174 181.5 c 128,-1,60
 185 179 185 179 193 175 c 1,61,62
 196 228 196 228 221 271 c 128,-1,63
 246 314 246 314 279 357 c 0,64,65
 314 399 314 399 314 437 c 0,66,67
 314 455 314 455 310 474 c 128,-1,68
 306 493 306 493 299 510.5 c 128,-1,69
 292 528 292 528 283 540 c 128,-1,70
 274 552 274 552 264 556 c 1,71,72
 258 552 258 552 255 549 c 0,73,74
 240 534 l 256,75,76
 234 528 234 528 225 520 c 0,77,78
 217 512 217 512 205 512 c 128,-1,79
 193 512 193 512 185 520 c 0,80,81
 176 528 176 528 170 534 c 256,82,83
 164 540 164 540 157.5 546 c 128,-1,84
 151 552 151 552 146 556 c 1,85,86
 130 550 130 550 114.5 531 c 128,-1,87
 99 512 99 512 90 482 c 1,0,1
92 405 m 256,88,89
 92 384 92 384 105.5 370.5 c 128,-1,90
 119 357 119 357 140 357 c 256,91,92
 161 357 161 357 174.5 370.5 c 128,-1,93
 188 384 188 384 188 405 c 256,94,95
 188 427 188 427 174.5 440.5 c 128,-1,96
 161 454 161 454 140 454 c 256,97,98
 119 454 119 454 105.5 440.5 c 128,-1,99
 92 427 92 427 92 405 c 256,88,89
104 87 m 256,100,101
 104 66 104 66 119 51 c 128,-1,102
 134 36 134 36 155 36 c 256,103,104
 176 36 176 36 191 51 c 128,-1,105
 206 66 206 66 206 87 c 256,106,107
 206 109 206 109 191 124 c 128,-1,108
 176 139 176 139 155 139 c 256,109,110
 134 139 134 139 119 124 c 128,-1,111
 104 109 104 109 104 87 c 256,100,101
EndSplineSet
EndChar
StartChar: uni0E07
Encoding: 3591 3591 218
Width: 545
VWidth: 1507
Flags: W
HStem: -9 21G<379.941 410> 421 43<325.611 399.086> 561 45<325.101 399.58>
VStem: 268 46<475.596 549.981> 398 57<77 421> 410 45<478.954 547.076>
Fore
362 606 m 256,0,1
 401 606 401 606 428 579 c 128,-1,2
 455 552 455 552 455 512 c 2,3,-1
 455 54 l 2,4,5
 455 27 455 27 438.5 9 c 128,-1,6
 422 -9 422 -9 398 -9 c 1,7,-1
 63 362 l 2,8,9
 47 378 47 378 47 401 c 128,-1,10
 47 424 47 424 63 440 c 1,11,-1
 415 51 l 1,12,-1
 416 56 l 1,13,-1
 398 77 l 1,14,-1
 398 421 l 1,15,16
 413 430 413 430 422 445 c 1,17,-1
 421 449 l 1,18,19
 402 421 402 421 362 421 c 0,20,21
 323 421 323 421 295.5 447 c 128,-1,22
 268 473 268 473 268 512 c 256,23,24
 268 552 268 552 295.5 579 c 128,-1,25
 323 606 323 606 362 606 c 256,0,1
362 464 m 0,26,27
 383 464 383 464 396.5 478.5 c 128,-1,28
 410 493 410 493 410 512 c 0,29,30
 410 534 410 534 396.5 547.5 c 128,-1,31
 383 561 383 561 362 561 c 0,32,33
 342 561 342 561 328 547.5 c 128,-1,34
 314 534 314 534 314 512 c 0,35,36
 314 493 314 493 328 478.5 c 128,-1,37
 342 464 342 464 362 464 c 0,26,27
EndSplineSet
EndChar
StartChar: uni0E08
Encoding: 3592 3592 219
Width: 587
VWidth: 1507
Flags: W
HStem: -9 21G<433.061 452> 264 45<233.42 309.104> 405 46<233.42 309.214> 555 51<204.979 328.474>
VStem: 178 45<319.42 394.156> 440 57<148.882 160 160 462.155>
Fore
223 357 m 256,0,1
 223 336 223 336 236.5 322.5 c 128,-1,2
 250 309 250 309 271 309 c 256,3,4
 292 309 292 309 306 322.5 c 128,-1,5
 320 336 320 336 320 357 c 256,6,7
 320 378 320 378 306 391.5 c 128,-1,8
 292 405 292 405 271 405 c 256,9,10
 250 405 250 405 236.5 391.5 c 128,-1,11
 223 378 223 378 223 357 c 256,0,1
338 285 m 1,12,13
 347 297 347 297 350 311 c 1,14,-1
 348 315 l 1,15,16
 341 289 341 289 319.5 276.5 c 128,-1,17
 298 264 298 264 271 264 c 0,18,19
 232 264 232 264 205 291 c 128,-1,20
 178 318 178 318 178 357 c 256,21,22
 178 396 178 396 205 423.5 c 128,-1,23
 232 451 232 451 271 451 c 0,24,25
 303 451 303 451 327 432 c 128,-1,26
 351 413 351 413 360 384 c 2,27,-1
 455 101 l 1,28,-1
 457 106 l 1,29,-1
 440 160 l 1,30,-1
 440 405 l 2,31,32
 440 436 440 436 426.5 463 c 128,-1,33
 413 490 413 490 389.5 510.5 c 128,-1,34
 366 531 366 531 333.5 543 c 128,-1,35
 301 555 301 555 265 555 c 256,36,37
 229 555 229 555 196.5 543 c 128,-1,38
 164 531 164 531 141 510.5 c 128,-1,39
 118 490 118 490 104 463 c 128,-1,40
 90 436 90 436 90 405 c 0,41,42
 90 396 90 396 90 391 c 128,-1,43
 90 386 90 386 92 377 c 1,44,45
 68 377 68 377 50 393.5 c 128,-1,46
 32 410 32 410 35 434 c 0,47,48
 41 470 41 470 61 502 c 128,-1,49
 81 534 81 534 111.5 557 c 128,-1,50
 142 580 142 580 181 593 c 128,-1,51
 220 606 220 606 265 606 c 0,52,53
 314 606 314 606 356 590 c 128,-1,54
 398 574 398 574 429.5 547 c 128,-1,55
 461 520 461 520 479 484 c 128,-1,56
 497 448 497 448 497 405 c 2,57,-1
 497 54 l 2,58,59
 497 29 497 29 480.5 10 c 128,-1,60
 464 -9 464 -9 440 -9 c 1,61,-1
 338 285 l 1,12,13
EndSplineSet
EndChar
StartChar: uni0E09
Encoding: 3593 3593 220
Width: 625
VWidth: 1507
Flags: W
HStem: -9 45<445.435 522.557> 185 46<116.844 191.514> 327 45<116.844 191.58> 555 51<232.097 313.107>
VStem: 60 46<241.844 316.58> 190 57<54 185> 202 45<244.924 313.076> 455 57<200.684 460.156> 535 45<48.6335 126.636>
Fore
190 185 m 1,0,1
 205 194 205 194 214 210 c 1,2,-1
 213 214 l 1,3,4
 194 185 194 185 154 185 c 0,5,6
 115 185 115 185 87.5 212.5 c 128,-1,7
 60 240 60 240 60 279 c 256,8,9
 60 318 60 318 87.5 345 c 128,-1,10
 115 372 115 372 154 372 c 256,11,12
 193 372 193 372 220 345 c 128,-1,13
 247 318 247 318 247 279 c 2,14,-1
 247 54 l 1,15,-1
 413 157 l 2,16,17
 433 169 433 169 444 186 c 128,-1,18
 455 203 455 203 455 219 c 2,19,-1
 455 405 l 2,20,21
 455 434 455 434 441 461 c 128,-1,22
 427 488 427 488 402 509.5 c 128,-1,23
 377 531 377 531 344 543 c 128,-1,24
 311 555 311 555 273 555 c 256,25,26
 235 555 235 555 202 543 c 128,-1,27
 169 531 169 531 144 509.5 c 128,-1,28
 119 488 119 488 104.5 461 c 128,-1,29
 90 434 90 434 90 405 c 1,30,31
 60 404 60 404 46 424.5 c 128,-1,32
 32 445 32 445 44 470 c 0,33,34
 57 502 57 502 81.5 527 c 128,-1,35
 106 552 106 552 136.5 570 c 128,-1,36
 167 588 167 588 202.5 597 c 128,-1,37
 238 606 238 606 273 606 c 0,38,39
 314 606 314 606 356 592.5 c 128,-1,40
 398 579 398 579 433.5 553.5 c 128,-1,41
 469 528 469 528 490.5 490 c 128,-1,42
 512 452 512 452 512 405 c 2,43,-1
 512 219 l 2,44,45
 512 200 512 200 505 181 c 1,46,47
 537 173 537 173 558.5 147.5 c 128,-1,48
 580 122 580 122 580 87 c 0,49,50
 580 47 580 47 551.5 19 c 128,-1,51
 523 -9 523 -9 484 -9 c 0,52,53
 446 -9 446 -9 418 16 c 128,-1,54
 390 41 390 41 387 77 c 1,55,-1
 247 -9 l 1,56,57
 223 -9 223 -9 206.5 10 c 128,-1,58
 190 29 190 29 190 54 c 2,59,-1
 190 185 l 1,0,1
106 279 m 256,60,61
 106 258 106 258 119.5 244.5 c 128,-1,62
 133 231 133 231 154 231 c 256,63,64
 175 231 175 231 188.5 244.5 c 128,-1,65
 202 258 202 258 202 279 c 256,66,67
 202 300 202 300 188.5 313.5 c 128,-1,68
 175 327 175 327 154 327 c 256,69,70
 133 327 133 327 119.5 313.5 c 128,-1,71
 106 300 106 300 106 279 c 256,60,61
433 87 m 256,72,73
 433 66 433 66 448 51 c 128,-1,74
 463 36 463 36 484 36 c 256,75,76
 505 36 505 36 520 51 c 128,-1,77
 535 66 535 66 535 87 c 256,78,79
 535 109 535 109 520 124 c 128,-1,80
 505 139 505 139 484 139 c 256,81,82
 463 139 463 139 448 124 c 128,-1,83
 433 109 433 109 433 87 c 256,72,73
EndSplineSet
EndChar
StartChar: uni0E0A
Encoding: 3594 3594 221
Width: 604
VWidth: 1507
Flags: W
HStem: -9 51<302.214 404.245> 312 45<102.494 177.156> 454 39<112.347 177.156> 555 51<136.424 245.63>
VStem: 33 59<367.463 471.053> 188 46<367.42 443.281> 193 57<77.8452 248.357> 314 57<377.287 482.819> 457 57<77.8452 372.779>
Fore
193 166 m 2,0,1
 193 222 193 222 218.5 268 c 128,-1,2
 244 314 244 314 279 357 c 0,3,4
 314 399 314 399 314 437 c 0,5,6
 314 460 314 460 304.5 481 c 128,-1,7
 295 502 295 502 280 518.5 c 128,-1,8
 265 535 265 535 245 545 c 128,-1,9
 225 555 225 555 202 555 c 0,10,11
 163 555 163 555 134.5 534.5 c 128,-1,12
 106 514 106 514 92 484 c 1,13,14
 77 469 77 469 71 454 c 1,15,-1
 72 449 l 1,16,17
 80 470 80 470 100.5 481.5 c 128,-1,18
 121 493 121 493 140 493 c 0,19,20
 179 493 179 493 206.5 468 c 128,-1,21
 234 443 234 443 234 405 c 0,22,23
 234 366 234 366 206.5 339 c 128,-1,24
 179 312 179 312 140 312 c 0,25,26
 92 312 92 312 62.5 349.5 c 128,-1,27
 33 387 33 387 33 437 c 0,28,29
 33 472 33 472 46.5 503 c 128,-1,30
 60 534 60 534 83 556.5 c 128,-1,31
 106 579 106 579 136.5 592.5 c 128,-1,32
 167 606 167 606 202 606 c 256,33,34
 237 606 237 606 267.5 592.5 c 128,-1,35
 298 579 298 579 321 556.5 c 128,-1,36
 344 534 344 534 357.5 503 c 128,-1,37
 371 472 371 472 371 437 c 0,38,39
 371 407 371 407 355 378.5 c 128,-1,40
 339 350 339 350 317 321 c 0,41,42
 289 286 289 286 270.5 249.5 c 128,-1,43
 252 213 252 213 250 166 c 2,44,-1
 250 137 l 2,45,46
 250 95 250 95 280.5 68.5 c 128,-1,47
 311 42 311 42 353 42 c 256,48,49
 395 42 395 42 426 67.5 c 128,-1,50
 457 93 457 93 457 137 c 2,51,-1
 457 327 l 2,52,53
 457 383 457 383 445 405.5 c 128,-1,54
 433 428 433 428 410 436 c 0,55,56
 390 440 390 440 390 457 c 256,57,58
 390 473 390 473 410 478 c 0,59,60
 427 482 427 482 441 495 c 128,-1,61
 455 508 455 508 465 524.5 c 128,-1,62
 475 541 475 541 481 560 c 128,-1,63
 487 579 487 579 487 595 c 0,64,65
 487 604 487 604 487 609.5 c 128,-1,66
 487 615 487 615 484 624 c 1,67,68
 508 624 508 624 525.5 607.5 c 128,-1,69
 543 591 543 591 540 568 c 0,70,71
 534 534 534 534 513.5 501.5 c 128,-1,72
 493 469 493 469 466 457 c 1,73,74
 491 439 491 439 502.5 405.5 c 128,-1,75
 514 372 514 372 514 327 c 2,76,-1
 514 137 l 2,77,78
 514 104 514 104 501 77 c 128,-1,79
 488 50 488 50 465.5 31 c 128,-1,80
 443 12 443 12 413.5 1.5 c 128,-1,81
 384 -9 384 -9 353 -9 c 256,82,83
 321 -9 321 -9 292.5 1.5 c 128,-1,84
 264 12 264 12 241.5 31 c 128,-1,85
 219 50 219 50 206 77 c 128,-1,86
 193 104 193 104 193 137 c 2,87,-1
 193 166 l 2,0,1
92 405 m 256,88,89
 92 384 92 384 105.5 370.5 c 128,-1,90
 119 357 119 357 140 357 c 256,91,92
 161 357 161 357 174.5 370.5 c 128,-1,93
 188 384 188 384 188 405 c 256,94,95
 188 427 188 427 174.5 440.5 c 128,-1,96
 161 454 161 454 140 454 c 256,97,98
 119 454 119 454 105.5 440.5 c 128,-1,99
 92 427 92 427 92 405 c 256,88,89
EndSplineSet
EndChar
StartChar: uni0E0B
Encoding: 3595 3595 222
Width: 604
VWidth: 1507
Flags: W
HStem: -9 51<302.214 404.245> 312 45<102.494 177.156> 454 39<112.347 177.156> 586 20G<129.5 163.5 245.5 266.5>
VStem: 33 59<367.463 467.827> 188 46<367.42 443.281> 193 57<77.8452 248.357> 314 57<377.287 474.108> 457 57<77.8452 372.779>
Fore
193 166 m 2,0,1
 193 222 193 222 218.5 268 c 128,-1,2
 244 314 244 314 279 357 c 0,3,4
 314 399 314 399 314 437 c 0,5,6
 314 455 314 455 310 474 c 128,-1,7
 306 493 306 493 299 510.5 c 128,-1,8
 292 528 292 528 283 540 c 128,-1,9
 274 552 274 552 264 556 c 1,10,11
 258 552 258 552 255 549 c 0,12,-1
 240 534 l 256,13,14
 234 528 234 528 225 520 c 0,15,16
 217 512 217 512 205 512 c 128,-1,17
 193 512 193 512 185 520 c 0,18,19
 176 528 176 528 170 534 c 256,20,21
 164 540 164 540 157.5 546 c 128,-1,22
 151 552 151 552 146 556 c 1,23,24
 130 550 130 550 114.5 531 c 128,-1,25
 99 512 99 512 90 482 c 1,26,27
 77 469 77 469 71 454 c 1,28,-1
 72 449 l 1,29,30
 80 470 80 470 100.5 481.5 c 128,-1,31
 121 493 121 493 140 493 c 0,32,33
 179 493 179 493 206.5 468 c 128,-1,34
 234 443 234 443 234 405 c 0,35,36
 234 366 234 366 206.5 339 c 128,-1,37
 179 312 179 312 140 312 c 0,38,39
 92 312 92 312 62.5 349.5 c 128,-1,40
 33 387 33 387 33 437 c 0,41,42
 33 467 33 467 40.5 496.5 c 128,-1,43
 48 526 48 526 65 549 c 0,44,45
 102 606 102 606 157 606 c 0,46,47
 170 606 170 606 181.5 594 c 128,-1,48
 193 582 193 582 205 571 c 1,49,50
 214 579 214 579 226 592.5 c 128,-1,51
 238 606 238 606 253 606 c 0,52,53
 280 606 280 606 302 591 c 128,-1,54
 324 576 324 576 339 552.5 c 128,-1,55
 354 529 354 529 362.5 499 c 128,-1,56
 371 469 371 469 371 437 c 0,57,58
 371 407 371 407 355 378.5 c 128,-1,59
 339 350 339 350 317 321 c 0,60,61
 289 286 289 286 270.5 249.5 c 128,-1,62
 252 213 252 213 250 166 c 2,63,-1
 250 137 l 2,64,65
 250 95 250 95 280.5 68.5 c 128,-1,66
 311 42 311 42 353 42 c 256,67,68
 395 42 395 42 426 67.5 c 128,-1,69
 457 93 457 93 457 137 c 2,70,-1
 457 327 l 2,71,72
 457 383 457 383 445 405.5 c 128,-1,73
 433 428 433 428 410 436 c 0,74,75
 390 440 390 440 390 457 c 256,76,77
 390 473 390 473 410 478 c 0,78,79
 427 482 427 482 441 495 c 128,-1,80
 455 508 455 508 465 524.5 c 128,-1,81
 475 541 475 541 481 560 c 128,-1,82
 487 579 487 579 487 595 c 0,83,84
 487 604 487 604 487 609.5 c 128,-1,85
 487 615 487 615 484 624 c 1,86,87
 508 624 508 624 525.5 607.5 c 128,-1,88
 543 591 543 591 540 568 c 0,89,90
 534 534 534 534 513.5 501.5 c 128,-1,91
 493 469 493 469 466 457 c 1,92,93
 491 439 491 439 502.5 405.5 c 128,-1,94
 514 372 514 372 514 327 c 2,95,-1
 514 137 l 2,96,97
 514 104 514 104 501 77 c 128,-1,98
 488 50 488 50 465.5 31 c 128,-1,99
 443 12 443 12 413.5 1.5 c 128,-1,100
 384 -9 384 -9 353 -9 c 256,101,102
 321 -9 321 -9 292.5 1.5 c 128,-1,103
 264 12 264 12 241.5 31 c 128,-1,104
 219 50 219 50 206 77 c 128,-1,105
 193 104 193 104 193 137 c 2,106,-1
 193 166 l 2,0,1
92 405 m 256,107,108
 92 384 92 384 105.5 370.5 c 128,-1,109
 119 357 119 357 140 357 c 256,110,111
 161 357 161 357 174.5 370.5 c 128,-1,112
 188 384 188 384 188 405 c 256,113,114
 188 427 188 427 174.5 440.5 c 128,-1,115
 161 454 161 454 140 454 c 256,116,117
 119 454 119 454 105.5 440.5 c 128,-1,118
 92 427 92 427 92 405 c 256,107,108
EndSplineSet
EndChar
StartChar: uni0E0C
Encoding: 3596 3596 223
Width: 908
VWidth: 1507
Flags: W
HStem: -9 45<173.42 248.58 408.42 483.156> 133 45<173.672 248.58 408.42 473.14> 555 51<238.008 340.607>
VStem: 60 58<406.424 466.702> 118 45<49.9237 119.076> 118 57<178 295.404> 259 45<46.4203 122.491> 353 45<46.4203 122.491> 482 58<169.126 405 405 460.156> 494 46<49.9237 84> 761 57<50.6602 584.92>
Fore
175 178 m 1,0,1
 160 169 160 169 151 154 c 1,2,-1
 152 149 l 1,3,4
 170 178 170 178 211 178 c 0,5,6
 250 178 250 178 277 151 c 128,-1,7
 304 124 304 124 304 84 c 256,8,9
 304 45 304 45 277 18 c 128,-1,10
 250 -9 250 -9 211 -9 c 256,11,12
 172 -9 172 -9 145 18 c 128,-1,13
 118 45 118 45 118 84 c 2,14,-1
 118 291 l 1,15,16
 115 294 115 294 105.5 310.5 c 128,-1,17
 96 327 96 327 87 345 c 0,18,19
 75 366 75 366 63 392 c 0,20,21
 60 401 60 401 60 405 c 0,22,23
 60 451 60 451 81 488 c 128,-1,24
 102 525 102 525 136 551 c 128,-1,25
 170 577 170 577 213 591.5 c 128,-1,26
 256 606 256 606 300 606 c 0,27,28
 342 606 342 606 385 592.5 c 128,-1,29
 428 579 428 579 462 553.5 c 128,-1,30
 496 528 496 528 518 490 c 128,-1,31
 540 452 540 452 540 405 c 2,32,-1
 540 145 l 1,33,-1
 761 50 l 1,34,-1
 761 541 l 2,35,36
 761 567 761 567 777.5 585.5 c 128,-1,37
 794 604 794 604 818 604 c 1,38,-1
 818 54 l 2,39,40
 818 27 818 27 801.5 9 c 128,-1,41
 785 -9 785 -9 761 -9 c 1,42,-1
 540 84 l 1,43,44
 540 45 540 45 512.5 18 c 128,-1,45
 485 -9 485 -9 446 -9 c 256,46,47
 407 -9 407 -9 380 18 c 128,-1,48
 353 45 353 45 353 84 c 256,49,50
 353 124 353 124 380 151 c 128,-1,51
 407 178 407 178 446 178 c 0,52,53
 457 178 457 178 466.5 175 c 128,-1,54
 476 172 476 172 485 169 c 1,55,56
 482 173 482 173 482 181 c 2,57,-1
 482 405 l 2,58,59
 482 434 482 434 468 461 c 128,-1,60
 454 488 454 488 429 509.5 c 128,-1,61
 404 531 404 531 371 543 c 128,-1,62
 338 555 338 555 300 555 c 0,63,64
 264 555 264 555 231.5 543.5 c 128,-1,65
 199 532 199 532 174 512.5 c 128,-1,66
 149 493 149 493 134 467.5 c 128,-1,67
 119 442 119 442 118 413 c 1,68,69
 121 408 121 408 128.5 391.5 c 128,-1,70
 136 375 136 375 146 357 c 0,71,72
 157 336 157 336 172 312 c 1,73,74
 175 303 175 303 175 298 c 2,75,-1
 175 178 l 1,0,1
398 84 m 256,76,77
 398 63 398 63 411.5 49.5 c 128,-1,78
 425 36 425 36 446 36 c 256,79,80
 467 36 467 36 480.5 49.5 c 128,-1,81
 494 63 494 63 494 84 c 256,82,83
 494 106 494 106 480.5 119.5 c 128,-1,84
 467 133 467 133 446 133 c 256,85,86
 425 133 425 133 411.5 119.5 c 128,-1,87
 398 106 398 106 398 84 c 256,76,77
211 133 m 256,88,89
 190 133 190 133 176.5 119.5 c 128,-1,90
 163 106 163 106 163 84 c 256,91,92
 163 63 163 63 176.5 49.5 c 128,-1,93
 190 36 190 36 211 36 c 256,94,95
 232 36 232 36 245.5 49.5 c 128,-1,96
 259 63 259 63 259 84 c 256,97,98
 259 106 259 106 245.5 119.5 c 128,-1,99
 232 133 232 133 211 133 c 256,88,89
EndSplineSet
EndChar
StartChar: uni0E0D
Encoding: 3597 3597 224
Width: 878
VWidth: 1507
Flags: W
HStem: -268 51<589.804 671.542> -210 37<549.122 583.593> -86 42<518.729 586.943> -9 57<566.127 675.935> -9 45<173.42 248.58> 133 45<173.672 248.58> 555 51<225.253 345.396>
VStem: 118 57<178 295.404> 118 45<49.9237 119.076> 259 45<46.4203 122.491> 454 57<82.0073 405 405 465.155> 467 42<-163.349 -96.0569> 597 42<-163.303 -96.0569> 720 55<-133.402 -69.8247> 731 57<82.1152 584.92>
Fore
211 133 m 256,0,1
 190 133 190 133 176.5 119.5 c 128,-1,2
 163 106 163 106 163 84 c 256,3,4
 163 63 163 63 176.5 49.5 c 128,-1,5
 190 36 190 36 211 36 c 256,6,7
 232 36 232 36 245.5 49.5 c 128,-1,8
 259 63 259 63 259 84 c 256,9,10
 259 106 259 106 245.5 119.5 c 128,-1,11
 232 133 232 133 211 133 c 256,0,1
211 178 m 0,12,13
 250 178 250 178 277 151 c 128,-1,14
 304 124 304 124 304 84 c 256,15,16
 304 45 304 45 277 18 c 128,-1,17
 250 -9 250 -9 211 -9 c 256,18,19
 172 -9 172 -9 145 18 c 128,-1,20
 118 45 118 45 118 84 c 2,21,-1
 118 291 l 1,22,23
 115 294 115 294 105.5 310.5 c 128,-1,24
 96 327 96 327 87 345 c 0,25,26
 75 366 75 366 63 392 c 0,27,28
 60 401 60 401 60 405 c 0,29,30
 60 448 60 448 77.5 485 c 128,-1,31
 95 522 95 522 125 549 c 128,-1,32
 155 576 155 576 196 591 c 128,-1,33
 237 606 237 606 285 606 c 256,34,35
 333 606 333 606 374.5 591 c 128,-1,36
 416 576 416 576 446 549 c 128,-1,37
 476 522 476 522 493.5 485 c 128,-1,38
 511 448 511 448 511 405 c 2,39,-1
 511 137 l 2,40,41
 511 98 511 98 542 73 c 128,-1,42
 573 48 573 48 621 48 c 0,43,44
 668 48 668 48 699.5 73 c 128,-1,45
 731 98 731 98 731 137 c 2,46,-1
 731 541 l 2,47,48
 731 567 731 567 747.5 585.5 c 128,-1,49
 764 604 764 604 788 604 c 1,50,-1
 788 137 l 2,51,52
 788 104 788 104 774 77 c 128,-1,53
 760 50 760 50 736.5 31 c 128,-1,54
 713 12 713 12 683 1.5 c 128,-1,55
 653 -9 653 -9 621 -9 c 0,56,57
 591 -9 591 -9 561 1 c 128,-1,58
 531 11 531 11 506.5 29.5 c 128,-1,59
 482 48 482 48 468 75 c 128,-1,60
 454 102 454 102 454 137 c 2,61,-1
 454 405 l 2,62,63
 454 439 454 439 439.5 466 c 128,-1,64
 425 493 425 493 401.5 512.5 c 128,-1,65
 378 532 378 532 348 543.5 c 128,-1,66
 318 555 318 555 285 555 c 0,67,68
 255 555 255 555 226 545 c 128,-1,69
 197 535 197 535 174.5 517 c 128,-1,70
 152 499 152 499 137 472.5 c 128,-1,71
 122 446 122 446 118 413 c 1,72,73
 121 408 121 408 128.5 391.5 c 128,-1,74
 136 375 136 375 146 357 c 0,75,76
 157 336 157 336 172 312 c 1,77,78
 175 303 175 303 175 298 c 2,79,-1
 175 178 l 1,80,81
 160 169 160 169 151 154 c 1,82,-1
 152 149 l 1,83,84
 170 178 170 178 211 178 c 0,12,13
509 -130 m 256,85,86
 509 -148 509 -148 522 -160.5 c 128,-1,87
 535 -173 535 -173 553 -173 c 256,88,89
 571 -173 571 -173 584 -160.5 c 128,-1,90
 597 -148 597 -148 597 -130 c 256,91,92
 597 -112 597 -112 584 -99 c 128,-1,93
 571 -86 571 -86 553 -86 c 256,94,95
 535 -86 535 -86 522 -99 c 128,-1,96
 509 -112 509 -112 509 -130 c 256,85,86
618 -217 m 0,97,98
 647 -217 647 -217 668.5 -201 c 128,-1,99
 690 -185 690 -185 703 -160.5 c 128,-1,100
 716 -136 716 -136 720 -105 c 128,-1,101
 724 -74 724 -74 716 -45 c 1,102,103
 743 -45 743 -45 759 -60 c 128,-1,104
 775 -75 775 -75 775 -99 c 0,105,106
 775 -131 775 -131 763.5 -161 c 128,-1,107
 752 -191 752 -191 731.5 -215.5 c 128,-1,108
 711 -240 711 -240 682.5 -254 c 128,-1,109
 654 -268 654 -268 618 -268 c 0,110,111
 589 -268 589 -268 562 -257.5 c 128,-1,112
 535 -247 535 -247 514 -229 c 128,-1,113
 493 -211 493 -211 480 -185.5 c 128,-1,114
 467 -160 467 -160 467 -130 c 0,115,116
 467 -95 467 -95 492 -69.5 c 128,-1,117
 517 -44 517 -44 553 -44 c 0,118,119
 588 -44 588 -44 613.5 -69.5 c 128,-1,120
 639 -95 639 -95 639 -130 c 256,121,122
 639 -164 639 -164 613.5 -187 c 128,-1,123
 588 -210 588 -210 553 -210 c 1,124,-1
 549 -211 l 1,125,126
 568 -214 568 -214 583 -210 c 1,127,128
 601 -217 601 -217 618 -217 c 0,97,98
EndSplineSet
Substitution2: "Single Substitution lookup 22 subtable" uni0E0D.alt1
Substitution2: "Single Substitution lookup 22 subtable" uni0E0D.alt1
EndChar
StartChar: uni0E0E
Encoding: 3598 3598 225
AltUni2: 00f71b.ffffffff.0
Width: 658
VWidth: 1507
Flags: W
HStem: -9 45<100.767 176.58> 133 45<100.767 176.328> 555 51<265.008 367.607>
VStem: 45 45<46.9228 121.981> 87 58<413 466.702> 151 52<-221.208 -152.861> 175 57<178 288> 187 45<49.9237 119.076> 509 58<-135.172 460.156>
Fore
246 -226 m 0,0,1
 271 -228 271 -228 293 -213.5 c 128,-1,2
 315 -199 315 -199 336 -169 c 1,3,4
 311 -152 311 -152 289 -146 c 128,-1,5
 267 -140 267 -140 247 -143 c 0,6,7
 232 -146 232 -146 217.5 -154.5 c 128,-1,8
 203 -163 203 -163 203 -185 c 0,9,10
 203 -223 203 -223 246 -226 c 0,0,1
90 84 m 256,11,12
 90 63 90 63 104 49.5 c 128,-1,13
 118 36 118 36 139 36 c 256,14,15
 160 36 160 36 173.5 49.5 c 128,-1,16
 187 63 187 63 187 84 c 256,17,18
 187 106 187 106 173.5 119.5 c 128,-1,19
 160 133 160 133 139 133 c 256,20,21
 118 133 118 133 104 119.5 c 128,-1,22
 90 106 90 106 90 84 c 256,11,12
175 288 m 1,23,24
 170 292 170 292 163.5 300.5 c 0,25,-1
 130 342 l 0,26,27
 113 362 113 362 93 387 c 0,28,29
 87 396 87 396 87 405 c 0,30,31
 87 451 87 451 108.5 488.5 c 128,-1,32
 130 526 130 526 163.5 551.5 c 128,-1,33
 197 577 197 577 240 591.5 c 128,-1,34
 283 606 283 606 327 606 c 0,35,36
 369 606 369 606 412 592.5 c 128,-1,37
 455 579 455 579 489 553.5 c 128,-1,38
 523 528 523 528 545 490 c 128,-1,39
 567 452 567 452 567 405 c 2,40,-1
 567 -113 l 2,41,42
 567 -125 567 -125 564 -135.5 c 128,-1,43
 561 -146 561 -146 553 -152 c 2,44,-1
 442 -265 l 2,45,46
 433 -274 433 -274 421 -271 c 256,47,48
 408 -268 408 -268 404 -258 c 0,49,50
 392 -225 392 -225 371 -199 c 1,51,52
 311 -276 311 -276 237 -271 c 0,53,54
 197 -268 197 -268 174 -245 c 128,-1,55
 151 -222 151 -222 151 -185 c 0,56,57
 151 -151 151 -151 173.5 -127.5 c 128,-1,58
 196 -104 196 -104 235 -98 c 0,59,60
 291 -90 291 -90 350 -124 c 2,61,-1
 360 -131 l 1,62,63
 371 -113 371 -113 378.5 -94 c 128,-1,64
 386 -75 386 -75 393 -56 c 1,65,66
 413 -63 413 -63 420 -80.5 c 128,-1,67
 427 -98 427 -98 419 -116 c 0,68,69
 413 -128 413 -128 407.5 -138.5 c 128,-1,70
 402 -149 402 -149 396 -160 c 1,71,72
 405 -170 405 -170 416.5 -183.5 c 128,-1,73
 428 -197 428 -197 436 -214 c 1,74,-1
 509 -140 l 1,75,-1
 509 405 l 2,76,77
 509 434 509 434 495 461 c 128,-1,78
 481 488 481 488 456 509.5 c 128,-1,79
 431 531 431 531 398 543 c 128,-1,80
 365 555 365 555 327 555 c 0,81,82
 291 555 291 555 258.5 543.5 c 128,-1,83
 226 532 226 532 201 512.5 c 128,-1,84
 176 493 176 493 161 467.5 c 128,-1,85
 146 442 146 442 145 413 c 1,86,87
 148 407 148 407 161.5 391 c 128,-1,88
 175 375 175 375 188 359 c 0,89,90
 205 339 205 339 225 315 c 0,91,92
 232 307 232 307 232 297 c 2,93,-1
 232 84 l 2,94,95
 232 45 232 45 205 18 c 128,-1,96
 178 -9 178 -9 139 -9 c 256,97,98
 99 -9 99 -9 72 18 c 128,-1,99
 45 45 45 45 45 84 c 256,100,101
 45 124 45 124 72 151 c 128,-1,102
 99 178 99 178 139 178 c 128,-1,103
 179 178 179 178 197 149 c 1,104,-1
 199 154 l 1,105,106
 190 169 190 169 175 178 c 1,107,-1
 175 288 l 1,23,24
EndSplineSet
Substitution2: "Single Substitution lookup 22 subtable" uni0E0E.alt1
Substitution2: "Single Substitution lookup 22 subtable" uni0E0E.alt1
EndChar
StartChar: uni0E0F
Encoding: 3599 3599 226
AltUni2: 00f71c.ffffffff.0
Width: 657
VWidth: 1507
Flags: W
HStem: -9 45<100.767 176.58> 133 45<100.767 176.328> 555 51<265.008 367.607>
VStem: 45 45<46.9228 121.981> 53 53<-221.413 -152.861> 87 58<413 466.702> 175 57<178 288> 187 45<49.9237 119.076> 509 58<-182 460.156>
Fore
139 178 m 128,-1,1
 179 178 179 178 197 149 c 1,2,-1
 199 154 l 1,3,4
 190 169 190 169 175 178 c 1,5,-1
 175 288 l 1,6,7
 170 292 170 292 163.5 300.5 c 0,8,-1
 130 342 l 0,9,10
 113 362 113 362 93 387 c 0,11,12
 87 396 87 396 87 405 c 0,13,14
 87 451 87 451 108.5 488.5 c 128,-1,15
 130 526 130 526 163.5 551.5 c 128,-1,16
 197 577 197 577 240 591.5 c 128,-1,17
 283 606 283 606 327 606 c 0,18,19
 369 606 369 606 412 592.5 c 128,-1,20
 455 579 455 579 489 553.5 c 128,-1,21
 523 528 523 528 545 490 c 128,-1,22
 567 452 567 452 567 405 c 2,23,-1
 567 -163 l 2,24,25
 567 -182 567 -182 553 -196 c 2,26,-1
 484 -265 l 2,27,28
 476 -273 476 -273 467 -273 c 128,-1,29
 458 -273 458 -273 452 -265 c 2,30,-1
 398 -211 l 1,31,-1
 344 -265 l 2,32,33
 335 -274 335 -274 323 -271 c 256,34,35
 311 -268 311 -268 306 -258 c 0,36,37
 292 -220 292 -220 273 -199 c 1,38,39
 213 -276 213 -276 139 -271 c 0,40,41
 99 -268 99 -268 76 -245 c 128,-1,42
 53 -222 53 -222 53 -185 c 0,43,44
 53 -151 53 -151 75.5 -127.5 c 128,-1,45
 98 -104 98 -104 137 -98 c 0,46,47
 193 -90 193 -90 252 -124 c 2,48,-1
 262 -131 l 1,49,50
 270 -119 270 -119 276 -105.5 c 128,-1,51
 282 -92 282 -92 288 -77 c 0,52,53
 289 -74 289 -74 290.5 -67 c 128,-1,54
 292 -60 292 -60 295 -56 c 1,55,56
 315 -63 315 -63 322 -80.5 c 128,-1,57
 329 -98 329 -98 321 -116 c 0,58,59
 315 -128 315 -128 309.5 -138.5 c 128,-1,60
 304 -149 304 -149 298 -160 c 1,61,62
 307 -170 307 -170 320 -185 c 128,-1,63
 333 -200 333 -200 341 -217 c 1,64,-1
 387 -170 l 2,65,66
 402 -155 402 -155 419 -170 c 2,67,-1
 470 -220 l 1,68,-1
 509 -182 l 1,69,-1
 509 405 l 2,70,71
 509 434 509 434 495 461 c 128,-1,72
 481 488 481 488 456 509.5 c 128,-1,73
 431 531 431 531 398 543 c 128,-1,74
 365 555 365 555 327 555 c 0,75,76
 291 555 291 555 258.5 543.5 c 128,-1,77
 226 532 226 532 201 512.5 c 128,-1,78
 176 493 176 493 161 467.5 c 128,-1,79
 146 442 146 442 145 413 c 1,80,81
 148 407 148 407 161.5 391 c 128,-1,82
 175 375 175 375 188 359 c 0,83,84
 205 339 205 339 225 315 c 0,85,86
 232 307 232 307 232 297 c 2,87,-1
 232 84 l 2,88,89
 232 45 232 45 205 18 c 128,-1,90
 178 -9 178 -9 139 -9 c 256,91,92
 99 -9 99 -9 72 18 c 128,-1,93
 45 45 45 45 45 84 c 256,94,95
 45 124 45 124 72 151 c 128,-1,0
 99 178 99 178 139 178 c 128,-1,1
148 -226 m 0,96,97
 173 -228 173 -228 195 -213.5 c 128,-1,98
 217 -199 217 -199 238 -169 c 1,99,100
 213 -152 213 -152 191 -146 c 128,-1,101
 169 -140 169 -140 149 -143 c 0,102,103
 134 -146 134 -146 120 -154.5 c 128,-1,104
 106 -163 106 -163 106 -185 c 0,105,106
 106 -223 106 -223 148 -226 c 0,96,97
90 84 m 256,107,108
 90 63 90 63 104 49.5 c 128,-1,109
 118 36 118 36 139 36 c 256,110,111
 160 36 160 36 173.5 49.5 c 128,-1,112
 187 63 187 63 187 84 c 256,113,114
 187 106 187 106 173.5 119.5 c 128,-1,115
 160 133 160 133 139 133 c 256,116,117
 118 133 118 133 104 119.5 c 128,-1,118
 90 106 90 106 90 84 c 256,107,108
EndSplineSet
Substitution2: "Single Substitution lookup 22 subtable" uni0E0F.alt1
Substitution2: "Single Substitution lookup 22 subtable" uni0E0F.alt1
EndChar
StartChar: uni0E10
Encoding: 3600 3600 227
Width: 580
VWidth: 1507
Flags: W
HStem: -301 37<116.375 190.25> -193 38<117.99 177.211 362.876 409.079> -77 42<362.975 414.7> -9 21G<407.277 430> 119 45<212.42 287.382> 261 45<212.42 287.369> 555 51<208.067 331.677>
VStem: 68 38<-253.251 -199.206> 157 45<174.509 250.58> 309 42<-140.004 -89.0811> 418 57<106 323> 424 45<-226 -194 -131.26 -97.9316>
Fore
424 -194 m 1,0,1
 436 -188 436 -188 443 -178 c 1,2,-1
 442 -173 l 1,3,4
 433 -185 433 -185 420 -189.5 c 128,-1,5
 407 -194 407 -194 389 -194 c 0,6,7
 357 -194 357 -194 333 -171.5 c 128,-1,8
 309 -149 309 -149 309 -115 c 128,-1,9
 309 -81 309 -81 332.5 -58 c 128,-1,10
 356 -35 356 -35 389 -35 c 256,11,12
 422 -35 422 -35 445.5 -58 c 128,-1,13
 469 -81 469 -81 469 -115 c 2,14,-1
 469 -208 l 2,15,16
 469 -228 469 -228 460 -237 c 0,17,18
 457 -240 457 -240 448 -249 c 128,-1,19
 439 -258 439 -258 430 -268 c 0,20,21
 418 -280 418 -280 405 -295 c 0,22,23
 399 -301 399 -301 392 -301 c 256,24,25
 384 -301 384 -301 378 -295 c 2,26,-1
 338 -252 l 1,27,-1
 297 -295 l 2,28,29
 291 -301 291 -301 282 -301 c 0,30,31
 270 -301 270 -301 265 -289 c 0,32,33
 253 -259 253 -259 240 -241 c 1,34,35
 226 -267 226 -267 197.5 -284 c 128,-1,36
 169 -301 169 -301 139 -301 c 256,37,38
 109 -301 109 -301 88.5 -280 c 128,-1,39
 68 -259 68 -259 68 -229 c 0,40,41
 68 -196 68 -196 90 -175.5 c 128,-1,42
 112 -155 112 -155 143 -155 c 0,43,44
 167 -155 167 -155 190 -161 c 128,-1,45
 213 -167 213 -167 232 -182 c 1,46,47
 238 -172 238 -172 244 -156 c 128,-1,48
 250 -140 250 -140 258 -115 c 1,49,50
 291 -128 291 -128 280 -166 c 0,51,52
 274 -187 274 -187 261 -208 c 1,53,54
 268 -216 268 -216 278 -229.5 c 128,-1,55
 288 -243 288 -243 295 -255 c 1,56,-1
 330 -217 l 2,57,58
 336 -211 336 -211 344 -211 c 256,59,60
 351 -211 351 -211 357 -217 c 2,61,-1
 395 -258 l 1,62,-1
 424 -226 l 1,63,-1
 424 -194 l 1,0,1
140 -264 m 0,64,65
 179 -264 179 -264 213 -216 c 1,66,67
 193 -200 193 -200 176.5 -196.5 c 128,-1,68
 160 -193 160 -193 143 -193 c 0,69,70
 131 -193 131 -193 118.5 -201.5 c 128,-1,71
 106 -210 106 -210 106 -229 c 0,72,73
 106 -244 106 -244 115.5 -254 c 128,-1,74
 125 -264 125 -264 140 -264 c 0,64,65
351 -115 m 256,75,76
 351 -131 351 -131 361.5 -141.5 c 128,-1,77
 372 -152 372 -152 389 -152 c 256,78,79
 405 -152 405 -152 416 -141.5 c 128,-1,80
 427 -131 427 -131 427 -115 c 256,81,82
 427 -98 427 -98 416 -87.5 c 128,-1,83
 405 -77 405 -77 389 -77 c 256,84,85
 372 -77 372 -77 361.5 -87.5 c 128,-1,86
 351 -98 351 -98 351 -115 c 256,75,76
202 213 m 256,87,88
 202 191 202 191 215.5 177.5 c 128,-1,89
 229 164 229 164 250 164 c 256,90,91
 271 164 271 164 284.5 177.5 c 128,-1,92
 298 191 298 191 298 213 c 256,93,94
 298 234 298 234 284.5 247.5 c 128,-1,95
 271 261 271 261 250 261 c 256,96,97
 229 261 229 261 215.5 247.5 c 128,-1,98
 202 234 202 234 202 213 c 256,87,88
490 597 m 1,99,100
 512 586 512 586 518.5 566.5 c 128,-1,101
 525 547 525 547 514 526 c 2,102,-1
 476 451 l 2,103,104
 466 431 466 431 451 432.5 c 128,-1,105
 436 434 436 434 428 451 c 0,106,107
 410 496 410 496 366.5 525.5 c 128,-1,108
 323 555 323 555 271 555 c 0,109,110
 214 555 214 555 174 525.5 c 128,-1,111
 134 496 134 496 122 448 c 1,112,-1
 430 374 l 2,113,114
 449 369 449 369 462 352 c 128,-1,115
 475 335 475 335 475 312 c 2,116,-1
 475 54 l 2,117,118
 475 27 475 27 458.5 9 c 128,-1,119
 442 -9 442 -9 418 -9 c 1,120,-1
 329 157 l 1,121,122
 332 163 332 163 333.5 168 c 128,-1,123
 335 173 335 173 336 181 c 1,124,-1
 335 185 l 1,125,126
 327 151 327 151 303 135 c 128,-1,127
 279 119 279 119 250 119 c 0,128,129
 211 119 211 119 184 146 c 128,-1,130
 157 173 157 173 157 213 c 256,131,132
 157 252 157 252 184 279 c 128,-1,133
 211 306 211 306 250 306 c 0,134,135
 276 306 276 306 298.5 292.5 c 128,-1,136
 321 279 321 279 333 256 c 0,137,138
 336 249 336 249 352.5 219.5 c 128,-1,139
 369 190 369 190 387 155 c 0,140,141
 408 116 408 116 433 68 c 1,142,-1
 434 72 l 1,143,-1
 418 106 l 1,144,-1
 418 323 l 1,145,-1
 83 405 l 2,146,147
 74 408 74 408 66.5 416 c 128,-1,148
 59 424 59 424 60 436 c 0,149,150
 65 472 65 472 83 503.5 c 128,-1,151
 101 535 101 535 129 557.5 c 128,-1,152
 157 580 157 580 194 593 c 128,-1,153
 231 606 231 606 271 606 c 0,154,155
 303 606 303 606 333 597 c 128,-1,156
 363 588 363 588 389 573 c 128,-1,157
 415 558 415 558 434.5 536.5 c 128,-1,158
 454 515 454 515 464 491 c 1,159,-1
 466 496 l 1,160,161
 461 509 461 509 451 525 c 1,162,-1
 490 597 l 1,99,100
EndSplineSet
Substitution2: "Single Substitution lookup 22 subtable" uni0E10.alt1
Substitution2: "Single Substitution lookup 22 subtable" uni0E10.alt1
EndChar
StartChar: uni0E11
Encoding: 3601 3601 228
Width: 734
VWidth: 1507
Flags: W
HStem: -9 21G<253 275.323 586 598> 312 45<102.494 177.156> 454 39<112.347 177.156> 586 20G<129.5 163.5 245.5 266.5 534.5 566.5>
VStem: 33 59<367.463 467.827> 188 46<367.42 443.281> 208 57<112 166 166 214.911> 314 57<377.287 474.108> 586 58<9.5647 544.95>
Fore
90 482 m 1,0,1
 77 469 77 469 71 454 c 1,2,-1
 72 449 l 1,3,4
 80 470 80 470 100.5 481.5 c 128,-1,5
 121 493 121 493 140 493 c 0,6,7
 179 493 179 493 206.5 468 c 128,-1,8
 234 443 234 443 234 405 c 0,9,10
 234 366 234 366 206.5 339 c 128,-1,11
 179 312 179 312 140 312 c 0,12,13
 92 312 92 312 62.5 349.5 c 128,-1,14
 33 387 33 387 33 437 c 0,15,16
 33 467 33 467 40.5 496.5 c 128,-1,17
 48 526 48 526 65 549 c 0,18,19
 102 606 102 606 157 606 c 0,20,21
 170 606 170 606 181.5 594 c 128,-1,22
 193 582 193 582 205 571 c 1,23,24
 214 579 214 579 226 592.5 c 128,-1,25
 238 606 238 606 253 606 c 0,26,27
 280 606 280 606 302 591 c 128,-1,28
 324 576 324 576 339 552.5 c 128,-1,29
 354 529 354 529 362.5 499 c 128,-1,30
 371 469 371 469 371 437 c 0,31,32
 371 407 371 407 355 378.5 c 128,-1,33
 339 350 339 350 317 321 c 0,34,35
 288 286 288 286 276.5 250 c 128,-1,36
 265 214 265 214 265 166 c 2,37,-1
 265 112 l 1,38,-1
 246 72 l 1,39,-1
 247 68 l 1,40,-1
 519 591 l 2,41,42
 525 606 525 606 544 606 c 0,43,44
 589 606 589 606 616.5 579 c 128,-1,45
 644 552 644 552 644 506 c 2,46,-1
 644 54 l 2,47,48
 644 27 644 27 627 9 c 128,-1,49
 610 -9 610 -9 586 -9 c 1,50,-1
 586 506 l 2,51,52
 586 544 586 544 553 549 c 1,53,-1
 265 -9 l 1,54,55
 241 -9 241 -9 224.5 9 c 128,-1,56
 208 27 208 27 208 54 c 2,57,-1
 208 166 l 2,58,59
 208 222 208 222 225.5 267 c 128,-1,60
 243 312 243 312 279 357 c 0,61,62
 314 399 314 399 314 437 c 0,63,64
 314 455 314 455 310 474 c 128,-1,65
 306 493 306 493 299 510.5 c 128,-1,66
 292 528 292 528 283 540 c 128,-1,67
 274 552 274 552 264 556 c 1,68,69
 258 552 258 552 255 549 c 0,70,-1
 240 534 l 256,71,72
 234 528 234 528 225 520 c 0,73,74
 217 512 217 512 205 512 c 128,-1,75
 193 512 193 512 185 520 c 0,76,77
 176 528 176 528 170 534 c 256,78,79
 164 540 164 540 157.5 546 c 128,-1,80
 151 552 151 552 146 556 c 1,81,82
 130 550 130 550 114.5 531 c 128,-1,83
 99 512 99 512 90 482 c 1,0,1
92 405 m 256,84,85
 92 384 92 384 105.5 370.5 c 128,-1,86
 119 357 119 357 140 357 c 256,87,88
 161 357 161 357 174.5 370.5 c 128,-1,89
 188 384 188 384 188 405 c 256,90,91
 188 427 188 427 174.5 440.5 c 128,-1,92
 161 454 161 454 140 454 c 256,93,94
 119 454 119 454 105.5 440.5 c 128,-1,95
 92 427 92 427 92 405 c 256,84,85
EndSplineSet
EndChar
